<?xml version="1.0" encoding="utf-8"?>
<!-- Generator: Adobe Illustrator 16.0.4, SVG Export Plug-In . SVG Version: 6.00 Build 0)  -->
<!DOCTYPE svg PUBLIC "-//W3C//DTD SVG 1.1//EN" "http://www.w3.org/Graphics/SVG/1.1/DTD/svg11.dtd">
<svg version="1.1" id="Layer_1" xmlns="http://www.w3.org/2000/svg" xmlns:xlink="http://www.w3.org/1999/xlink" x="0px" y="0px"
	 width="250px" height="250px" viewBox="0 0 250 250" enable-background="new 0 0 250 250" xml:space="preserve">
<g>
	<polygon fill="#231F20" points="92.221,119.674 96.506,119.674 94.379,109.105 	"/>
	<path fill="#231F20" d="M114.729,138.706h-0.222v2.193h0.222c0.747,0,1.586-0.141,1.586-1.097S115.475,138.706,114.729,138.706z"/>
	<path fill="#231F20" d="M125.167,65.306c-33.137,0-60,26.863-60,60s26.863,60,60,60s60-26.863,60-60S158.304,65.306,125.167,65.306
		z M98.117,127.568l-1.095-5.414h-5.317l-1.095,5.414h-2.9l5.349-22.942h2.674l5.317,22.942H98.117z M108.257,139.907
		c-0.467-0.629-1.225-0.968-2.006-0.968c-1.4,0-2.344,1.073-2.344,2.438c0,1.388,0.957,2.391,2.379,2.391
		c0.747,0,1.493-0.361,1.971-0.933v2.741c-0.758,0.233-1.307,0.408-2.018,0.408c-1.225,0-2.391-0.467-3.301-1.295
		c-0.968-0.875-1.411-2.019-1.411-3.324c0-1.201,0.455-2.356,1.295-3.22c0.862-0.887,2.111-1.423,3.347-1.423
		c0.735,0,1.412,0.163,2.088,0.443V139.907z M110.619,127.568h-2.771v-20.461h-3.867v-2.481h10.472v2.481h-3.834V127.568z
		 M116.688,145.752l-2.158-3.383h-0.023v3.383h-2.286v-8.795h3.417c1.738,0,3.057,0.828,3.057,2.706
		c0,1.213-0.677,2.263-1.925,2.484l2.765,3.604H116.688z M127.684,138.893h-2.717v1.47h2.577v1.937h-2.577v1.517h2.717v1.937h-5.003
		v-8.795h5.003V138.893z M130.726,127.568h-2.771v-10.408h-5.091v10.408h-2.771v-22.942h2.771v10.021h5.091v-10.021h2.771V127.568z
		 M136.636,138.893h-2.717v1.47h2.577v1.937h-2.577v1.517h2.717v1.937h-5.003v-8.795h5.003V138.893z M137.104,104.626h8.861v2.481
		h-6.09v7.701h5.252v2.481h-5.252v7.797h6.09v2.481h-8.861V104.626z M145.845,145.752l-2.951-3.814h-0.022v3.814h-2.286v-8.795
		h2.286v3.628h0.022l2.765-3.628h2.834l-3.499,4.163l3.814,4.632H145.845z M158.372,118.288v9.28h-2.771v-9.28l-4.221-13.662h3.028
		l2.578,9.795l2.577-9.795h3.062L158.372,118.288z"/>
</g>
</svg>
