<svg xmlns="http://www.w3.org/2000/svg" width="250" height="250" viewBox="0 0 250 250"><g fill="#231F20"><path d="M92.221 119.674h4.285l-2.127-10.569zM114.729 138.706h-.222v2.193h.222c.747 0 1.586-.141 1.586-1.097s-.84-1.096-1.586-1.096zM125.167 65.306c-33.137 0-60 26.863-60 60s26.863 60 60 60 60-26.863 60-60-26.863-60-60-60zm-27.05 62.262l-1.095-5.414h-5.317l-1.095 5.414h-2.9l5.349-22.942h2.674l5.317 22.942h-2.933zm10.14 12.339c-.467-.629-1.225-.968-2.006-.968-1.4 0-2.344 1.073-2.344 2.438 0 1.388.957 2.391 2.379 2.391.747 0 1.493-.361 1.971-.933v2.741c-.758.233-1.307.408-2.018.408-1.225 0-2.391-.467-3.301-1.295-.968-.875-1.411-2.019-1.411-3.324 0-1.201.455-2.356 1.295-3.22.862-.887 2.111-1.423 3.347-1.423.735 0 1.412.163 2.088.443v2.742zm2.362-12.339h-2.771v-20.461h-3.867v-2.481h10.472v2.481h-3.834v20.461zm6.069 18.184l-2.158-3.383h-.023v3.383h-2.286v-8.795h3.417c1.738 0 3.057.828 3.057 2.706 0 1.213-.677 2.263-1.925 2.484l2.765 3.604h-2.847zm10.996-6.859h-2.717v1.47h2.577v1.937h-2.577v1.517h2.717v1.937h-5.003v-8.795h5.003v1.934zm3.042-11.325h-2.771v-10.408h-5.091v10.408h-2.771v-22.942h2.771v10.021h5.091v-10.021h2.771v22.942zm5.91 11.325h-2.717v1.47h2.577v1.937h-2.577v1.517h2.717v1.937h-5.003v-8.795h5.003v1.934zm.468-34.267h8.861v2.481h-6.09v7.701h5.252v2.481h-5.252v7.797h6.09v2.481h-8.861v-22.941zm8.741 41.126l-2.951-3.814h-.022v3.814h-2.286v-8.795h2.286v3.628h.022l2.765-3.628h2.834l-3.499 4.163 3.814 4.632h-2.963zm12.527-27.464v9.28h-2.771v-9.28l-4.221-13.662h3.028l2.578 9.795 2.577-9.795h3.062l-4.253 13.662z"/></g></svg>