<?xml version="1.0" encoding="utf-8"?>
<!-- Generator: Adobe Illustrator 19.1.0, SVG Export Plug-In . SVG Version: 6.00 Build 0)  -->
<svg version="1.1" id="Layer_1" xmlns="http://www.w3.org/2000/svg" xmlns:xlink="http://www.w3.org/1999/xlink" x="0px" y="0px"
	 viewBox="-270 182 250 250" style="enable-background:new -270 182 250 250;" xml:space="preserve">
<style type="text/css">
	.st0{clip-path:url(#SVGID_2_);}
</style>
<g>
	<defs>
		<path id="SVGID_1_" d="M-199,284.8c3.2,0,5.8-2.6,5.8-5.8c0-3.2-2.6-5.8-5.8-5.8s-5.8,2.6-5.8,5.8
			C-204.8,282.2-202.2,284.8-199,284.8z M-66.6,310.3c1.3-7.8,6.9-12.2,13.9-12.2c6.1,0,11.2,4,11.4,12.2H-66.6z M-76.3,315.9
			c0,14.1,10.2,25,25.2,25c11.4,0,18.4-6.8,18.4-6.8l-3.8-6.7c0,0-5.9,5.6-14.1,5.6c-8.4,0-15.9-5.3-16.3-15.7h34.6
			c0,0,0.3-2.7,0.3-4c0-12.3-7.1-22.3-20.6-22.3C-66.1,290.9-76.3,300.7-76.3,315.9z M-203.5,326.7c0,12,7.6,13.4,12.8,13.4
			c1.6,0,3-0.2,3-0.2v-8.1c0,0-0.8,0.1-1.6,0.1c-2.8,0-5.1-1-5.1-6.8V292h-9.1V326.7z M-95.8,326.7c0,12,7.6,13.4,12.8,13.4
			c1.6,0,3-0.2,3-0.2v-8.1c0,0-0.8,0.1-1.6,0.1c-2.8,0-5.1-1-5.1-6.8v-51.9h-9.1V326.7z M-148.7,315.9c0,14.3,10.5,25,25.4,25
			c12.4,0,19-7.6,19-7.6l-3.7-6.7c0,0-5.8,6.4-14.6,6.4c-9.9,0-16.8-7.4-16.8-17.1c0-9.8,6.9-17,16.5-17c8.1,0,13.1,5.5,13.1,5.5
			l4.3-6.4c0,0-5.9-7-17.8-7C-138.2,290.9-148.7,301.7-148.7,315.9z M-177.6,339.7h9.1v-19.5c0-2.9,0.3-5.8,1.1-8.6
			c2.2-7.1,7.5-11.2,13.3-11.2c1.4,0,2.6,0.3,2.6,0.3v-9c0,0-1.1-0.2-2.3-0.2c-7.3,0-12.9,5.5-15,12.4h-0.2c0,0,0.2-1.6,0.2-3.6V292
			l-8.8,0V339.7z M-257,315.9c0,14.3,10.5,25,25.4,25c12.4,0,19-7.6,19-7.6l-3.7-6.7c0,0-5.8,6.4-14.6,6.4
			c-9.9,0-16.8-7.4-16.8-17.1c0-9.8,6.9-17,16.5-17c8.1,0,13.1,5.5,13.1,5.5l4.3-6.4c0,0-5.9-7-17.8-7
			C-246.5,290.9-257,301.7-257,315.9z"/>
	</defs>
	<use xlink:href="#SVGID_1_"  style="overflow:visible;fill-rule:evenodd;clip-rule:evenodd;"/>
	<clipPath id="SVGID_2_">
		<use xlink:href="#SVGID_1_"  style="overflow:visible;"/>
	</clipPath>
	<rect x="-263.5" y="266.7" class="st0" width="238" height="80.6"/>
</g>
</svg>
