<?xml version="1.0" encoding="utf-8"?>
<!-- Generator: Adobe Illustrator 16.0.4, SVG Export Plug-In . SVG Version: 6.00 Build 0)  -->
<!DOCTYPE svg PUBLIC "-//W3C//DTD SVG 1.1//EN" "http://www.w3.org/Graphics/SVG/1.1/DTD/svg11.dtd">
<svg version="1.1" id="Layer_1" xmlns="http://www.w3.org/2000/svg" xmlns:xlink="http://www.w3.org/1999/xlink" x="0px" y="0px"
	 width="250px" height="250px" viewBox="0 0 250 250" enable-background="new 0 0 250 250" xml:space="preserve">
<path fill-rule="evenodd" clip-rule="evenodd" d="M125.952,172.111c-20.602,0-38.109-13.109-44.6-31.409h0.001h89.198
	c1.752-4.904,2.7-10.194,2.7-15.704c0-5.505-0.948-10.794-2.7-15.7H81.353h-0.002c6.491-18.299,23.999-31.409,44.601-31.409
	c20.602,0,38.119,13.106,44.599,31.409h32.664c-7.318-35.844-39.125-62.814-77.263-62.814c-38.142,0-69.951,26.975-77.254,62.814
	h-0.01c-0.222,1.101-0.411,2.214-0.587,3.331c-0.023,0.146-0.055,0.29-0.077,0.437c-0.114,0.752-0.196,1.515-0.29,2.273
	c-0.069,0.561-0.155,1.116-0.212,1.68c-0.042,0.418-0.061,0.843-0.096,1.262c-0.077,0.899-0.159,1.796-0.205,2.704
	c-0.067,1.329-0.102,2.667-0.102,4.013c0,1.347,0.035,2.686,0.102,4.016c0.041,0.819,0.119,1.63,0.185,2.443
	c0.042,0.508,0.065,1.021,0.117,1.526c0.05,0.498,0.127,0.988,0.187,1.484c0.1,0.826,0.191,1.654,0.315,2.473
	c0.014,0.093,0.034,0.184,0.049,0.277c0.182,1.17,0.382,2.333,0.614,3.484h0.01c7.304,35.841,39.112,62.813,77.253,62.813
	c38.138,0,69.945-26.971,77.263-62.813h-32.664C164.07,159.004,146.554,172.111,125.952,172.111z"/>
</svg>
