<svg xmlns="http://www.w3.org/2000/svg" width="250" height="250" viewBox="0 0 250 250"><path d="M245.662 81.509c-.137-.433-.542-.747-.995-.696l-34.77 1.609.356-.36c.274-.29.348-.715.186-1.083-.163-.363-.565-.615-.929-.587-.185.007-18.975.429-39.983.24h-.139c-4.711 0-8.588 2.192-9.673 5.484-.978 2.966.525 6.172 4.136 8.792 5.943 4.316 5.45 9.753 3.011 13.405-2.431 3.635-7.101 6.031-11.755 5.022-1.151-2.73-2.192-4.385-2.334-4.604-.322-.495-.832-.832-1.411-.928l-.345-.027c-.468 0-.925.154-1.297.449-2.265 1.787-4.269 2.657-6.122 2.657-.21 0-.419-.024-.626-.046.068-.303.151-.606.197-.908l-1.613-.25c-3.13-3.954-3.08-12.337-.99-19.074 1.461-4.688.61-9.06-2.509-13.01.884-.429 1.562-.925 2.048-1.482.384-.439.653-.915.777-1.431l.006-.047c.264-1.198-.285-2.366-1.382-2.923-.432-.217-.911-.325-1.423-.325s-1.029.128-1.543.339c-.499-5.308-.454-7.345.162-13.365.31-2.691-.773-4.273-3.308-4.807-3.511-.715-6.366-.715-8.45-.715l-.1.004-.101-.004c-2.089 0-4.947 0-8.443.711-2.541.538-3.624 2.115-3.318 4.831.619 6.012.662 8.047.152 13.413-.567-.264-1.163-.406-1.73-.406-.515 0-.993.108-1.42.325-1.114.565-1.662 1.756-1.372 2.97.19.799.7 1.508 1.507 2.123-4.389-.358-10.733.037-13.578 4.666-2.111 3.434-1.559 7.7 1.744 13.427.236.406.719.596 1.168.446.445-.148.727-.588.673-1.053-.167-1.446.074-2.538.731-3.322.29.211.688.255 1.029.081 1.237-.623 2.653.63 3.206 1.203 2.953 3.071 5.19 10.809.984 18.438-.202.026-.403.049-.608.049-1.702 0-3.658-.836-5.983-2.557-.364-.267-.802-.406-1.243-.406l-.375.031c-.568.104-1.067.441-1.379.924-.145.223-1.217 1.931-2.392 4.742-4.382.591-8.667-1.731-10.96-5.159-2.44-3.651-2.932-9.089 3.013-13.405 3.608-2.619 5.114-5.825 4.135-8.792-1.087-3.292-4.963-5.484-9.673-5.484h-.139c-21.013.186-39.798-.236-39.984-.24-.42-.035-.769.224-.928.587-.163.368-.089.793.186 1.083l.354.36-34.767-1.611c-.43-.046-.858.264-.993.696-.133.429.042.897.424 1.134.383.236 8.092 4.964 16.504 7.148-.028.177-.023.359.053.536.148.343 3.031 6.739 11.312 9.479-.004.141.014.284.074.422.161.37 3.495 7.771 13.345 10.049l.021.101c.168.386 3.817 8.473 14.771 10.327.138.353 3.062 7.498 13.772 9.183-.209.266-.289.625-.159.964.148.381 3.777 9.266 17.862 9.529.283.992.62 1.997 1 3.011-.42.709-.73 1.505-.908 2.374-.701 3.411.599 7.511 3.565 11.245.463.591 1.048 1.273 1.667 2.004.799.947 2.098 2.482 3.048 3.792-1.261.178-2.258.987-2.506 2.094l-.047.251-11.525-1.693c-.012-.124-.047-.249-.109-.365l-3.021-5.684c-.15-.282-.424-.472-.742-.513l-19.311-2.645c-.375-.052-.751.118-.959.435-.213.322-.216.736-.02 1.061l3.074 5.044-3.182 2.757-.073.001c-.383.007-.727.236-.883.584-.046.1-.069.205-.078.311l-.25.217c-.29.25-.406.646-.306 1.012.101.365.406.646.786.712l1.186.207 2.621 3.098-3.256 3.846-.594.111c-.375.07-.676.354-.773.722-.096.37.027.761.321 1.009l4.511 3.808-3.01 5.084c-.193.329-.181.743.031 1.06.186.273.495.437.823.437l.148-.011 19.275-2.89c.314-.046.587-.239.731-.521l2.575-4.991 13.187-2.175c.519.871 1.547 1.414 2.742 1.42.215-.006.39-.02.576-.044.823-.13 1.51-.53 1.963-1.101.201.19.43.348.685.478-.299 1.237-.54 2.229-.679 2.791-.903 3.651 5.431 5.969 6.296 6.269.167 3.091 5.378 5.606 6.494 6.109.097.042.198.051.299.062-.134 3.03 5.377 5.462 6.522 5.934.121.05.248.073.376.073l.277-.041.279.041c.124 0 .252-.023.375-.073 1.141-.472 6.656-2.903 6.523-5.934.102-.011.203-.02.299-.062 1.115-.503 6.323-3.019 6.489-6.108.85-.295 7.206-2.61 6.299-6.27-.151-.603-.42-1.706-.751-3.069l.238-.197c.455.568 1.138.97 1.956 1.099.191.024.366.038.544.044 1.317-.006 2.396-.631 2.873-1.605l18.413 4.057-.881 2.199c-.136.333-.075.714.151.994.192.23.474.363.77.363l.177-.015 14.036-2.556c.439-.081.772-.449.809-.895.034-.45-.232-.863-.653-1.015l-12.477-4.451 13.556-3.622c.432-.117.733-.513.733-.96 0-.448-.302-.841-.733-.954l-12.78-3.422 11.678-4.616c.416-.163.67-.586.617-1.033-.048-.444-.393-.8-.839-.866l-14.166-2.1c-.356-.054-.72.093-.939.387-.219.296-.256.685-.102 1.014l1.128 2.406-17.619 4.538c-.313-.688-.921-1.205-1.683-1.474.958-1.34 2.334-2.969 3.168-3.956.62-.73 1.203-1.413 1.667-2.004 2.966-3.734 4.265-7.834 3.566-11.245-.241-1.166-.717-2.203-1.379-3.071.271-.774.514-1.54.73-2.302h.102c14.622 0 18.348-9.154 18.5-9.541.13-.339.049-.698-.159-.964 10.709-1.685 13.635-8.83 13.772-9.183 10.954-1.854 14.603-9.941 14.771-10.327l.021-.101c9.851-2.277 13.187-9.679 13.345-10.049.061-.138.08-.281.076-.422 8.28-2.74 11.162-9.136 11.31-9.479.076-.176.081-.358.054-.536 8.412-2.184 16.122-6.912 16.505-7.148.383-.24.559-.709.427-1.138zm-147.729 85.615c-.027.594-.027 1.284.021 2.046l-11.344.027c-.02-.165-.067-.326-.172-.471l-1.715-2.283-1.064-1.42 2.188.323 12.086 1.778zm-11.835 2.075l-.955.002c.291-.17.651-.163.955-.002zm-20.871-12.705l16.747 2.293 2.302 4.328-16.749-2.464c.015-.198-.013-.402-.125-.588l-2.175-3.569zm1.338 6.018l5.757.847-6.881.131 1.124-.978zm-2.174 2.977l16.901-.314 3.025 4.028-17.012.044c-.015-.201-.074-.399-.215-.566l-2.699-3.192zm2.248 5.741l16.917-.045-2.264 3.019-16.901-.316 2.248-2.658zm-1.936 4.645l16.35.307-13.639 2.249c-.048-.197-.139-.389-.307-.53l-2.404-2.026zm17.324 5.104l-16.716 2.507 1.775-2.994 16.607-2.74-1.666 3.227zm4.438-5.691l-.316.053-.069-.054c-.42-.218-.913-.091-1.205.265l-.592.097-.195.032-1.718.283.198-.168.779-1.037 1.198-1.596 1.488-1.983 12.141-.03c.11.677.267 1.393.472 2.131l-12.181 2.007zm84.929-8.448l8.41 2.251-8.41 2.252.5-2.01c.041-.157.041-.323 0-.481l-.5-2.012zm-.802 9.026l8.069 2.879-8.629 1.575.726-1.815c.063-.152.085-.317.066-.476l-.232-2.163zm8.032-16.25l-7.897 3.118.112-2.206c.011-.163-.022-.323-.09-.469l-.812-1.73 8.687 1.287zm-9.837 2.26l-.118 2.299c-.017.336.14.659.409.856l.046.021c-.088.198-.117.422-.065.639l.639 2.54-18.399.155c.018-.774-.014-1.444-.061-1.991l17.549-4.519zm-17.633 8.493l18.478-.157-.573 2.277c-.082.336.019.691.258.936-.176.021-.348.088-.494.204-.267.208-.405.545-.369.881l.277 2.581-18.108-3.991c.255-.963.425-1.881.531-2.731zm-10.443-57.912c-.112.289-.251.568-.384.851-1.162 2.477-3.007 4.681-5.112 5.899l-.232.12c-2.023 1.098-4.091 1.265-6.157.468-3.128-1.207-4.842-4.832-5.72-9.273l.208-.015h.073c3.285.028 5.941 1.757 8.756 3.591 1.213.789 2.489 1.618 3.865 2.341.276-.253.531-.519.765-.791-1.446-.736-2.794-1.6-4.062-2.425-2.948-1.923-5.731-3.733-9.32-3.76h-.078l-.391.026c-.238-1.437-.398-2.94-.495-4.465.294-.02.579-.051.885-.051h.112c7.728.062 12.11 5.75 17.287 7.484zm-40.908-23.248c-.562.514-.987 1.125-1.269 1.825-1.566-3.582-1.656-6.334-.306-8.532 3.057-4.971 11.825-3.863 14.906-3.299-.857 1.814-1.042 3.626-.535 5.396.387 1.357 1.135 2.504 1.951 3.424-7.796-1.336-12.404-.956-14.747 1.186zm6.718 1.668c-.32-.332-.65-.623-.984-.873-.34-.255-.688-.468-1.034-.636 1.995-.271 4.702-.147 8.125.356.735.109 1.492.229 2.295.374l-6.321 3.785c-.587-1.157-1.286-2.178-2.081-3.006zm-97.054-7.891l32.97 1.525c1.991 1.634 4.98 3.734 8.57 5.244.775-.183 1.665-.25 2.655-.186.328.019.593.203.758.458-1.378.006-2.791 0-4.223-.018-8.731-.106-18.095-.618-23.813-1.256-6.192-.688-12.898-3.697-16.917-5.767zm62.593 33.042l4.372.104c.95.991 2.006 1.945 3.169 2.81-1.438.033-3.306.07-5.474.101-3.383-.319-5.54-1.556-7.072-3.94-.499-.773-.986-1.897-.49-2.831.441-.827 1.612-1.384 2.985-1.418.144-.003.277-.041.399-.098 1.316-.023 2.332-.042 2.915-.054.438 1.274.99 2.394 1.66 3.242.31.394.64.786.982 1.177l-3.423-.083c-.232-.016-.502.213-.507.484-.006.273.209.501.484.506zm10.766 2.84c.564.021.953.417.972.945v.006c-.019-.529-.482-.909-.972-.951zm.216 1.923l-.203.048h-.011.004l.21-.048zm7.792 2.013l.562-.025c-.084.493-.16.996-.228 1.508l-5.226-.092h-.008c-.272 0-.491.217-.495.487-.005.274.212.5.486.503l5.12.088c-.103.933-.17 1.894-.208 2.882-.846.015-1.767.03-2.75.044-4.012-.324-7.013-1.685-8.607-3.955-.507-.723-.638-1.337-.388-1.829.428-.849 1.922-1.496 3.59-1.568 2.37 1.194 5.079 1.957 8.152 1.957zm-28.176-16.926l9.082.125h.007l.069-.014c.118.939.28 1.859.486 2.741-1.485.029-4.375.083-7.852.129-3.145-.374-5.225-1.613-6.816-3.928-.632-.917-.817-1.644-.557-2.155.385-.752 1.831-1.337 3.651-1.52 5.787.093 10.329.18 10.427.182h.018c.149 0 .288-.04.415-.1-.032 1.198.004 2.44.12 3.672l-9.037-.123h-.005c-.271 0-.492.216-.495.491-.004.273.212.497.487.5zm9.364-8.593c-.15.724-.257 1.514-.333 2.339-.146-.092-.31-.162-.495-.166-.091-.001-4.052-.077-9.286-.163-.104-.039-.212-.069-.326-.076l-.508.023c-.17-.118-.369-.197-.586-.186-5.596.232-8.656-.94-10.218-3.926-.407-.769-.785-1.844-.31-2.583.143-.223.369-.409.652-.562.942.01 1.88.017 2.802.017 4.884 0 9.38-.145 12.738-.482 3.561-.121 6.802-.268 9.03-.377-1.234 1.308-2.573 3.299-3.16 6.142zm-48.478-6.973c.875.172 1.75.313 2.619.409 5.297.592 13.708 1.073 21.886 1.228-.322.736-.458 1.784.062 3.192l-.127-.03-13.436-.264h-.007c-.271 0-.492.214-.496.484-.007.274.212.499.483.506l13.437.264h.013c.189 0 .354-.111.436-.271l.101.221c.675 1.286 1.562 2.31 2.697 3.088-3.92-.049-7.682-.083-10.483-.083-11.172 0-15.876-6.477-17.185-8.744zm11.53 10.149c1.694.36 3.569.576 5.655.576 3.885 0 9.623.066 15.073.145-.189.21-.356.437-.488.695-.345.674-.542 1.726.103 3.137h-.002l-9.476-.263c-.31-.051-.503.208-.507.48-.007.273.209.503.479.51l9.476.263h.017c.18 0 .332-.101.418-.245l.18.295c.817 1.187 1.757 2.128 2.837 2.871-2.242.021-4.538.033-6.724.033-10.763-.001-15.537-6.029-17.041-8.497zm13.431 10.249c1.131.145 2.33.228 3.61.228 4.116 0 8.618-.047 12.42-.099l.611-.008-.042.065c-.104.144-.205.292-.288.448-.363.683-.76 2.014.036 3.823l-.021-.005-5.516-.263c-.281-.012-.506.198-.518.471-.011.271.197.504.473.52l5.515.262h.023c.184 0 .339-.103.426-.253l.154.278c.779 1.212 1.699 2.174 2.783 2.925-.878.003-1.773.006-2.691.006-10.628-.002-15.409-5.875-16.975-8.398zm14.72 10.285c.726.056 1.474.092 2.256.092 3.14 0 6.074-.027 8.612-.063 1.316-.019 2.53-.039 3.6-.061l-.042.062c-.118.159-.235.319-.326.499-.321.628-.532 1.561-.082 2.727l-4.065-.193c-.271 0-.506.198-.518.471-.013.271.197.503.472.52l4.654.221.071.115c.815 1.161 1.914 2.12 3.248 2.877l-1.761.003c-10.536-.001-14.768-5.055-16.119-7.27zm13.078 9.133l-.021-.033c.965.094 1.98.15 3.062.15 3.134 0 6.061-.026 8.595-.063 1.029-.015 1.986-.03 2.871-.047l.004.118c.02 1.346.12 2.735.294 4.156l-4.316-.205c-.278.004-.506.197-.518.473-.011.27.197.502.471.519l4.492.213c.146.973.336 1.96.566 2.961-12.218-.458-15.368-7.915-15.5-8.242zm15.485-9.352c-7.262.371-12.442-3.918-15.709-8.059-2.371-3.002-3.076-10.412-2.12-15.03 1.006-4.854 4.544-6.73 4.688-6.807.418-.212.631-.688.511-1.141-.119-.452-.491-.77-1.014-.73-.059.002-4.058.227-9.303.43-.202-.133-.448-.201-.699-.164-.616.099-1.309.187-2.057.264-1.878.064-3.843.121-5.8.162l-.356.003c-6.581 0-12.505-3.784-15.857-6.446-.115-.367-.434-.639-.833-.679l-.184-.153c5.89.107 20.982.332 37.438.185h.117c3.792 0 6.992 1.687 7.796 4.124.699 2.126-.515 4.458-3.419 6.571-7.089 5.143-6.312 11.892-3.496 16.108 2.501 3.735 7.033 6.335 11.812 6.113-.553 1.539-1.084 3.298-1.515 5.249zm10.571 53.973l-.298.023c-.577-.003-1.094-.258-1.238-.638-1.724-4.746-.893-8.673-.862-8.833.092-.417.638-.713 1.253-.713l.19.012c.692.063 1.171.482 1.075.94-.009.035-.79 3.789.82 8.212.166.444-.262.894-.94.997zm1.147-11.125c-.123-.267-.271-.547-.448-.844-.813-1.356-2.188-3.018-3.904-5.044-.605-.711-1.172-1.382-1.625-1.954-2.6-3.276-3.759-6.782-3.175-9.62l.046-.149c.349.768.716 1.539 1.126 2.314 2.209 4.19 5.002 7.867 7.967 11.039 1.059 1.134 2.14 2.2 3.225 3.202l-.325-.06-.353-.021c-1.056.001-1.978.444-2.534 1.137zm2.145 10.232c-1.729-4.746-.897-8.669-.864-8.836.091-.409.635-.71 1.253-.71l.186.012c.697.062 1.177.483 1.076.938-.007.036-.784 3.791.82 8.212.168.443-.26.895-.936 1.002l-.302.02c-.575 0-1.094-.259-1.233-.638zm5.536 9.129c-1.846-.701-5.011-2.371-4.662-3.79.143-.576.396-1.613.707-2.897l.186-.017c.773-.124 1.418-.455 1.874-.936.57.534 1.385.861 2.285.861.186 0 .367-.013.564-.044l.203-.049c-.463 2.806-.885 5.326-1.157 6.872zm.686-8.622l-.297.021c-.581 0-1.099-.258-1.238-.639-1.729-4.746-.896-8.666-.862-8.833.093-.412.642-.712 1.257-.712l.183.008c.694.066 1.174.488 1.073.939-.004.039-.784 3.795.825 8.216.161.446-.263.896-.941 1zm6.071 14.805c-2.369-1.118-5.318-3.21-5.057-4.487.276-1.347 1.171-6.749 2.041-12.082l4.386-.722.478.276c-.61 5.995-1.385 13.397-1.848 17.015zm6.923 6.049c-2.625-1.095-5.385-2.999-5.208-4.027.38-2.248 1.296-10.904 2.02-17.99.387.207.737.39 1.035.54.147.19.321.353.527.484.321.208.685.31 1.051.323v15.362c0 .271.226.496.496.496.275 0 .495-.226.495-.496v-15.406c.258-.052.51-.131.735-.279.205-.132.384-.294.525-.484.412-.209.916-.47 1.49-.782.728 7.129 1.657 15.958 2.046 18.232.175 1.025-2.588 2.928-5.212 4.027zm6.925-6.049c-.471-3.672-1.263-11.234-1.875-17.275l.091-.053 4.748.699-.063.204c-.243.659-.179 1.405.188 2.033.101.169.225.323.36.467.715 4.37 1.376 8.313 1.605 9.438.276 1.332-2.767 3.404-5.054 4.487zm2.565-20.09c.401-.273.81-.561 1.225-.855-.013.271-.029.554-.057.853l-1.168.002zm2.049 4.286c1.604-4.421.827-8.177.819-8.216-.101-.451.383-.873 1.074-.939l.183-.008c.619 0 1.168.3 1.257.712.035.167.866 4.087-.861 8.833-.14.381-.656.639-1.234.639l-.303-.021c-.678-.105-1.101-.555-.935-1zm2.141 9.623c-.271-1.534-.688-4.021-1.146-6.799l.242.019c.899 0 1.715-.327 2.284-.861.452.48 1.088.811 1.821.926.223.031.385.041.546.045l.208-.015c.311 1.283.561 2.318.707 2.894.324 1.308-2.463 2.964-4.662 3.791zm5.02-9.131c-.139.379-.656.638-1.236.638l-.297-.02c-.677-.107-1.104-.559-.941-1.002 1.609-4.421.827-8.176.82-8.212-.098-.455.382-.877 1.079-.938l.185-.012c.615 0 1.16.301 1.254.71.034.168.866 4.09-.864 8.836zm5.687-8.554c.034.16.863 4.087-.861 8.833-.142.38-.658.635-1.238.638l-.298-.023c-.678-.104-1.103-.553-.94-.996 1.609-4.423.829-8.177.818-8.212-.094-.458.385-.877 1.08-.94l.187-.012c.617-.001 1.159.295 1.252.712zm3.218-9.52c-.452.572-1.021 1.243-1.626 1.954-1.715 2.026-3.088 3.688-3.904 5.044l-.111.187c-.428.147-.808.372-1.117.664-.56-.7-1.479-1.143-2.536-1.143l-.363.021-.251.047c1.303-1.204 2.597-2.501 3.854-3.892 2.725-3.01 5.272-6.452 7.323-10.337.586-1.11 1.095-2.212 1.557-3.306.15.356.268.736.35 1.141.582 2.838-.578 6.344-3.176 9.62zm-.576-8.43c-3.278 6.211-7.9 11.266-12.42 15.168-.312-.089-.646-.14-.994-.14l-.355.015c-.943.094-1.772.532-2.261 1.211-.417.564-.566 1.245-.424 1.915l.031.202c-4.961 3.679-9.219 5.848-10.59 6.508v.24l-.252-.12-.258.12v-.24c-1.374-.663-5.649-2.842-10.628-6.542l.031-.187c.143-.635-.004-1.323-.422-1.896-.496-.679-1.318-1.117-2.267-1.211l-.355-.015c-.334 0-.653.049-.954.13-4.517-3.899-9.135-8.952-12.409-15.158-10.48-19.868.874-37.489.874-37.489 2.909 2.15 5.226 2.963 7.226 2.963 5.048 0 8.08-5.187 13.586-7.128-.055-.718-.097-1.436-.125-2.152-2.982.924-5.283 2.657-7.25 4.141-.628.475-1.231.925-1.826 1.333-.328.116-.647.233-.95.349 1.872-4.612 1.854-9.27.698-13.016.111-.031.222-.077.326-.139l9.275-5.553c.131-.078.237-.182.332-.295.062-.511.122-.985.181-1.423-.123-.258-.316-.481-.578-.617-.032-.019-3.18-1.74-3.957-4.463l-.05-.296c-.642-1.24-.986-2.623-.986-4.059 0-.319.02-.633.052-.946.073-.665.223-1.312.437-1.937-4.146-1.079-4.619-2.708-3.752-3.147.143-.073.32-.112.525-.112.278 0 .6.069.944.236.849.405 2.039.697 3.346.906.307-.443.65-.864 1.039-1.254.186-.185.381-.356.578-.523-.844-.098-1.589-.218-2.242-.354.565-5.846.53-7.935-.12-14.218-.197-1.764.279-2.36 1.745-2.669 3.198-.655 5.755-.673 8.049-.673l.101.03.1-.03c2.29 0 4.845.018 8.044.673 1.467.309 1.946.905 1.745 2.669-.645 6.273-.685 8.354-.124 14.181-1.416.312-3.379.533-5.662.642l.301.272c.495.493.913 1.04 1.271 1.619 2.451-.177 5.09-.54 6.622-1.271.341-.167.666-.236.94-.236.207 0 .387.039.529.112 1.059.536.116 2.845-7.074 3.763.167.635.266 1.29.288 1.959 1.628-.207 3.062-.491 4.272-.857 3.049 3.587 3.901 7.408 2.575 11.673-2.002 6.45-2.274 14.474.365 19.397-.883-.498-1.786-1.083-2.734-1.703-3.442-2.239-7.342-4.781-12.865-4.823h-.13c-.333 0-.66.011-.979.032-.17-5.833.426-11.609.803-14.565.126-.989.228-1.664.267-1.919 1.64-.096 3.249-.762 4.502-2.016 2.714-2.71 2.714-7.108 0-9.819-1.356-1.358-3.133-2.035-4.911-2.035-1.779 0-3.554.677-4.912 2.035-2.712 2.711-2.712 7.108 0 9.819 1.023 1.025 2.287 1.662 3.611 1.911-.056.356-.152 1.006-.267 1.887-.894 6.886-2.844 27.877 5.813 32.713.312.173.632.331.97.459 1.059.407 2.134.608 3.204.608 1.578 0 3.153-.441 4.657-1.312 1.201-.697 2.326-1.688 3.32-2.841 1.308.4 2.696.66 4.209.66 1.657 0 3.334-.301 4.985-.906 2.124 5.709 4.28 16.048-1.59 27.174-6.033 11.445-17.294 18.585-22.362 21.358-5.07-2.773-16.329-9.913-22.369-21.361-5.926-11.233-3.724-21.578-1.57-27.274 1.612.581 3.183.867 4.776.867 4.723 0 8.091-2.545 10.806-4.595 1.267-.951 2.396-1.792 3.572-2.384-.076-.347-.14-.701-.206-1.055-1.371.645-2.637 1.584-4.001 2.611-2.722 2.054-5.801 4.379-10.171 4.379-1.756 0-3.531-.387-5.361-1.176-2.344 5.662-5.233 16.867 1.23 29.115 6.37 12.071 18.372 19.43 23.293 22.061 4.924-2.631 16.921-9.989 23.288-22.056 6.393-12.122 3.573-23.323 1.256-29.023-1.863.819-3.712 1.221-5.577 1.221-1.24 0-2.399-.194-3.504-.497.933-1.245 1.713-2.633 2.27-4.086.405.059.814.094 1.234.094 2.162 0 4.557-.851 7.419-3.106.003-.003 11.361 17.618.881 37.487zm-32.392-67.957c-.098.241-.155.504-.155.78 0 1.145.929 2.073 2.077 2.073 1.131 0 2.046-.905 2.07-2.03h1.014c.471 0 .866-.26 1.106-.629.905-.009 1.783-.032 2.614-.074-.003 1.338-.511 2.678-1.531 3.696-.99.991-2.306 1.537-3.706 1.537s-2.715-.546-3.705-1.537c-1.096-1.096-1.583-2.56-1.503-3.997.55.068 1.12.13 1.719.181zm-1.233-2.115c.251-.531.575-1.037 1.014-1.475.345-.346.74-.615 1.155-.848 1.324.062 2.503.078 3.29.078.632 0 1.017-.012 1.017-.012s.354.011.943.011c.36.218.704.464 1.01.771.516.513.897 1.107 1.153 1.743-.962.045-1.991.07-3.106.07-2.565 0-4.702-.127-6.476-.338zm37.671 38.199c5.051.55 9.937-2.134 12.568-6.065 2.816-4.216 3.594-10.965-3.497-16.108-2.904-2.113-4.118-4.445-3.418-6.571.812-2.464 4.092-4.193 7.914-4.124 16.458.146 31.55-.078 37.437-.185l-.183.153c-.398.04-.717.31-.833.674-3.424 2.699-9.539 6.523-16.215 6.447-1.963-.041-3.931-.098-5.812-.163-.744-.078-1.434-.165-2.046-.264-.254-.037-.501.031-.702.164-5.242-.204-9.24-.428-9.301-.43-.521-.035-.892.282-1.012.73-.119.453.092.929.511 1.141.034.019 3.673 1.91 4.686 6.807.957 4.618.253 12.028-2.117 15.03-3.38 4.279-8.809 8.708-16.462 7.991-.433-1.942-.965-3.696-1.518-5.227zm44.097-22.932c.475.738.097 1.814-.306 2.583-1.565 2.983-4.607 4.162-10.222 3.926-.24-.011-.441.067-.61.185l-.486-.022c-.128.003-.249.032-.363.077-5.214.085-9.157.16-9.246.162-.186.004-.349.073-.494.166-.075-.825-.186-1.615-.333-2.339-.587-2.843-1.927-4.834-3.161-6.142 2.228.109 5.472.256 9.03.377 3.357.338 7.854.482 12.74.482.921 0 1.86-.006 2.803-.017.28.154.505.34.648.562zm-35.974 31.648h-.006l-5.962.104c-.071-.528-.149-1.046-.236-1.553.44.03.878.058 1.304.058 3.073 0 5.78-.764 8.153-1.956 1.669.073 3.161.72 3.589 1.568.253.491.121 1.105-.386 1.829-1.595 2.27-4.619 3.63-8.618 3.954-1.271-.019-2.443-.037-3.479-.059-.035-.977-.104-1.93-.202-2.853l5.853-.102c.272-.003.491-.229.488-.503-.004-.269-.225-.487-.498-.487zm2.136-4.375l-.001-.006c.021-.534.461-.955.991-.955h.021c-.524.008-.99.415-1.011.961zm.972 1.019h-.012l-.203-.049.21.049h.005zm3.225-1.897c1.162-.865 2.22-1.819 3.168-2.81l4.374-.104c.273-.004.488-.233.482-.507-.005-.271-.224-.491-.508-.484l-3.421.083c.341-.391.673-.784.982-1.177.671-.848 1.22-1.968 1.661-3.242.58.013 1.597.031 2.914.054.121.058.254.095.397.098 1.373.035 2.546.591 2.985 1.418.497.934.008 2.058-.489 2.831-1.541 2.397-3.721 3.627-7.131 3.94-2.141-.03-3.989-.067-5.414-.1zm7.3-10.212c.205-.882.368-1.802.484-2.741l.07.014h.007l9.081-.125c.275-.003.492-.227.488-.498-.005-.275-.225-.491-.495-.491h-.004l-9.039.123c.115-1.232.153-2.475.119-3.672.129.06.266.1.415.1h.021c.096-.002 4.637-.089 10.424-.182 1.82.183 3.266.768 3.654 1.52.258.511.072 1.238-.56 2.155-1.595 2.319-3.672 3.556-6.832 3.927-3.468-.048-6.351-.101-7.833-.13zm-4.002 21.402c-.034.081-3.322 8.093-16.24 8.266.23-.999.42-1.984.565-2.953l5.233-.249c.274-.017.482-.249.472-.519-.012-.275-.264-.473-.517-.473l-5.058.241c.182-1.461.283-2.89.3-4.271l.004-.053c1.071.022 2.288.041 3.604.061 2.534.037 5.464.063 8.596.063 1.084 0 2.098-.057 3.065-.15l-.024.037zm-3.04-1.868l-1.763-.003c1.336-.758 2.436-1.717 3.25-2.877l.069-.115 4.655-.221c.274-.016.482-.249.471-.52-.01-.273-.274-.475-.517-.471l-4.066.193c.451-1.166.238-2.099-.079-2.727-.091-.18-.21-.34-.327-.499l-.04-.062c1.067.022 2.28.042 3.595.061 2.541.036 5.474.063 8.614.063.777 0 1.521-.036 2.243-.091-1.373 2.204-5.654 7.269-16.105 7.269zm13.863-9.158c-.918 0-1.813-.003-2.692-.006 1.088-.751 2.007-1.712 2.784-2.925l.157-.278c.084.151.242.253.424.253h.022l5.517-.262c.274-.016.482-.248.473-.52-.015-.273-.261-.49-.52-.471l-5.515.263-.021.005c.796-1.809.401-3.14.036-3.823-.084-.156-.184-.304-.288-.448l-.043-.065.611.008c3.803.052 8.305.099 12.421.099 1.273 0 2.465-.083 3.591-.225-1.588 2.514-6.43 8.395-16.957 8.395zm13.366-10.149c-2.187 0-4.481-.013-6.725-.033 1.085-.742 2.021-1.684 2.839-2.871l.18-.295c.088.145.238.245.417.245h.018l9.475-.263c.271-.007.487-.237.479-.51-.008-.267-.228-.48-.495-.48h-.012l-9.476.263h-.001c.645-1.411.447-2.463.102-3.137-.131-.258-.298-.485-.487-.695 5.448-.079 11.188-.145 15.073-.145 2.077 0 3.945-.213 5.633-.571-1.524 2.455-6.358 8.492-17.02 8.492zm11.386-9.901c-2.802 0-6.565.034-10.486.083 1.138-.779 2.026-1.804 2.7-3.088l.102-.221c.083.16.244.271.437.271h.011l13.437-.264c.271-.007.491-.232.484-.506-.003-.275-.267-.479-.503-.484l-13.437.264-.127.03c.52-1.408.384-2.456.061-3.192 8.18-.154 16.59-.635 21.888-1.228.863-.095 1.736-.236 2.606-.407-1.33 2.258-6.121 8.742-17.173 8.742zm14.345-10.302c-5.718.638-15.083 1.151-23.813 1.257-1.431.018-2.845.025-4.224.018.163-.255.428-.441.758-.459.984-.065 1.875.002 2.651.185 3.592-1.509 6.58-3.609 8.572-5.243l32.977-1.525c-4.016 2.069-10.723 5.074-16.921 5.767zM194.758 94.988h-.002l-15.023.124c-.27.003-.488.229-.488.5.003.274.223.491.493.491h.004l15.021-.125c.275 0 .497-.224.492-.498 0-.272-.225-.492-.497-.492zM70.266 95.111l-15.021-.124h-.004c-.271 0-.496.221-.496.492-.003.273.217.498.492.498l15.021.125h.004c.271 0 .493-.216.496-.491 0-.271-.221-.496-.492-.5zM109.649 83.458l.124.008c.685 0 1.273-.526 1.335-1.223.069-.734-.476-1.389-1.215-1.458l-2.073-.189c-.731-.073-1.39.476-1.459 1.214-.066.739.477 1.393 1.214 1.458l2.074.19zM111.792 127.383h-4.254v9.912h4.254c3.418 0 5.898-2.088 5.898-4.957.001-2.883-2.479-4.955-5.898-4.955zm0 8.4h-2.271v-6.891h2.271c2.234 0 3.794 1.414 3.794 3.445 0 2.041-1.559 3.446-3.794 3.446zM132.195 137.367l2.822-7.374 2.824 7.374h1.833l3.759-9.984h-2.058l-2.604 7.673-2.823-7.703h-1.793l-2.824 7.697-2.606-7.667h-2.125l3.764 9.984zM122.097 150.572h2.438l2.498 3.358h2.271l-2.74-3.604.385-.125c1.046-.352 2.297-1.152 2.297-2.981 0-2.015-1.533-3.202-4.104-3.202h-5.035v9.913h1.989v-3.359zm0-5.048h2.831c1.439 0 2.296.668 2.296 1.787 0 1.105-.882 1.8-2.252 1.8h-2.875v-3.587z"/></svg>