<?xml version="1.0" encoding="utf-8"?>
<!-- Generator: Adobe Illustrator 16.0.4, SVG Export Plug-In . SVG Version: 6.00 Build 0)  -->
<!DOCTYPE svg PUBLIC "-//W3C//DTD SVG 1.1//EN" "http://www.w3.org/Graphics/SVG/1.1/DTD/svg11.dtd">
<svg version="1.1" id="Layer_1" xmlns="http://www.w3.org/2000/svg" xmlns:xlink="http://www.w3.org/1999/xlink" x="0px" y="0px"
	 width="250px" height="250px" viewBox="0 0 250 250" enable-background="new 0 0 250 250" xml:space="preserve">
<g>
	<path d="M245.662,81.509c-0.137-0.433-0.542-0.747-0.995-0.696l-34.77,1.609c0.184-0.182,0.319-0.322,0.356-0.36
		c0.274-0.29,0.348-0.715,0.186-1.083c-0.163-0.363-0.565-0.615-0.929-0.587c-0.185,0.007-18.975,0.429-39.983,0.24
		c-0.046,0-0.094,0-0.139,0c-4.711,0-8.588,2.192-9.673,5.484c-0.978,2.966,0.525,6.172,4.136,8.792
		c5.943,4.316,5.45,9.753,3.011,13.405c-2.431,3.635-7.101,6.031-11.755,5.022c-1.151-2.73-2.192-4.385-2.334-4.604
		c-0.322-0.495-0.832-0.832-1.411-0.928c-0.116-0.02-0.232-0.027-0.345-0.027c-0.468,0-0.925,0.154-1.297,0.449
		c-2.265,1.787-4.269,2.657-6.122,2.657c-0.21,0-0.419-0.024-0.626-0.046c0.068-0.303,0.151-0.606,0.197-0.908l-1.613-0.25
		c-3.13-3.954-3.08-12.337-0.99-19.074c1.461-4.688,0.61-9.06-2.509-13.01c0.884-0.429,1.562-0.925,2.048-1.482
		c0.384-0.439,0.653-0.915,0.777-1.431c0.003-0.016,0.003-0.031,0.006-0.047c0.264-1.198-0.285-2.366-1.382-2.923
		c-0.432-0.217-0.911-0.325-1.423-0.325s-1.029,0.128-1.543,0.339c-0.499-5.308-0.454-7.345,0.162-13.365
		c0.31-2.691-0.773-4.273-3.308-4.807c-3.511-0.715-6.366-0.715-8.45-0.715c-0.035,0-0.069,0-0.1,0.004
		c-0.035-0.004-0.07-0.004-0.101-0.004c-2.089,0-4.947,0-8.443,0.711c-2.541,0.538-3.624,2.115-3.318,4.831
		c0.619,6.012,0.662,8.047,0.152,13.413c-0.567-0.264-1.163-0.406-1.73-0.406c-0.515,0-0.993,0.108-1.42,0.325
		c-1.114,0.565-1.662,1.756-1.372,2.97c0.19,0.799,0.7,1.508,1.507,2.123c-4.389-0.358-10.733,0.037-13.578,4.666
		c-2.111,3.434-1.559,7.7,1.744,13.427c0.236,0.406,0.719,0.596,1.168,0.446c0.445-0.148,0.727-0.588,0.673-1.053
		c-0.167-1.446,0.074-2.538,0.731-3.322c0.29,0.211,0.688,0.255,1.029,0.081c1.237-0.623,2.653,0.63,3.206,1.203
		c2.953,3.071,5.19,10.809,0.984,18.438c-0.202,0.026-0.403,0.049-0.608,0.049c-1.702,0-3.658-0.836-5.983-2.557
		c-0.364-0.267-0.802-0.406-1.243-0.406c-0.127,0-0.25,0.012-0.375,0.031c-0.568,0.104-1.067,0.441-1.379,0.924
		c-0.145,0.223-1.217,1.931-2.392,4.742c-4.382,0.591-8.667-1.731-10.96-5.159c-2.44-3.651-2.932-9.089,3.013-13.405
		c3.608-2.619,5.114-5.825,4.135-8.792c-1.087-3.292-4.963-5.484-9.673-5.484c-0.046,0-0.093,0-0.139,0
		c-21.013,0.186-39.798-0.236-39.984-0.24c-0.42-0.035-0.769,0.224-0.928,0.587c-0.163,0.368-0.089,0.793,0.186,1.083
		c0.035,0.038,0.17,0.178,0.354,0.36L5.333,80.813c-0.43-0.046-0.858,0.264-0.993,0.696c-0.133,0.429,0.042,0.897,0.424,1.134
		c0.383,0.236,8.092,4.964,16.504,7.148c-0.028,0.177-0.023,0.359,0.053,0.536c0.148,0.343,3.031,6.739,11.312,9.479
		c-0.004,0.141,0.014,0.284,0.074,0.422c0.161,0.37,3.495,7.771,13.345,10.049c0.009,0.034,0.007,0.068,0.021,0.101
		c0.168,0.386,3.817,8.473,14.771,10.327c0.138,0.353,3.062,7.498,13.772,9.183c-0.209,0.266-0.289,0.625-0.159,0.964
		c0.148,0.381,3.777,9.266,17.862,9.529c0.283,0.992,0.62,1.997,1,3.011c-0.42,0.709-0.73,1.505-0.908,2.374
		c-0.701,3.411,0.599,7.511,3.565,11.245c0.463,0.591,1.048,1.273,1.667,2.004c0.799,0.947,2.098,2.482,3.048,3.792
		c-1.261,0.178-2.258,0.987-2.506,2.094c-0.014,0.062-0.03,0.15-0.047,0.251l-11.525-1.693c-0.012-0.124-0.047-0.249-0.109-0.365
		l-3.021-5.684c-0.15-0.282-0.424-0.472-0.742-0.513l-19.311-2.645c-0.375-0.052-0.751,0.118-0.959,0.435
		c-0.213,0.322-0.216,0.736-0.02,1.061l3.074,5.044l-3.182,2.757l-0.073,0.001c-0.383,0.007-0.727,0.236-0.883,0.584
		c-0.046,0.1-0.069,0.205-0.078,0.311l-0.25,0.217c-0.29,0.25-0.406,0.646-0.306,1.012c0.101,0.365,0.406,0.646,0.786,0.712
		l1.186,0.207l2.621,3.098l-3.256,3.846l-0.594,0.111c-0.375,0.07-0.676,0.354-0.773,0.722c-0.096,0.37,0.027,0.761,0.321,1.009
		l4.511,3.808l-3.01,5.084c-0.193,0.329-0.181,0.743,0.031,1.06c0.186,0.273,0.495,0.437,0.823,0.437
		c0.047,0,0.098-0.003,0.148-0.011l19.275-2.89c0.314-0.046,0.587-0.239,0.731-0.521l2.575-4.991l13.187-2.175
		c0.519,0.871,1.547,1.414,2.742,1.42c0.215-0.006,0.39-0.02,0.576-0.044c0.823-0.13,1.51-0.53,1.963-1.101
		c0.201,0.19,0.43,0.348,0.685,0.478c-0.299,1.237-0.54,2.229-0.679,2.791c-0.903,3.651,5.431,5.969,6.296,6.269
		c0.167,3.091,5.378,5.606,6.494,6.109c0.097,0.042,0.198,0.051,0.299,0.062c-0.134,3.03,5.377,5.462,6.522,5.934
		c0.121,0.05,0.248,0.073,0.376,0.073c0.093,0,0.188-0.016,0.277-0.041c0.088,0.025,0.184,0.041,0.279,0.041
		c0.124,0,0.252-0.023,0.375-0.073c1.141-0.472,6.656-2.903,6.523-5.934c0.102-0.011,0.203-0.02,0.299-0.062
		c1.115-0.503,6.323-3.019,6.489-6.108c0.85-0.295,7.206-2.61,6.299-6.27c-0.151-0.603-0.42-1.706-0.751-3.069
		c0.084-0.062,0.164-0.127,0.238-0.197c0.455,0.568,1.138,0.97,1.956,1.099c0.191,0.024,0.366,0.038,0.544,0.044
		c1.317-0.006,2.396-0.631,2.873-1.605l18.413,4.057l-0.881,2.199c-0.136,0.333-0.075,0.714,0.151,0.994
		c0.192,0.23,0.474,0.363,0.77,0.363c0.059,0,0.115-0.004,0.177-0.015l14.036-2.556c0.439-0.081,0.772-0.449,0.809-0.895
		c0.034-0.45-0.232-0.863-0.653-1.015l-12.477-4.451l13.556-3.622c0.432-0.117,0.733-0.513,0.733-0.96
		c0-0.448-0.302-0.841-0.733-0.954l-12.78-3.422l11.678-4.616c0.416-0.163,0.67-0.586,0.617-1.033
		c-0.048-0.444-0.393-0.8-0.839-0.866l-14.166-2.1c-0.356-0.054-0.72,0.093-0.939,0.387c-0.219,0.296-0.256,0.685-0.102,1.014
		l1.128,2.406l-17.619,4.538c-0.313-0.688-0.921-1.205-1.683-1.474c0.958-1.34,2.334-2.969,3.168-3.956
		c0.62-0.73,1.203-1.413,1.667-2.004c2.966-3.734,4.265-7.834,3.566-11.245c-0.241-1.166-0.717-2.203-1.379-3.071
		c0.271-0.774,0.514-1.54,0.73-2.302c0.034,0,0.067,0,0.102,0c14.622,0,18.348-9.154,18.5-9.541c0.13-0.339,0.049-0.698-0.159-0.964
		c10.709-1.685,13.635-8.83,13.772-9.183c10.954-1.854,14.603-9.941,14.771-10.327c0.016-0.033,0.012-0.067,0.021-0.101
		c9.851-2.277,13.187-9.679,13.345-10.049c0.061-0.138,0.08-0.281,0.076-0.422c8.28-2.74,11.162-9.136,11.31-9.479
		c0.076-0.176,0.081-0.358,0.054-0.536c8.412-2.184,16.122-6.912,16.505-7.148C245.618,82.407,245.794,81.938,245.662,81.509z
		 M97.933,167.124c-0.027,0.594-0.027,1.284,0.021,2.046l-11.344,0.027c-0.02-0.165-0.067-0.326-0.172-0.471l-1.715-2.283
		l-1.064-1.42l2.188,0.323L97.933,167.124z M86.098,169.199l-0.955,0.002C85.434,169.031,85.794,169.038,86.098,169.199z
		 M65.227,156.494l16.747,2.293l2.302,4.328l-16.749-2.464c0.015-0.198-0.013-0.402-0.125-0.588L65.227,156.494z M66.565,162.512
		l5.757,0.847l-6.881,0.131L66.565,162.512z M64.391,165.489l16.901-0.314l3.025,4.028l-17.012,0.044
		c-0.015-0.201-0.074-0.399-0.215-0.566L64.391,165.489z M66.639,171.23l16.917-0.045l-2.264,3.019l-16.901-0.316L66.639,171.23z
		 M64.703,175.875l16.35,0.307l-13.639,2.249c-0.048-0.197-0.139-0.389-0.307-0.53L64.703,175.875z M82.027,180.979l-16.716,2.507
		l1.775-2.994l16.607-2.74L82.027,180.979z M86.465,175.288l-0.316,0.053c-0.027-0.016-0.042-0.038-0.069-0.054
		c-0.42-0.218-0.913-0.091-1.205,0.265l-0.592,0.097l-0.195,0.032l-1.718,0.283c0.067-0.053,0.146-0.096,0.198-0.168l0.779-1.037
		l1.198-1.596l1.488-1.983l12.141-0.03c0.11,0.677,0.267,1.393,0.472,2.131L86.465,175.288z M171.394,166.84l8.41,2.251l-8.41,2.252
		l0.5-2.01c0.041-0.157,0.041-0.323,0-0.481L171.394,166.84z M170.592,175.866l8.069,2.879l-8.629,1.575l0.726-1.815
		c0.063-0.152,0.085-0.317,0.066-0.476L170.592,175.866z M178.624,159.616l-7.897,3.118l0.112-2.206
		c0.011-0.163-0.022-0.323-0.09-0.469l-0.812-1.73L178.624,159.616z M168.787,161.876l-0.118,2.299
		c-0.017,0.336,0.14,0.659,0.409,0.856c0.015,0.009,0.032,0.013,0.046,0.021c-0.088,0.198-0.117,0.422-0.065,0.639l0.639,2.54
		l-18.399,0.155c0.018-0.774-0.014-1.444-0.061-1.991L168.787,161.876z M151.154,170.369l18.478-0.157l-0.573,2.277
		c-0.082,0.336,0.019,0.691,0.258,0.936c-0.176,0.021-0.348,0.088-0.494,0.204c-0.267,0.208-0.405,0.545-0.369,0.881l0.277,2.581
		l-18.108-3.991C150.878,172.137,151.048,171.219,151.154,170.369z M140.711,112.457c-0.112,0.289-0.251,0.568-0.384,0.851
		c-1.162,2.477-3.007,4.681-5.112,5.899c-0.077,0.045-0.155,0.078-0.232,0.12c-2.023,1.098-4.091,1.265-6.157,0.468
		c-3.128-1.207-4.842-4.832-5.72-9.273c0.072-0.002,0.137-0.015,0.208-0.015h0.073c3.285,0.028,5.941,1.757,8.756,3.591
		c1.213,0.789,2.489,1.618,3.865,2.341c0.276-0.253,0.531-0.519,0.765-0.791c-1.446-0.736-2.794-1.6-4.062-2.425
		c-2.948-1.923-5.731-3.733-9.32-3.76h-0.078c-0.136,0-0.26,0.02-0.391,0.026c-0.238-1.437-0.398-2.94-0.495-4.465
		c0.294-0.02,0.579-0.051,0.885-0.051c0.035,0,0.073,0,0.112,0C131.152,105.035,135.534,110.723,140.711,112.457z M99.803,89.209
		c-0.562,0.514-0.987,1.125-1.269,1.825c-1.566-3.582-1.656-6.334-0.306-8.532c3.057-4.971,11.825-3.863,14.906-3.299
		c-0.857,1.814-1.042,3.626-0.535,5.396c0.387,1.357,1.135,2.504,1.951,3.424C106.754,86.687,102.146,87.067,99.803,89.209z
		 M106.521,90.877c-0.32-0.332-0.65-0.623-0.984-0.873c-0.34-0.255-0.688-0.468-1.034-0.636c1.995-0.271,4.702-0.147,8.125,0.356
		c0.735,0.109,1.492,0.229,2.295,0.374l-6.321,3.785C108.015,92.726,107.316,91.705,106.521,90.877z M9.467,82.986l32.97,1.525
		c1.991,1.634,4.98,3.734,8.57,5.244c0.775-0.183,1.665-0.25,2.655-0.186c0.328,0.019,0.593,0.203,0.758,0.458
		c-1.378,0.006-2.791,0-4.223-0.018c-8.731-0.106-18.095-0.618-23.813-1.256C20.192,88.065,13.486,85.056,9.467,82.986z
		 M72.06,116.028l4.372,0.104c0.95,0.991,2.006,1.945,3.169,2.81c-1.438,0.033-3.306,0.07-5.474,0.101
		c-3.383-0.319-5.54-1.556-7.072-3.94c-0.499-0.773-0.986-1.897-0.49-2.831c0.441-0.827,1.612-1.384,2.985-1.418
		c0.144-0.003,0.277-0.041,0.399-0.098c1.316-0.023,2.332-0.042,2.915-0.054c0.438,1.274,0.99,2.394,1.66,3.242
		c0.31,0.394,0.64,0.786,0.982,1.177l-3.423-0.083c-0.232-0.016-0.502,0.213-0.507,0.484
		C71.57,115.795,71.785,116.023,72.06,116.028z M82.826,118.868c0.564,0.021,0.953,0.417,0.972,0.945c0,0.002,0,0.004,0,0.006
		C83.779,119.29,83.316,118.91,82.826,118.868z M83.042,120.791c-0.068,0.017-0.129,0.046-0.203,0.048c-0.001,0-0.011,0-0.011,0
		c0.001,0,0.002,0,0.004,0C82.906,120.837,82.973,120.808,83.042,120.791z M90.834,122.804c0.184,0,0.376-0.021,0.562-0.025
		c-0.084,0.493-0.16,0.996-0.228,1.508l-5.226-0.092c-0.005,0-0.008,0-0.008,0c-0.272,0-0.491,0.217-0.495,0.487
		c-0.005,0.274,0.212,0.5,0.486,0.503l5.12,0.088c-0.103,0.933-0.17,1.894-0.208,2.882c-0.846,0.015-1.767,0.03-2.75,0.044
		c-4.012-0.324-7.013-1.685-8.607-3.955c-0.507-0.723-0.638-1.337-0.388-1.829c0.428-0.849,1.922-1.496,3.59-1.568
		C85.052,122.041,87.761,122.804,90.834,122.804z M62.658,105.878l9.082,0.125c0.002,0,0.002,0,0.007,0
		c0.024,0,0.045-0.01,0.069-0.014c0.118,0.939,0.28,1.859,0.486,2.741c-1.485,0.029-4.375,0.083-7.852,0.129
		c-3.145-0.374-5.225-1.613-6.816-3.928c-0.632-0.917-0.817-1.644-0.557-2.155c0.385-0.752,1.831-1.337,3.651-1.52
		c5.787,0.093,10.329,0.18,10.427,0.182c0.004,0,0.01,0,0.018,0c0.149,0,0.288-0.04,0.415-0.1c-0.032,1.198,0.004,2.44,0.12,3.672
		l-9.037-0.123h-0.005c-0.271,0-0.492,0.216-0.495,0.491C62.167,105.651,62.383,105.875,62.658,105.878z M72.022,97.285
		c-0.15,0.724-0.257,1.514-0.333,2.339c-0.146-0.092-0.31-0.162-0.495-0.166c-0.091-0.001-4.052-0.077-9.286-0.163
		c-0.104-0.039-0.212-0.069-0.326-0.076c-0.135,0.003-0.309,0.011-0.508,0.023c-0.17-0.118-0.369-0.197-0.586-0.186
		c-5.596,0.232-8.656-0.94-10.218-3.926c-0.407-0.769-0.785-1.844-0.31-2.583c0.143-0.223,0.369-0.409,0.652-0.562
		c0.942,0.01,1.88,0.017,2.802,0.017c4.884,0,9.38-0.145,12.738-0.482c3.561-0.121,6.802-0.268,9.03-0.377
		C73.948,92.451,72.609,94.442,72.022,97.285z M23.544,90.312c0.875,0.172,1.75,0.313,2.619,0.409
		c5.297,0.592,13.708,1.073,21.886,1.228c-0.322,0.736-0.458,1.784,0.062,3.192c-0.04-0.013-0.082-0.029-0.127-0.03l-13.436-0.264
		c-0.003,0-0.003,0-0.007,0c-0.271,0-0.492,0.214-0.496,0.484c-0.007,0.274,0.212,0.499,0.483,0.506l13.437,0.264
		c0.004,0,0.009,0,0.013,0c0.189,0,0.354-0.111,0.436-0.271c0.036,0.074,0.062,0.143,0.101,0.221
		c0.675,1.286,1.562,2.31,2.697,3.088c-3.92-0.049-7.682-0.083-10.483-0.083C29.557,99.056,24.853,92.579,23.544,90.312z
		 M35.074,100.461c1.694,0.36,3.569,0.576,5.655,0.576c3.885,0,9.623,0.066,15.073,0.145c-0.189,0.21-0.356,0.437-0.488,0.695
		c-0.345,0.674-0.542,1.726,0.103,3.137c0,0-0.001,0-0.002,0l-9.476-0.263c-0.31-0.051-0.503,0.208-0.507,0.48
		c-0.007,0.273,0.209,0.503,0.479,0.51l9.476,0.263c0.004,0,0.013,0,0.017,0c0.18,0,0.332-0.101,0.418-0.245
		c0.062,0.099,0.11,0.193,0.18,0.295c0.817,1.187,1.757,2.128,2.837,2.871c-2.242,0.021-4.538,0.033-6.724,0.033
		C41.352,108.957,36.578,102.929,35.074,100.461z M48.505,110.71c1.131,0.145,2.33,0.228,3.61,0.228
		c4.116,0,8.618-0.047,12.42-0.099c0.207-0.002,0.411-0.006,0.611-0.008c-0.015,0.021-0.026,0.044-0.042,0.065
		c-0.104,0.144-0.205,0.292-0.288,0.448c-0.363,0.683-0.76,2.014,0.036,3.823c-0.007,0-0.015-0.005-0.021-0.005l-5.516-0.263
		c-0.281-0.012-0.506,0.198-0.518,0.471c-0.011,0.271,0.197,0.504,0.473,0.52l5.515,0.262c0.008,0,0.015,0,0.023,0
		c0.184,0,0.339-0.103,0.426-0.253c0.054,0.094,0.093,0.182,0.154,0.278c0.779,1.212,1.699,2.174,2.783,2.925
		c-0.878,0.003-1.773,0.006-2.691,0.006C54.852,119.106,50.071,113.233,48.505,110.71z M63.225,120.995
		c0.726,0.056,1.474,0.092,2.256,0.092c3.14,0,6.074-0.027,8.612-0.063c1.316-0.019,2.53-0.039,3.6-0.061
		c-0.016,0.019-0.026,0.043-0.042,0.062c-0.118,0.159-0.235,0.319-0.326,0.499c-0.321,0.628-0.532,1.561-0.082,2.727l-4.065-0.193
		c-0.271,0-0.506,0.198-0.518,0.471c-0.013,0.271,0.197,0.503,0.472,0.52l4.654,0.221c0.027,0.039,0.043,0.075,0.071,0.115
		c0.815,1.161,1.914,2.12,3.248,2.877c-0.579,0.002-1.166,0.003-1.761,0.003C68.808,128.264,64.576,123.21,63.225,120.995z
		 M76.303,130.128c-0.005-0.012-0.016-0.019-0.021-0.033c0.965,0.094,1.98,0.15,3.062,0.15c3.134,0,6.061-0.026,8.595-0.063
		c1.029-0.015,1.986-0.03,2.871-0.047c0,0.039,0.003,0.08,0.004,0.118c0.02,1.346,0.12,2.735,0.294,4.156l-4.316-0.205
		c-0.278,0.004-0.506,0.197-0.518,0.473c-0.011,0.27,0.197,0.502,0.471,0.519l4.492,0.213c0.146,0.973,0.336,1.96,0.566,2.961
		C79.585,137.912,76.435,130.455,76.303,130.128z M91.788,120.776c-7.262,0.371-12.442-3.918-15.709-8.059
		c-2.371-3.002-3.076-10.412-2.12-15.03c1.006-4.854,4.544-6.73,4.688-6.807c0.418-0.212,0.631-0.688,0.511-1.141
		c-0.119-0.452-0.491-0.77-1.014-0.73c-0.059,0.002-4.058,0.227-9.303,0.43c-0.202-0.133-0.448-0.201-0.699-0.164
		c-0.616,0.099-1.309,0.187-2.057,0.264c-1.878,0.064-3.843,0.121-5.8,0.162c-0.121,0.003-0.24,0.003-0.356,0.003
		c-6.581,0-12.505-3.784-15.857-6.446c-0.115-0.367-0.434-0.639-0.833-0.679c-0.06-0.051-0.127-0.105-0.184-0.153
		c5.89,0.107,20.982,0.332,37.438,0.185c0.039,0,0.078,0,0.117,0c3.792,0,6.992,1.687,7.796,4.124
		c0.699,2.126-0.515,4.458-3.419,6.571c-7.089,5.143-6.312,11.892-3.496,16.108c2.501,3.735,7.033,6.335,11.812,6.113
		C92.75,117.066,92.219,118.825,91.788,120.776z M102.359,174.749c-0.101,0.017-0.197,0.021-0.298,0.023
		c-0.577-0.003-1.094-0.258-1.238-0.638c-1.724-4.746-0.893-8.673-0.862-8.833c0.092-0.417,0.638-0.713,1.253-0.713
		c0.062,0,0.125,0.005,0.19,0.012c0.692,0.063,1.171,0.482,1.075,0.94c-0.009,0.035-0.79,3.789,0.82,8.212
		C103.465,174.196,103.037,174.646,102.359,174.749z M103.506,163.624c-0.123-0.267-0.271-0.547-0.448-0.844
		c-0.813-1.356-2.188-3.018-3.904-5.044c-0.605-0.711-1.172-1.382-1.625-1.954c-2.6-3.276-3.759-6.782-3.175-9.62
		c0.011-0.052,0.034-0.099,0.046-0.149c0.349,0.768,0.716,1.539,1.126,2.314c2.209,4.19,5.002,7.867,7.967,11.039
		c1.059,1.134,2.14,2.2,3.225,3.202c-0.108-0.019-0.213-0.05-0.325-0.06c-0.112-0.014-0.232-0.021-0.353-0.021
		C104.984,162.488,104.062,162.931,103.506,163.624z M105.651,173.856c-1.729-4.746-0.897-8.669-0.864-8.836
		c0.091-0.409,0.635-0.71,1.253-0.71c0.063,0,0.124,0.003,0.186,0.012c0.697,0.062,1.177,0.483,1.076,0.938
		c-0.007,0.036-0.784,3.791,0.82,8.212c0.168,0.443-0.26,0.895-0.936,1.002c-0.105,0.011-0.201,0.02-0.302,0.02
		C106.309,174.494,105.79,174.235,105.651,173.856z M111.187,182.985c-1.846-0.701-5.011-2.371-4.662-3.79
		c0.143-0.576,0.396-1.613,0.707-2.897c0.062-0.005,0.122-0.009,0.186-0.017c0.773-0.124,1.418-0.455,1.874-0.936
		c0.57,0.534,1.385,0.861,2.285,0.861c0.186,0,0.367-0.013,0.564-0.044c0.071-0.011,0.134-0.036,0.203-0.049
		C111.881,178.919,111.459,181.439,111.187,182.985z M111.873,174.363c-0.104,0.015-0.2,0.021-0.297,0.021
		c-0.581,0-1.099-0.258-1.238-0.639c-1.729-4.746-0.896-8.666-0.862-8.833c0.093-0.412,0.642-0.712,1.257-0.712
		c0.061,0,0.12,0.004,0.183,0.008c0.694,0.066,1.174,0.488,1.073,0.939c-0.004,0.039-0.784,3.795,0.825,8.216
		C112.975,173.809,112.551,174.259,111.873,174.363z M117.944,189.168c-2.369-1.118-5.318-3.21-5.057-4.487
		c0.276-1.347,1.171-6.749,2.041-12.082l4.386-0.722c0.163,0.095,0.321,0.186,0.478,0.276
		C119.182,178.148,118.407,185.55,117.944,189.168z M124.867,195.217c-2.625-1.095-5.385-2.999-5.208-4.027
		c0.38-2.248,1.296-10.904,2.02-17.99c0.387,0.207,0.737,0.39,1.035,0.54c0.147,0.19,0.321,0.353,0.527,0.484
		c0.321,0.208,0.685,0.31,1.051,0.323v15.362c0,0.271,0.226,0.496,0.496,0.496c0.275,0,0.495-0.226,0.495-0.496v-15.406
		c0.258-0.052,0.51-0.131,0.735-0.279c0.205-0.132,0.384-0.294,0.525-0.484c0.412-0.209,0.916-0.47,1.49-0.782
		c0.728,7.129,1.657,15.958,2.046,18.232C130.254,192.215,127.491,194.118,124.867,195.217z M131.792,189.168
		c-0.471-3.672-1.263-11.234-1.875-17.275c0.031-0.017,0.06-0.035,0.091-0.053l4.748,0.699c-0.023,0.068-0.039,0.133-0.063,0.204
		c-0.243,0.659-0.179,1.405,0.188,2.033c0.101,0.169,0.225,0.323,0.36,0.467c0.715,4.37,1.376,8.313,1.605,9.438
		C137.122,186.013,134.079,188.085,131.792,189.168z M134.357,169.078c0.401-0.273,0.81-0.561,1.225-0.855
		c-0.013,0.271-0.029,0.554-0.057,0.853L134.357,169.078z M136.406,173.364c1.604-4.421,0.827-8.177,0.819-8.216
		c-0.101-0.451,0.383-0.873,1.074-0.939c0.063-0.004,0.126-0.008,0.183-0.008c0.619,0,1.168,0.3,1.257,0.712
		c0.035,0.167,0.866,4.087-0.861,8.833c-0.14,0.381-0.656,0.639-1.234,0.639c-0.103,0-0.197-0.007-0.303-0.021
		C136.663,174.259,136.24,173.809,136.406,173.364z M138.547,182.987c-0.271-1.534-0.688-4.021-1.146-6.799
		c0.08,0.005,0.164,0.019,0.242,0.019c0.899,0,1.715-0.327,2.284-0.861c0.452,0.48,1.088,0.811,1.821,0.926
		c0.223,0.031,0.385,0.041,0.546,0.045c0.072,0,0.141-0.012,0.208-0.015c0.311,1.283,0.561,2.318,0.707,2.894
		C143.533,180.504,140.746,182.16,138.547,182.987z M143.567,173.856c-0.139,0.379-0.656,0.638-1.236,0.638
		c-0.097,0-0.193-0.009-0.297-0.02c-0.677-0.107-1.104-0.559-0.941-1.002c1.609-4.421,0.827-8.176,0.82-8.212
		c-0.098-0.455,0.382-0.877,1.079-0.938c0.062-0.009,0.123-0.012,0.185-0.012c0.615,0,1.16,0.301,1.254,0.71
		C144.465,165.188,145.297,169.11,143.567,173.856z M149.254,165.302c0.034,0.16,0.863,4.087-0.861,8.833
		c-0.142,0.38-0.658,0.635-1.238,0.638c-0.097-0.003-0.195-0.007-0.298-0.023c-0.678-0.104-1.103-0.553-0.94-0.996
		c1.609-4.423,0.829-8.177,0.818-8.212c-0.094-0.458,0.385-0.877,1.08-0.94c0.062-0.007,0.124-0.012,0.187-0.012
		C148.619,164.589,149.161,164.885,149.254,165.302z M152.472,155.782c-0.452,0.572-1.021,1.243-1.626,1.954
		c-1.715,2.026-3.088,3.688-3.904,5.044c-0.036,0.063-0.077,0.124-0.111,0.187c-0.428,0.147-0.808,0.372-1.117,0.664
		c-0.56-0.7-1.479-1.143-2.536-1.143c-0.12,0-0.243,0.007-0.363,0.021c-0.086,0.008-0.166,0.034-0.251,0.047
		c1.303-1.204,2.597-2.501,3.854-3.892c2.725-3.01,5.272-6.452,7.323-10.337c0.586-1.11,1.095-2.212,1.557-3.306
		c0.15,0.356,0.268,0.736,0.35,1.141C156.23,149,155.07,152.506,152.472,155.782z M151.896,147.352
		c-3.278,6.211-7.9,11.266-12.42,15.168c-0.312-0.089-0.646-0.14-0.994-0.14c-0.115,0-0.236,0.004-0.355,0.015
		c-0.943,0.094-1.772,0.532-2.261,1.211c-0.417,0.564-0.566,1.245-0.424,1.915c0.007,0.05,0.021,0.133,0.031,0.202
		c-4.961,3.679-9.219,5.848-10.59,6.508v0.24c0,0-0.096-0.046-0.252-0.12c-0.158,0.074-0.258,0.12-0.258,0.12v-0.24
		c-1.374-0.663-5.649-2.842-10.628-6.542c0.014-0.084,0.025-0.152,0.031-0.187c0.143-0.635-0.004-1.323-0.422-1.896
		c-0.496-0.679-1.318-1.117-2.267-1.211c-0.12-0.011-0.239-0.015-0.355-0.015c-0.334,0-0.653,0.049-0.954,0.13
		c-4.517-3.899-9.135-8.952-12.409-15.158c-10.48-19.868,0.874-37.489,0.874-37.489c2.909,2.15,5.226,2.963,7.226,2.963
		c5.048,0,8.08-5.187,13.586-7.128c-0.055-0.718-0.097-1.436-0.125-2.152c-2.982,0.924-5.283,2.657-7.25,4.141
		c-0.628,0.475-1.231,0.925-1.826,1.333c-0.328,0.116-0.647,0.233-0.95,0.349c1.872-4.612,1.854-9.27,0.698-13.016
		c0.111-0.031,0.222-0.077,0.326-0.139l9.275-5.553c0.131-0.078,0.237-0.182,0.332-0.295c0.062-0.511,0.122-0.985,0.181-1.423
		c-0.123-0.258-0.316-0.481-0.578-0.617c-0.032-0.019-3.18-1.74-3.957-4.463c-0.029-0.098-0.029-0.198-0.05-0.296
		c-0.642-1.24-0.986-2.623-0.986-4.059c0-0.319,0.02-0.633,0.052-0.946c0.073-0.665,0.223-1.312,0.437-1.937
		c-4.146-1.079-4.619-2.708-3.752-3.147c0.143-0.073,0.32-0.112,0.525-0.112c0.278,0,0.6,0.069,0.944,0.236
		c0.849,0.405,2.039,0.697,3.346,0.906c0.307-0.443,0.65-0.864,1.039-1.254c0.186-0.185,0.381-0.356,0.578-0.523
		c-0.844-0.098-1.589-0.218-2.242-0.354c0.565-5.846,0.53-7.935-0.12-14.218c-0.197-1.764,0.279-2.36,1.745-2.669
		c3.198-0.655,5.755-0.673,8.049-0.673c0.031,0,0.065,0.018,0.101,0.03c0.035-0.012,0.065-0.03,0.1-0.03
		c2.29,0,4.845,0.018,8.044,0.673c1.467,0.309,1.946,0.905,1.745,2.669c-0.645,6.273-0.685,8.354-0.124,14.181
		c-1.416,0.312-3.379,0.533-5.662,0.642c0.1,0.09,0.205,0.175,0.301,0.272c0.495,0.493,0.913,1.04,1.271,1.619
		c2.451-0.177,5.09-0.54,6.622-1.271c0.341-0.167,0.666-0.236,0.94-0.236c0.207,0,0.387,0.039,0.529,0.112
		c1.059,0.536,0.116,2.845-7.074,3.763c0.167,0.635,0.266,1.29,0.288,1.959c1.628-0.207,3.062-0.491,4.272-0.857
		c3.049,3.587,3.901,7.408,2.575,11.673c-2.002,6.45-2.274,14.474,0.365,19.397c-0.883-0.498-1.786-1.083-2.734-1.703
		c-3.442-2.239-7.342-4.781-12.865-4.823h-0.126h-0.004c-0.333,0-0.66,0.011-0.979,0.032c-0.17-5.833,0.426-11.609,0.803-14.565
		c0.126-0.989,0.228-1.664,0.267-1.919c1.64-0.096,3.249-0.762,4.502-2.016c2.714-2.71,2.714-7.108,0-9.819
		c-1.356-1.358-3.133-2.035-4.911-2.035c-1.779,0-3.554,0.677-4.912,2.035c-2.712,2.711-2.712,7.108,0,9.819
		c1.023,1.025,2.287,1.662,3.611,1.911c-0.056,0.356-0.152,1.006-0.267,1.887c-0.894,6.886-2.844,27.877,5.813,32.713
		c0.312,0.173,0.632,0.331,0.97,0.459c1.059,0.407,2.134,0.608,3.204,0.608c1.578,0,3.153-0.441,4.657-1.312
		c1.201-0.697,2.326-1.688,3.32-2.841c1.308,0.4,2.696,0.66,4.209,0.66c1.657,0,3.334-0.301,4.985-0.906
		c2.124,5.709,4.28,16.048-1.59,27.174c-6.033,11.445-17.294,18.585-22.362,21.358c-5.07-2.773-16.329-9.913-22.369-21.361
		c-5.926-11.233-3.724-21.578-1.57-27.274c1.612,0.581,3.183,0.867,4.776,0.867c4.723,0,8.091-2.545,10.806-4.595
		c1.267-0.951,2.396-1.792,3.572-2.384c-0.076-0.347-0.14-0.701-0.206-1.055c-1.371,0.645-2.637,1.584-4.001,2.611
		c-2.722,2.054-5.801,4.379-10.171,4.379c-1.756,0-3.531-0.387-5.361-1.176c-2.344,5.662-5.233,16.867,1.23,29.115
		c6.37,12.071,18.372,19.43,23.293,22.061c4.924-2.631,16.921-9.989,23.288-22.056c6.393-12.122,3.573-23.323,1.256-29.023
		c-1.863,0.819-3.712,1.221-5.577,1.221c-1.24,0-2.399-0.194-3.504-0.497c0.933-1.245,1.713-2.633,2.27-4.086
		c0.405,0.059,0.814,0.094,1.234,0.094c2.162,0,4.557-0.851,7.419-3.106C151.018,109.862,162.376,127.483,151.896,147.352z
		 M119.504,79.395c-0.098,0.241-0.155,0.504-0.155,0.78c0,1.145,0.929,2.073,2.077,2.073c1.131,0,2.046-0.905,2.07-2.03h1.014
		c0.471,0,0.866-0.26,1.106-0.629c0.905-0.009,1.783-0.032,2.614-0.074c-0.003,1.338-0.511,2.678-1.531,3.696
		c-0.99,0.991-2.306,1.537-3.706,1.537c-1.4,0-2.715-0.546-3.705-1.537c-1.096-1.096-1.583-2.56-1.503-3.997
		C118.335,79.282,118.905,79.344,119.504,79.395z M118.271,77.28c0.251-0.531,0.575-1.037,1.014-1.475
		c0.345-0.346,0.74-0.615,1.155-0.848c1.324,0.062,2.503,0.078,3.29,0.078c0.632,0,1.017-0.012,1.017-0.012s0.354,0.011,0.943,0.011
		c0.36,0.218,0.704,0.464,1.01,0.771c0.516,0.513,0.897,1.107,1.153,1.743c-0.962,0.045-1.991,0.07-3.106,0.07
		C122.182,77.618,120.045,77.491,118.271,77.28z M155.942,115.479c5.051,0.55,9.937-2.134,12.568-6.065
		c2.816-4.216,3.594-10.965-3.497-16.108c-2.904-2.113-4.118-4.445-3.418-6.571c0.812-2.464,4.092-4.193,7.914-4.124
		c16.458,0.146,31.55-0.078,37.437-0.185c-0.056,0.048-0.127,0.103-0.183,0.153c-0.398,0.04-0.717,0.31-0.833,0.674
		c-3.424,2.699-9.539,6.523-16.215,6.447c-1.963-0.041-3.931-0.098-5.812-0.163c-0.744-0.078-1.434-0.165-2.046-0.264
		c-0.254-0.037-0.501,0.031-0.702,0.164c-5.242-0.204-9.24-0.428-9.301-0.43c-0.521-0.035-0.892,0.282-1.012,0.73
		c-0.119,0.453,0.092,0.929,0.511,1.141c0.034,0.019,3.673,1.91,4.686,6.807c0.957,4.618,0.253,12.028-2.117,15.03
		c-3.38,4.279-8.809,8.708-16.462,7.991C157.027,118.764,156.495,117.01,155.942,115.479z M200.039,92.547
		c0.475,0.738,0.097,1.814-0.306,2.583c-1.565,2.983-4.607,4.162-10.222,3.926c-0.24-0.011-0.441,0.067-0.61,0.185
		c-0.188-0.011-0.355-0.019-0.486-0.022c-0.128,0.003-0.249,0.032-0.363,0.077c-5.214,0.085-9.157,0.16-9.246,0.162
		c-0.186,0.004-0.349,0.073-0.494,0.166c-0.075-0.825-0.186-1.615-0.333-2.339c-0.587-2.843-1.927-4.834-3.161-6.142
		c2.228,0.109,5.472,0.256,9.03,0.377c3.357,0.338,7.854,0.482,12.74,0.482c0.921,0,1.86-0.006,2.803-0.017
		C199.671,92.139,199.896,92.325,200.039,92.547z M164.065,124.195c0,0-0.003,0-0.006,0l-5.962,0.104
		c-0.071-0.528-0.149-1.046-0.236-1.553c0.44,0.03,0.878,0.058,1.304,0.058c3.073,0,5.78-0.764,8.153-1.956
		c1.669,0.073,3.161,0.72,3.589,1.568c0.253,0.491,0.121,1.105-0.386,1.829c-1.595,2.27-4.619,3.63-8.618,3.954
		c-1.271-0.019-2.443-0.037-3.479-0.059c-0.035-0.977-0.104-1.93-0.202-2.853l5.853-0.102c0.272-0.003,0.491-0.229,0.488-0.503
		C164.559,124.413,164.338,124.195,164.065,124.195z M166.201,119.82c0-0.002-0.001-0.004-0.001-0.006
		c0.021-0.534,0.461-0.955,0.991-0.955c0.008,0,0.016,0,0.021,0C166.688,118.867,166.222,119.274,166.201,119.82z M167.173,120.839
		c-0.002,0-0.011,0-0.012,0c-0.072-0.002-0.137-0.032-0.203-0.049c0.069,0.018,0.136,0.047,0.21,0.049
		C167.17,120.839,167.171,120.839,167.173,120.839z M170.398,118.942c1.162-0.865,2.22-1.819,3.168-2.81l4.374-0.104
		c0.273-0.004,0.488-0.233,0.482-0.507c-0.005-0.271-0.224-0.491-0.508-0.484l-3.421,0.083c0.341-0.391,0.673-0.784,0.982-1.177
		c0.671-0.848,1.22-1.968,1.661-3.242c0.58,0.013,1.597,0.031,2.914,0.054c0.121,0.058,0.254,0.095,0.397,0.098
		c1.373,0.035,2.546,0.591,2.985,1.418c0.497,0.934,0.008,2.058-0.489,2.831c-1.541,2.397-3.721,3.627-7.131,3.94
		C173.671,119.012,171.823,118.975,170.398,118.942z M177.698,108.73c0.205-0.882,0.368-1.802,0.484-2.741
		c0.025,0.004,0.046,0.014,0.07,0.014c0.003,0,0.003,0,0.007,0l9.081-0.125c0.275-0.003,0.492-0.227,0.488-0.498
		c-0.005-0.275-0.225-0.491-0.495-0.491h-0.004l-9.039,0.123c0.115-1.232,0.153-2.475,0.119-3.672c0.129,0.06,0.266,0.1,0.415,0.1
		c0.007,0,0.016,0,0.021,0c0.096-0.002,4.637-0.089,10.424-0.182c1.82,0.183,3.266,0.768,3.654,1.52
		c0.258,0.511,0.072,1.238-0.56,2.155c-1.595,2.319-3.672,3.556-6.832,3.927C182.063,108.812,179.18,108.759,177.698,108.73z
		 M173.696,130.132c-0.034,0.081-3.322,8.093-16.24,8.266c0.23-0.999,0.42-1.984,0.565-2.953l5.233-0.249
		c0.274-0.017,0.482-0.249,0.472-0.519c-0.012-0.275-0.264-0.473-0.517-0.473l-5.058,0.241c0.182-1.461,0.283-2.89,0.3-4.271
		c0-0.018,0.004-0.034,0.004-0.053c1.071,0.022,2.288,0.041,3.604,0.061c2.534,0.037,5.464,0.063,8.596,0.063
		c1.084,0,2.098-0.057,3.065-0.15C173.714,130.111,173.701,130.118,173.696,130.132z M170.656,128.264
		c-0.595,0-1.184-0.001-1.763-0.003c1.336-0.758,2.436-1.717,3.25-2.877c0.028-0.04,0.043-0.076,0.069-0.115l4.655-0.221
		c0.274-0.016,0.482-0.249,0.471-0.52c-0.01-0.273-0.274-0.475-0.517-0.471l-4.066,0.193c0.451-1.166,0.238-2.099-0.079-2.727
		c-0.091-0.18-0.21-0.34-0.327-0.499c-0.017-0.019-0.026-0.043-0.04-0.062c1.067,0.022,2.28,0.042,3.595,0.061
		c2.541,0.036,5.474,0.063,8.614,0.063c0.777,0,1.521-0.036,2.243-0.091C185.388,123.199,181.107,128.264,170.656,128.264z
		 M184.519,119.106c-0.918,0-1.813-0.003-2.692-0.006c1.088-0.751,2.007-1.712,2.784-2.925c0.062-0.096,0.102-0.184,0.157-0.278
		c0.084,0.151,0.242,0.253,0.424,0.253c0.007,0,0.016,0,0.022,0l5.517-0.262c0.274-0.016,0.482-0.248,0.473-0.52
		c-0.015-0.273-0.261-0.49-0.52-0.471l-5.515,0.263c-0.009,0-0.015,0.005-0.021,0.005c0.796-1.809,0.401-3.14,0.036-3.823
		c-0.084-0.156-0.184-0.304-0.288-0.448c-0.015-0.021-0.026-0.044-0.043-0.065c0.203,0.002,0.405,0.006,0.611,0.008
		c3.803,0.052,8.305,0.099,12.421,0.099c1.273,0,2.465-0.083,3.591-0.225C199.888,113.225,195.046,119.106,184.519,119.106z
		 M197.885,108.957c-2.187,0-4.481-0.013-6.725-0.033c1.085-0.742,2.021-1.684,2.839-2.871c0.069-0.102,0.118-0.196,0.18-0.295
		c0.088,0.145,0.238,0.245,0.417,0.245c0.007,0,0.015,0,0.018,0l9.475-0.263c0.271-0.007,0.487-0.237,0.479-0.51
		c-0.008-0.267-0.228-0.48-0.495-0.48c-0.004,0-0.007,0-0.012,0l-9.476,0.263c0,0,0,0-0.001,0c0.645-1.411,0.447-2.463,0.102-3.137
		c-0.131-0.258-0.298-0.485-0.487-0.695c5.448-0.079,11.188-0.145,15.073-0.145c2.077,0,3.945-0.213,5.633-0.571
		C213.381,102.92,208.547,108.957,197.885,108.957z M209.271,99.056c-2.802,0-6.565,0.034-10.486,0.083
		c1.138-0.779,2.026-1.804,2.7-3.088c0.039-0.078,0.064-0.146,0.102-0.221c0.083,0.16,0.244,0.271,0.437,0.271
		c0.003,0,0.007,0,0.011,0l13.437-0.264c0.271-0.007,0.491-0.232,0.484-0.506c-0.003-0.275-0.267-0.479-0.503-0.484l-13.437,0.264
		c-0.046,0.001-0.087,0.017-0.127,0.03c0.52-1.408,0.384-2.456,0.061-3.192c8.18-0.154,16.59-0.635,21.888-1.228
		c0.863-0.095,1.736-0.236,2.606-0.407C225.114,92.572,220.323,99.056,209.271,99.056z M223.616,88.754
		c-5.718,0.638-15.083,1.151-23.813,1.257c-1.431,0.018-2.845,0.025-4.224,0.018c0.163-0.255,0.428-0.441,0.758-0.459
		c0.984-0.065,1.875,0.002,2.651,0.185c3.592-1.509,6.58-3.609,8.572-5.243l32.977-1.525
		C236.521,85.056,229.814,88.061,223.616,88.754z"/>
	<path d="M194.758,94.988c0,0,0,0-0.002,0l-15.023,0.124c-0.27,0.003-0.488,0.229-0.488,0.5c0.003,0.274,0.223,0.491,0.493,0.491
		c0.004,0,0.004,0,0.004,0l15.021-0.125c0.275,0,0.497-0.224,0.492-0.498C195.255,95.208,195.03,94.988,194.758,94.988z"/>
	<path d="M70.266,95.111l-15.021-0.124c-0.004,0-0.004,0-0.004,0c-0.271,0-0.496,0.221-0.496,0.492
		c-0.003,0.273,0.217,0.498,0.492,0.498l15.021,0.125c0,0,0,0,0.004,0c0.271,0,0.493-0.216,0.496-0.491
		C70.758,95.34,70.537,95.115,70.266,95.111z"/>
	<path d="M109.649,83.458c0.042,0.004,0.085,0.008,0.124,0.008c0.685,0,1.273-0.526,1.335-1.223
		c0.069-0.734-0.476-1.389-1.215-1.458l-2.073-0.189c-0.731-0.073-1.39,0.476-1.459,1.214c-0.066,0.739,0.477,1.393,1.214,1.458
		L109.649,83.458z"/>
	<path d="M111.792,127.383h-4.254v9.912h4.254c3.418,0,5.898-2.088,5.898-4.957C117.691,129.455,115.211,127.383,111.792,127.383z
		 M111.792,135.783h-2.271v-6.891h2.271c2.234,0,3.794,1.414,3.794,3.445C115.586,134.378,114.027,135.783,111.792,135.783z"/>
	<polygon points="132.195,137.367 135.017,129.993 137.841,137.367 139.674,137.367 143.433,127.383 141.375,127.383 
		138.771,135.056 135.948,127.353 134.155,127.353 131.331,135.05 128.725,127.383 126.6,127.383 130.364,137.367 	"/>
	<path d="M122.097,150.572h2.438l2.498,3.358h2.271l-2.74-3.604l0.385-0.125c1.046-0.352,2.297-1.152,2.297-2.981
		c0-2.015-1.533-3.202-4.104-3.202h-5.035v9.913h1.989V150.572z M122.097,145.524h2.831c1.439,0,2.296,0.668,2.296,1.787
		c0,1.105-0.882,1.8-2.252,1.8h-2.875V145.524z"/>
</g>
</svg>
