<?xml version="1.0" encoding="utf-8"?>
<!-- Generator: Adobe Illustrator 16.0.4, SVG Export Plug-In . SVG Version: 6.00 Build 0)  -->
<!DOCTYPE svg PUBLIC "-//W3C//DTD SVG 1.1//EN" "http://www.w3.org/Graphics/SVG/1.1/DTD/svg11.dtd">
<svg version="1.1" id="Layer_1" xmlns="http://www.w3.org/2000/svg" xmlns:xlink="http://www.w3.org/1999/xlink" x="0px" y="0px"
	 width="250px" height="250px" viewBox="0 0 250 250" enable-background="new 0 0 250 250" xml:space="preserve">
<g>
	<path d="M178.78,95.285c-3.019-8.126-7.201-14.897-12.557-20.316c-5.355-5.416-11.697-9.482-19.021-12.192
		c-7.325-2.707-15.233-4.072-23.729-4.072H66.695v132.281h38.445v-59.669h-5.72v-10.609c0-0.909,0.356-1.646,1.265-1.646h31.516
		c0.909,0,2.025,0.737,2.025,1.646v10.609h-5.719v59.547c8.337-0.456,14.891-2.255,21.28-5.161
		c7.446-3.385,13.666-8.238,18.65-14.148c4.988-5.909,8.709-12.927,11.173-21.052c2.461-8.126,3.693-16.99,3.693-26.593
		C183.305,112.953,181.797,103.411,178.78,95.285z"/>
	<rect x="111.555" y="131.698" width="4.111" height="59.598"/>
</g>
</svg>
