<?xml version="1.0" encoding="utf-8"?>
<!-- Generator: Adobe Illustrator 16.0.4, SVG Export Plug-In . SVG Version: 6.00 Build 0)  -->
<!DOCTYPE svg PUBLIC "-//W3C//DTD SVG 1.1//EN" "http://www.w3.org/Graphics/SVG/1.1/DTD/svg11.dtd">
<svg version="1.1" id="Layer_1" xmlns="http://www.w3.org/2000/svg" xmlns:xlink="http://www.w3.org/1999/xlink" x="0px" y="0px"
	 width="250px" height="250px" viewBox="0 0 250 250" enable-background="new 0 0 250 250" xml:space="preserve">
<g>
	<path d="M18.231,125.908h-1.574c-0.699,0-1.22-0.146-1.561-0.438c-0.342-0.291-0.512-0.704-0.512-1.237v-19.857L4.194,104.85v2.273
		h1.049c0.865,0,1.544,0.233,2.036,0.7c0.491,0.466,0.737,1.124,0.737,1.974v13.537c0,0.95-0.171,1.616-0.512,1.999
		c-0.342,0.384-0.929,0.576-1.761,0.576H4.194v2.322h14.037V125.908z"/>
	<path d="M10.613,99.505c1.116,0,2.073-0.395,2.872-1.186c0.8-0.792,1.2-1.753,1.2-2.886c0-1.132-0.4-2.094-1.2-2.884
		c-0.799-0.791-1.756-1.187-2.872-1.187c-1.132,0-2.098,0.396-2.897,1.187c-0.8,0.791-1.199,1.752-1.199,2.884
		c0,1.116,0.399,2.074,1.199,2.873C8.516,99.105,9.481,99.505,10.613,99.505z"/>
	<path d="M50.778,125.357c-0.382-0.366-0.574-0.966-0.574-1.798v-10.841c0-2.763-0.665-4.92-1.993-6.469
		c-1.345-1.548-3.179-2.322-5.503-2.322c-1.71,0-3.338,0.458-4.881,1.374c-1.544,0.916-2.997,2.298-4.358,4.146
		c-0.183-1.982-0.449-3.688-0.799-5.121l-9.767,0.524v2.174h1c0.882,0,1.594,0.237,2.135,0.711c0.542,0.474,0.812,1.112,0.812,1.91
		v13.914c0,0.765-0.187,1.348-0.562,1.748c-0.374,0.399-0.928,0.6-1.661,0.6h-1.898v2.322H37.34v-2.322h-1.773
		c-0.617,0-1.12-0.201-1.511-0.6c-0.392-0.4-0.588-0.983-0.588-1.748v-7.818c0-2.515,0.548-4.425,1.641-5.733
		c1.094-1.306,2.511-1.96,4.25-1.96c1.276,0,2.308,0.462,3.095,1.386c0.787,0.923,1.181,2.252,1.181,3.984v10.142
		c0,0.765-0.192,1.348-0.575,1.748c-0.383,0.399-0.966,0.6-1.749,0.6h-1.473v2.322H53.9v-2.322h-1.299
		C51.769,125.908,51.161,125.724,50.778,125.357z"/>
	<path d="M73.433,125.706c-0.933,0.685-2.282,1.025-4.046,1.025c-4.297,0-7.328-2.231-9.092-6.694h-2.074l0.45,8.843h1.898
		l1.786-2.099c1.199,0.815,2.351,1.386,3.458,1.711c1.106,0.324,2.341,0.487,3.705,0.487c2.829,0,5.113-0.737,6.852-2.213
		c1.739-1.473,2.608-3.292,2.608-5.459c0-1.714-0.453-3.214-1.361-4.498c-0.908-1.282-2.169-2.25-3.785-2.898
		c-0.85-0.35-2.556-0.784-5.121-1.3c-2.831-0.568-4.562-1.093-5.194-1.577c-0.633-0.468-0.949-1.152-0.949-2.054
		c0-0.918,0.408-1.678,1.224-2.278c0.816-0.601,2.006-0.902,3.572-0.902c1.815,0,3.359,0.43,4.634,1.292
		c1.273,0.861,2.443,2.354,3.509,4.478h2.023l-0.5-7.993h-1.524l-1.635,1.973c-1.134-0.732-2.205-1.249-3.213-1.549
		s-2.146-0.449-3.412-0.449c-2.6,0-4.675,0.745-6.225,2.234c-1.55,1.49-2.325,3.399-2.325,5.729c0,1.631,0.426,3.024,1.274,4.181
		s2.115,2.06,3.797,2.708c0.982,0.399,2.831,0.874,5.544,1.424c2.514,0.517,4.063,1,4.647,1.45c0.582,0.451,0.874,1.109,0.874,1.976
		C74.832,124.206,74.365,125.022,73.433,125.706z"/>
	<path d="M105.817,125.695c2.788-2.19,4.184-5.333,4.184-9.429c0-2.563-0.534-4.759-1.599-6.582
		c-1.066-1.823-2.694-3.301-4.883-4.433s-4.592-1.699-7.206-1.699c-3.814,0-6.981,1.22-9.504,3.659
		c-2.523,2.44-3.784,5.466-3.784,9.079c0,2.398,0.558,4.55,1.674,6.458c1.116,1.907,2.709,3.422,4.783,4.545
		c2.073,1.124,4.357,1.687,6.857,1.687C99.868,128.979,103.028,127.883,105.817,125.695z M92.316,124.47
		c-1.017-1.506-1.525-4.25-1.525-8.229c0-3.831,0.513-6.508,1.538-8.031c1.023-1.523,2.401-2.286,4.133-2.286
		c1.782,0,3.206,0.771,4.271,2.312c1.065,1.54,1.599,4.259,1.599,8.155c0,3.797-0.542,6.47-1.624,8.018
		c-1.083,1.548-2.507,2.322-4.271,2.322C94.706,126.73,93.332,125.978,92.316,124.47z"/>
	<path d="M150.526,125.383c-0.357,0.35-0.978,0.525-1.86,0.525h-1.449v2.322h14.113v-2.322h-1.533c-0.722,0-1.255-0.167-1.598-0.5
		c-0.344-0.333-0.516-0.883-0.516-1.65v-11.189c0-2.748-0.684-4.871-2.051-6.37c-1.368-1.482-3.236-2.223-5.604-2.223
		c-1.7,0-3.331,0.434-4.891,1.305c-1.559,0.869-3.131,2.349-4.715,4.438c-0.584-1.906-1.486-3.332-2.711-4.276
		c-1.225-0.945-2.769-1.417-4.633-1.417c-1.732,0-3.335,0.405-4.808,1.216c-1.474,0.811-3.011,2.237-4.608,4.277
		c-0.117-1.857-0.359-3.588-0.725-5.194l-9.641,0.524v2.273c1.182,0,1.964,0.076,2.348,0.225c0.516,0.199,0.895,0.486,1.137,0.859
		c0.24,0.375,0.361,0.878,0.361,1.51v14.043c0,0.782-0.17,1.335-0.512,1.659c-0.341,0.325-0.954,0.487-1.836,0.487h-1.648v2.322
		h14.438v-2.322h-1.374c-0.816,0-1.45-0.217-1.899-0.651c-0.333-0.332-0.499-0.965-0.499-1.897v-9.167
		c0-0.899,0.304-1.889,0.912-2.972c0.607-1.083,1.339-1.881,2.197-2.397c0.858-0.516,1.788-0.774,2.786-0.774
		c1.282,0,2.339,0.467,3.173,1.399c0.832,0.933,1.248,2.24,1.248,3.921v10.542c0,0.682-0.191,1.206-0.575,1.573
		c-0.299,0.283-0.882,0.425-1.748,0.425h-1.599v2.322h14.362v-2.322h-1.923c-0.565,0-1.015-0.159-1.349-0.475
		c-0.334-0.316-0.499-0.773-0.499-1.371v-9.154c0-1.148,0.291-2.316,0.874-3.504c0.583-1.19,1.276-2.037,2.085-2.545
		c0.808-0.507,1.777-0.761,2.911-0.761c1.382,0,2.459,0.45,3.233,1.348s1.162,2.286,1.162,4.165v10.152
		C151.064,124.494,150.885,125.034,150.526,125.383z"/>
	<path d="M191.903,125.357c-0.384-0.366-0.575-0.966-0.575-1.798v-10.841c0-2.763-0.663-4.92-1.992-6.469
		c-1.345-1.548-3.18-2.322-5.504-2.322c-1.709,0-3.337,0.458-4.881,1.374c-1.545,0.916-2.996,2.298-4.358,4.146
		c-0.183-1.982-0.448-3.688-0.798-5.121l-9.767,0.524v2.174h0.998c0.883,0,1.595,0.237,2.137,0.711
		c0.54,0.474,0.812,1.112,0.812,1.91v13.914c0,0.765-0.188,1.348-0.562,1.748c-0.375,0.399-0.929,0.6-1.661,0.6h-1.897v2.322h14.611
		v-2.322h-1.772c-0.617,0-1.121-0.201-1.512-0.6c-0.392-0.4-0.588-0.983-0.588-1.748v-7.818c0-2.515,0.548-4.425,1.642-5.733
		c1.094-1.306,2.51-1.96,4.249-1.96c1.276,0,2.308,0.462,3.096,1.386c0.786,0.923,1.181,2.252,1.181,3.984v10.142
		c0,0.765-0.192,1.348-0.576,1.748c-0.382,0.399-0.964,0.6-1.748,0.6h-1.473v2.322h14.062v-2.322h-1.298
		C192.894,125.908,192.287,125.724,191.903,125.357z"/>
	<path d="M213.334,125.908h-1.573c-0.7,0-1.22-0.146-1.562-0.438c-0.341-0.291-0.512-0.704-0.512-1.237v-19.857l-10.391,0.474v2.273
		h1.049c0.866,0,1.544,0.233,2.035,0.7c0.492,0.466,0.738,1.124,0.738,1.974v13.537c0,0.95-0.172,1.616-0.513,1.999
		c-0.342,0.384-0.929,0.576-1.761,0.576h-1.549v2.322h14.037V125.908z"/>
	<path d="M205.716,99.505c1.115,0,2.073-0.395,2.873-1.186c0.8-0.792,1.198-1.753,1.198-2.886c0-1.132-0.398-2.094-1.198-2.884
		c-0.8-0.791-1.758-1.187-2.873-1.187c-1.133,0-2.099,0.396-2.897,1.187c-0.799,0.791-1.199,1.752-1.199,2.884
		c0,1.116,0.4,2.074,1.199,2.873C203.617,99.105,204.583,99.505,205.716,99.505z"/>
	<path d="M221.552,117.19c-2.432,1.516-3.646,3.53-3.646,6.044c0,1.666,0.658,3.039,1.974,4.12c1.314,1.083,3.146,1.625,5.495,1.625
		c1.699,0,3.222-0.304,4.571-0.912c1.348-0.608,2.873-1.752,4.57-3.435c0.732,1.683,1.541,2.826,2.423,3.435
		c0.883,0.608,2.039,0.912,3.472,0.912c0.966,0,1.852-0.135,2.66-0.399c0.808-0.267,1.72-0.749,2.736-1.448l-1.051-1.8
		c-0.782,0.517-1.415,0.775-1.898,0.775c-0.582,0-1.039-0.2-1.373-0.601c-0.334-0.399-0.499-1.049-0.499-1.947v-11.865
		c0-1.765-0.379-3.251-1.137-4.459c-0.758-1.207-1.745-2.052-2.96-2.535c-1.898-0.766-4.07-1.149-6.52-1.149
		c-3.247,0-5.961,0.766-8.144,2.298c-1.747,1.233-2.622,2.656-2.622,4.271c0,0.983,0.333,1.786,0.999,2.41
		c0.666,0.625,1.549,0.937,2.648,0.937c1.031,0,1.856-0.287,2.473-0.861c0.615-0.575,0.924-1.328,0.924-2.261
		c0-0.733-0.233-1.474-0.7-2.223c-0.215-0.333-0.324-0.583-0.324-0.75c0-0.316,0.291-0.633,0.874-0.949
		c0.866-0.482,1.865-0.724,2.998-0.724c1.482,0,2.664,0.42,3.546,1.26c0.883,0.842,1.325,1.928,1.325,3.261v3.372
		C227.772,114.792,223.501,115.991,221.552,117.19z M234.366,118.988c0,2.049-0.547,3.664-1.636,4.846
		c-1.092,1.183-2.461,1.773-4.109,1.773c-1.065,0-1.895-0.312-2.485-0.937c-0.591-0.625-0.887-1.519-0.887-2.685
		c0-1.648,0.628-2.976,1.886-3.984c1.257-1.007,3.668-1.752,7.231-2.236V118.988z"/>
	<path d="M64.25,145.547c1.602,0,2.995,0.997,3.645,2.251l2.831-1.392c-1.09-1.928-3.063-3.784-6.476-3.784
		c-4.642,0-8.239,3.25-8.239,8.008s3.597,8.007,8.239,8.007c3.412,0,5.361-1.879,6.476-3.807l-2.831-1.368
		c-0.65,1.275-2.042,2.251-3.645,2.251c-2.808,0-4.851-2.159-4.851-5.083C59.399,147.704,61.442,145.547,64.25,145.547z"/>
	<path d="M80.256,142.622c-4.665,0-8.077,3.344-8.077,8.008c0,4.665,3.412,8.007,8.077,8.007c4.688,0,8.1-3.342,8.1-8.007
		C88.356,145.966,84.945,142.622,80.256,142.622z M80.256,155.713c-2.854,0-4.688-2.205-4.688-5.083
		c0-2.901,1.833-5.083,4.688-5.083c2.855,0,4.712,2.182,4.712,5.083C84.969,153.508,83.112,155.713,80.256,155.713z"/>
	<polygon points="91.253,158.358 94.549,158.358 94.549,151.952 102.046,151.952 102.046,149.053 94.549,149.053 94.549,145.779 
		102.209,145.779 102.209,142.878 91.253,142.878 	"/>
	<polygon points="105.113,158.358 108.409,158.358 108.409,151.952 115.906,151.952 115.906,149.053 108.409,149.053 
		108.409,145.779 116.068,145.779 116.068,142.878 105.113,142.878 	"/>
	<polygon points="118.973,158.358 129.928,158.358 129.928,155.457 122.269,155.457 122.269,151.952 129.765,151.952 
		129.765,149.053 122.269,149.053 122.269,145.779 129.928,145.779 129.928,142.878 118.973,142.878 	"/>
	<polygon points="133.302,158.358 144.257,158.358 144.257,155.457 136.598,155.457 136.598,151.952 144.094,151.952 
		144.094,149.053 136.598,149.053 136.598,145.779 144.257,145.779 144.257,142.878 133.302,142.878 	"/>
	<path d="M161.436,145.547c1.603,0,2.994,0.997,3.645,2.251l2.832-1.392c-1.092-1.928-3.064-3.784-6.477-3.784
		c-4.641,0-8.238,3.25-8.238,8.008s3.598,8.007,8.238,8.007c3.412,0,5.361-1.879,6.477-3.807l-2.832-1.368
		c-0.65,1.275-2.042,2.251-3.645,2.251c-2.808,0-4.85-2.159-4.85-5.083C156.586,147.704,158.628,145.547,161.436,145.547z"/>
	<path d="M177.442,142.622c-4.664,0-8.077,3.344-8.077,8.008c0,4.665,3.413,8.007,8.077,8.007c4.689,0,8.101-3.342,8.101-8.007
		C185.543,145.966,182.132,142.622,177.442,142.622z M177.442,155.713c-2.854,0-4.688-2.205-4.688-5.083
		c0-2.901,1.834-5.083,4.688-5.083c2.855,0,4.712,2.182,4.712,5.083C182.154,153.508,180.298,155.713,177.442,155.713z"/>
	<path d="M189.205,154.854c-1.021,0-1.88,0.858-1.88,1.879c0,1.021,0.859,1.88,1.88,1.88c1.021,0,1.88-0.858,1.88-1.88
		C191.085,155.713,190.227,154.854,189.205,154.854z"/>
	<rect x="4.381" y="148.076" width="41.064" height="4.44"/>
	<rect x="203.838" y="148.076" width="41.063" height="4.44"/>
</g>
</svg>
