<?xml version="1.0" encoding="utf-8"?>
<!-- Generator: Adobe Illustrator 16.0.4, SVG Export Plug-In . SVG Version: 6.00 Build 0)  -->
<!DOCTYPE svg PUBLIC "-//W3C//DTD SVG 1.1//EN" "http://www.w3.org/Graphics/SVG/1.1/DTD/svg11.dtd">
<svg version="1.1" id="Layer_1" xmlns="http://www.w3.org/2000/svg" xmlns:xlink="http://www.w3.org/1999/xlink" x="0px" y="0px"
	 width="250px" height="250px" viewBox="0 0 250 250" enable-background="new 0 0 250 250" xml:space="preserve">
<g>
	<polygon points="104.233,98.855 99.738,98.855 99.738,117.76 99.65,117.76 92.863,98.855 88.545,98.855 88.545,130.23 
		93.041,130.23 93.041,111.371 93.128,111.371 100.002,130.23 104.233,130.23 	"/>
	<rect x="109.52" y="98.855" width="4.495" height="31.375"/>
	<path d="M131.884,100.508c-0.72-0.632-1.528-1.109-2.424-1.432c-0.897-0.324-1.8-0.484-2.709-0.484
		c-0.912,0-1.816,0.161-2.712,0.484c-0.896,0.323-1.703,0.8-2.423,1.432c-0.721,0.631-1.301,1.432-1.741,2.402
		c-0.441,0.969-0.661,2.086-0.661,3.348v16.569c0,1.293,0.219,2.417,0.661,3.371c0.44,0.954,1.02,1.748,1.741,2.38
		c0.72,0.633,1.526,1.109,2.423,1.431c0.896,0.324,1.8,0.486,2.712,0.486c0.909,0,1.812-0.162,2.709-0.486
		c0.896-0.321,1.704-0.798,2.424-1.431c0.719-0.632,1.299-1.426,1.74-2.38s0.66-2.078,0.66-3.371v-9.871h-8.064v3.966h3.571v5.905
		c0,1.087-0.303,1.887-0.904,2.401c-0.603,0.515-1.314,0.771-2.136,0.771c-0.824,0-1.537-0.256-2.139-0.771
		c-0.601-0.514-0.904-1.314-0.904-2.401v-16.569c0-1.086,0.303-1.887,0.904-2.401c0.602-0.514,1.314-0.771,2.139-0.771
		c0.821,0,1.533,0.257,2.136,0.771c0.602,0.515,0.904,1.315,0.904,2.401v1.586h4.493v-1.586c0-1.262-0.219-2.379-0.66-3.348
		C133.183,101.94,132.603,101.14,131.884,100.508z"/>
	<polygon points="153.894,130.23 153.894,98.855 149.399,98.855 149.399,112.295 143.846,112.295 143.846,98.855 139.352,98.855 
		139.352,130.23 143.846,130.23 143.846,116.261 149.399,116.261 149.399,130.23 	"/>
	<polygon points="171.873,98.855 156.979,98.855 156.979,103.085 162.179,103.085 162.179,130.23 166.672,130.23 166.672,103.085 
		171.873,103.085 	"/>
	<polygon points="191.349,119.258 191.261,119.258 187.604,98.855 184.167,98.855 180.641,118.773 180.553,118.773 178.307,98.855 
		173.547,98.855 178.218,130.23 182.449,130.23 185.841,109.873 185.931,109.873 189.365,130.23 193.597,130.23 198.268,98.855 
		193.508,98.855 	"/>
	<rect x="202.321" y="98.855" width="4.495" height="31.375"/>
	<polygon points="227.79,130.23 227.79,98.855 223.296,98.855 223.296,117.76 223.209,117.76 216.423,98.855 212.104,98.855 
		212.104,130.23 216.599,130.23 216.599,111.371 216.686,111.371 223.561,130.23 	"/>
	<path d="M246.468,128.138c1.424-1.395,2.138-3.562,2.138-6.5v-14.673c0-2.556-0.678-4.546-2.029-5.971
		c-1.351-1.426-3.305-2.138-5.859-2.138h-6.654v31.375h6.258C242.992,130.23,245.043,129.532,246.468,128.138z M238.558,103.085
		h2.071c1.321,0,2.231,0.338,2.731,1.014c0.499,0.676,0.75,1.631,0.75,2.864v15.114c0,1.352-0.265,2.344-0.792,2.975
		c-0.531,0.632-1.428,0.947-2.689,0.947h-2.071V103.085z"/>
	<path d="M96.328,136.843c-0.591-0.227-1.344-0.344-2.257-0.344h-5.957v14.393h3.743v-4.764h2.341c0.95,0,1.743-0.137,2.383-0.406
		c0.639-0.271,1.163-0.689,1.571-1.25c0.611-0.851,0.917-1.926,0.917-3.227c0-1.314-0.38-2.402-1.139-3.256
		C97.451,137.452,96.917,137.07,96.328,136.843z M94.767,142.574c-0.162,0.188-0.371,0.325-0.628,0.405
		c-0.256,0.081-0.602,0.119-1.038,0.119h-1.244v-3.574h1.255c0.75,0,1.281,0.159,1.592,0.477c0.14,0.146,0.254,0.34,0.343,0.573
		c0.087,0.236,0.131,0.474,0.131,0.713C95.178,141.828,95.041,142.256,94.767,142.574z"/>
	<path d="M110.734,144.598c0.301-0.154,0.582-0.361,0.843-0.623c0.352-0.35,0.628-0.798,0.832-1.345
		c0.204-0.543,0.307-1.111,0.307-1.702c0-0.524-0.087-1.043-0.258-1.55c-0.173-0.505-0.417-0.955-0.734-1.349
		c-0.428-0.535-0.943-0.923-1.544-1.166c-0.601-0.243-1.345-0.364-2.231-0.364h-5.818v14.393h3.743v-5.523l3.562,5.523h4.662
		l-4.524-5.903C110.044,144.881,110.43,144.753,110.734,144.598z M108.667,141.84c-0.105,0.245-0.24,0.444-0.401,0.6
		c-0.345,0.327-0.911,0.492-1.698,0.492h-0.695v-3.574h0.695c0.787,0,1.353,0.163,1.698,0.493c0.167,0.152,0.303,0.352,0.405,0.591
		c0.103,0.243,0.154,0.475,0.154,0.697S108.772,141.597,108.667,141.84z"/>
	<path d="M130.084,138.588c-0.702-0.802-1.579-1.423-2.631-1.861c-1.049-0.44-2.18-0.659-3.389-0.659
		c-1.195,0-2.32,0.219-3.374,0.659c-1.054,0.438-1.937,1.06-2.646,1.861c-0.583,0.661-1.053,1.459-1.408,2.398
		c-0.355,0.938-0.533,1.856-0.533,2.755c0,0.903,0.174,1.813,0.521,2.738c0.349,0.925,0.825,1.727,1.429,2.41
		c0.696,0.794,1.571,1.413,2.626,1.854c1.053,0.442,2.182,0.664,3.384,0.664c1.209,0,2.34-0.222,3.389-0.657
		c1.052-0.44,1.929-1.062,2.631-1.861c0.604-0.684,1.081-1.485,1.43-2.41c0.348-0.925,0.521-1.835,0.521-2.738
		c0-0.904-0.174-1.82-0.521-2.743C131.165,140.071,130.688,139.27,130.084,138.588z M127.174,146.356
		c-0.393,0.45-0.859,0.798-1.396,1.046c-0.539,0.245-1.108,0.367-1.713,0.367s-1.175-0.122-1.714-0.367
		c-0.539-0.248-1-0.6-1.387-1.054c-0.309-0.366-0.548-0.775-0.717-1.23c-0.169-0.452-0.252-0.912-0.252-1.377
		c0-0.47,0.083-0.933,0.252-1.385c0.169-0.454,0.408-0.862,0.717-1.226c0.394-0.459,0.858-0.811,1.393-1.058
		c0.534-0.245,1.103-0.368,1.708-0.368c0.596,0,1.166,0.123,1.708,0.368c0.542,0.247,1.009,0.595,1.402,1.045
		c0.31,0.353,0.55,0.756,0.718,1.215c0.169,0.456,0.253,0.924,0.253,1.408C128.145,144.727,127.821,145.597,127.174,146.356z"/>
	<path d="M145.322,138.029c-0.617-0.499-1.295-0.879-2.034-1.14c-0.737-0.26-1.496-0.391-2.277-0.391h-5.523v14.393h5.523
		c0.773,0,1.531-0.131,2.272-0.391c0.741-0.259,1.422-0.639,2.039-1.138c0.864-0.683,1.545-1.529,2.04-2.536
		c0.497-1.009,0.745-2.055,0.745-3.138c0-1.073-0.248-2.116-0.745-3.126C146.867,139.557,146.187,138.713,145.322,138.029z
		 M143.383,146.292c-0.379,0.509-0.832,0.879-1.359,1.116c-0.527,0.235-1.173,0.352-1.94,0.352h-0.854v-8.129h0.854
		c0.773,0,1.421,0.119,1.94,0.354c0.521,0.235,0.974,0.607,1.359,1.114c0.555,0.743,0.833,1.605,0.833,2.591
		C144.216,144.681,143.938,145.549,143.383,146.292z"/>
	<path d="M160.384,144.292c0,0.828-0.034,1.42-0.101,1.771c-0.067,0.352-0.206,0.671-0.417,0.959
		c-0.217,0.303-0.511,0.536-0.881,0.705c-0.367,0.171-0.764,0.253-1.186,0.253c-0.408,0-0.78-0.078-1.116-0.234
		c-0.338-0.159-0.615-0.383-0.834-0.672c-0.302-0.408-0.471-0.866-0.506-1.381c-0.022-0.302-0.031-0.77-0.031-1.401v-7.793h-3.744
		v8.3c0,1.214,0.109,2.183,0.328,2.902c0.217,0.722,0.591,1.345,1.117,1.872c0.512,0.522,1.188,0.933,2.024,1.233
		c0.836,0.304,1.715,0.452,2.635,0.452c1.962,0,3.521-0.551,4.682-1.654c0.822-0.771,1.344-1.638,1.56-2.593
		c0.141-0.597,0.211-1.336,0.211-2.213v-8.3h-3.741V144.292z"/>
	<path d="M175.223,136.194c-0.88,0-1.745,0.15-2.6,0.454c-0.854,0.301-1.622,0.729-2.305,1.286c-0.877,0.71-1.555,1.565-2.029,2.573
		c-0.476,1.005-0.711,2.082-0.711,3.233c0,1.15,0.235,2.224,0.711,3.227c0.475,1.007,1.152,1.865,2.029,2.575
		c0.683,0.555,1.448,0.982,2.299,1.286c0.85,0.302,1.708,0.454,2.573,0.454c0.569,0,1.107-0.057,1.618-0.165
		c0.51-0.11,1.103-0.297,1.776-0.564v-4.48c-0.359,0.431-0.718,0.752-1.077,0.971c-0.667,0.4-1.384,0.602-2.148,0.602
		c-0.971,0-1.813-0.294-2.53-0.877c-0.907-0.737-1.362-1.744-1.362-3.027c0-1.284,0.455-2.295,1.362-3.035
		c0.717-0.582,1.56-0.874,2.53-0.874c0.765,0,1.481,0.199,2.148,0.602c0.367,0.217,0.725,0.54,1.077,0.969v-4.48
		c-0.67-0.26-1.26-0.446-1.772-0.559C176.3,136.25,175.77,136.194,175.223,136.194z"/>
	<polygon points="180.676,139.631 183.724,139.631 183.724,150.892 187.466,150.892 187.466,139.631 190.565,139.631 
		190.565,136.499 180.676,136.499 	"/>
	<rect x="193.29" y="136.499" width="3.744" height="14.393"/>
	<path d="M214.474,138.588c-0.701-0.802-1.577-1.423-2.63-1.861c-1.049-0.44-2.179-0.659-3.388-0.659
		c-1.196,0-2.319,0.219-3.375,0.659c-1.056,0.438-1.937,1.06-2.646,1.861c-0.584,0.661-1.053,1.459-1.408,2.398
		c-0.354,0.938-0.532,1.856-0.532,2.755c0,0.903,0.174,1.813,0.521,2.738c0.349,0.925,0.825,1.727,1.43,2.41
		c0.696,0.794,1.571,1.413,2.627,1.854c1.053,0.442,2.181,0.664,3.384,0.664c1.209,0,2.339-0.222,3.388-0.657
		c1.053-0.44,1.929-1.062,2.63-1.861c0.606-0.684,1.083-1.485,1.43-2.41c0.349-0.925,0.523-1.835,0.523-2.738
		c0-0.904-0.175-1.82-0.523-2.743C215.557,140.071,215.08,139.27,214.474,138.588z M211.565,146.356
		c-0.394,0.45-0.859,0.798-1.396,1.046c-0.539,0.245-1.11,0.367-1.714,0.367c-0.605,0-1.176-0.122-1.715-0.367
		c-0.536-0.248-0.999-0.6-1.385-1.054c-0.311-0.366-0.55-0.775-0.718-1.23c-0.169-0.452-0.253-0.912-0.253-1.377
		c0-0.47,0.084-0.933,0.253-1.385c0.168-0.454,0.407-0.862,0.718-1.226c0.393-0.459,0.857-0.811,1.39-1.058
		c0.535-0.245,1.104-0.368,1.71-0.368c0.597,0,1.166,0.123,1.707,0.368c0.542,0.247,1.009,0.595,1.402,1.045
		c0.309,0.353,0.548,0.756,0.718,1.215c0.169,0.456,0.253,0.924,0.253,1.408C212.536,144.727,212.213,145.597,211.565,146.356z"/>
	<polygon points="230.506,145.304 223.621,136.499 219.878,136.499 219.878,150.892 223.621,150.892 223.621,142.077 
		230.506,150.892 234.248,150.892 234.248,136.499 230.506,136.499 	"/>
	<path d="M248.144,144.835c-0.116-0.372-0.301-0.718-0.553-1.035c-0.311-0.384-0.678-0.703-1.103-0.952
		c-0.426-0.252-1-0.479-1.724-0.694c-0.774-0.23-1.245-0.373-1.413-0.43c-0.169-0.059-0.331-0.133-0.484-0.224
		c-0.473-0.275-0.707-0.601-0.707-0.98c0-0.289,0.126-0.557,0.379-0.802c0.296-0.292,0.708-0.435,1.234-0.435
		c0.829,0,1.651,0.315,2.465,0.951l1.499-2.913c-0.724-0.38-1.476-0.669-2.25-0.868c-0.778-0.201-1.549-0.302-2.316-0.302
		c-1.545,0-2.781,0.519-3.711,1.552c-0.794,0.879-1.19,1.986-1.19,3.323c0,1.282,0.382,2.237,1.15,2.87
		c0.258,0.217,0.579,0.41,0.964,0.575c0.383,0.164,0.979,0.363,1.785,0.595c0.804,0.233,1.337,0.438,1.604,0.613
		c0.436,0.281,0.653,0.633,0.653,1.055c0,0.324-0.124,0.623-0.37,0.898c-0.294,0.346-0.779,0.517-1.454,0.517
		c-1.075,0-2.176-0.504-3.301-1.518l-1.602,3.018c0.626,0.442,1.321,0.804,2.087,1.083c0.979,0.366,1.951,0.551,2.921,0.551
		c0.858,0,1.656-0.131,2.399-0.386c0.74-0.258,1.363-0.621,1.871-1.094c0.892-0.828,1.339-2.054,1.339-3.672
		C248.317,145.642,248.259,145.209,248.144,144.835z"/>
	<path d="M65.417,114.569c-0.011-3.727-3.025-6.745-6.75-6.751c-3.729,0.007-6.746,3.024-6.751,6.751
		c0,0.878,0.173,1.708,0.479,2.481l0.689,1.734l-47.943-0.003v2.538h53.526C62.392,121.312,65.406,118.295,65.417,114.569z"/>
	<path d="M68.475,100.225c-3.344,0.009-6.097,2.443-6.638,5.632c3.307,1.205,5.737,4.229,6.065,7.869h0.573
		c3.726-0.006,6.741-3.023,6.748-6.75C75.215,103.251,72.2,100.236,68.475,100.225z"/>
	<path d="M68.472,128.065H1.395v2.532h61.491l-0.685,1.735c-0.309,0.775-0.479,1.604-0.481,2.484
		c0.003,0.938,0.198,1.829,0.544,2.641c0.143,0.332,0.318,0.644,0.514,0.941c0.062,0.1,0.121,0.198,0.188,0.295
		c0.163,0.224,0.341,0.435,0.528,0.64c1.236,1.358,2.999,2.227,4.979,2.229v0.002c3.729-0.006,6.744-3.022,6.75-6.747
		C75.215,131.089,72.2,128.071,68.472,128.065z"/>
	<path d="M50.029,111.192L8.986,111.19v2.536H49.43C49.511,112.838,49.718,111.991,50.029,111.192z"/>
	<path d="M59.255,135.854c-0.495-0.121-1.005-0.195-1.537-0.195h-39.61v2.533h34.024l-0.685,1.732
		c-0.309,0.773-0.479,1.605-0.479,2.484c0.004,3.723,3.022,6.743,6.75,6.747c3.474-0.004,6.299-2.641,6.674-6.018
		C61.611,141.773,59.613,139.066,59.255,135.854z"/>
</g>
</svg>
