<?xml version="1.0" encoding="utf-8"?>
<!-- Generator: Adobe Illustrator 16.0.4, SVG Export Plug-In . SVG Version: 6.00 Build 0)  -->
<!DOCTYPE svg PUBLIC "-//W3C//DTD SVG 1.1//EN" "http://www.w3.org/Graphics/SVG/1.1/DTD/svg11.dtd">
<svg version="1.1" id="Layer_1" xmlns="http://www.w3.org/2000/svg" xmlns:xlink="http://www.w3.org/1999/xlink" x="0px" y="0px"
	 width="250px" height="250px" viewBox="0 0 250 250" enable-background="new 0 0 250 250" xml:space="preserve">
<g>
	<path d="M201.146,127.326v-2.33h-34.088v2.33c9.072,0.736,10.791,1.963,10.791,11.036v23.788h-37.154v-23.788
		c0-8.706,1.471-10.3,10.791-11.036v-2.324h0.012v-2.33c-5.026-0.245-7.97-2.453-10.666-5.762l-25.26-31.023
		c6.254-1.226,22.193-4.169,22.193-20.601c0-18.883-20.231-21.458-31.145-21.458H72.778v2.33
		c8.583,0.858,10.423,1.962,10.423,11.036v53.095c0,9.196-0.492,11.771-10.423,12.384v2.33h33.964v-2.33
		c-9.809-0.49-11.035-2.82-11.035-11.036V87.48l6.865-0.245l29.181,37.761h-14.355v2.33c9.073,0.736,10.79,1.963,10.79,11.036
		v53.095c0,9.196-0.49,11.894-10.79,12.385v2.33h34.089v-2.33c-9.564-0.613-10.791-2.943-10.791-11.037v-25.258h37.154v23.91
		c0,9.196-0.492,11.894-10.791,12.385v2.33h34.088v-2.33c-9.564-0.613-10.79-2.943-10.79-11.037v-54.442
		C190.356,129.656,191.828,128.062,201.146,127.326z M95.707,82.943V52.779c0-3.556,1.104-4.414,7.603-4.414
		c5.028,0,21.091,0.368,21.091,16.676C124.4,82.576,106.008,82.821,95.707,82.943z"/>
	<path d="M112.316,142.787c-3.972-3.889-8.992-6.467-14.012-8.03c-7.504-2.483-14.981,0.12-22.236,2.032
		c-0.81,0.615-2.119-0.438-2.723,0.789c-3.374,1.277-6.994,2.234-10.28,3.961c-4.599,0.678-11.159,2.826-15.454-0.813
		c-1.71-0.235-2.429-5.567-4.366-2.056l-0.392,2.854c1.284,4.391,6.251,4.201,9.35,4.916c0.006,1.021-1.091,1.596-0.392,2.855
		c7.188,1.715,11.795-5.356,18.092-7.83c2.694,1.533-1.779,2.369-0.749,4.402c0.625,2.844,3.216-0.143,4.888,0.378
		c5.652-1.98,9.499-8.72,15.6-9.772c1.271-0.221,2.717-0.436,4.007-0.348c0.582,0.041,1.234,0.162,1.679,0.564
		c0.351,0.318,0.589,0.945-0.006,1.156c-0.886,0.314-1.886,0.163-2.8,0.361c-0.812,0.178-1.643,0.334-2.389,0.65
		c-0.73,0.312-1.492,0.584-2.169,1.039c-0.669,0.449-1.132,1.066-1.713,1.604c-0.517,0.477-1.139,0.911-1.522,1.508
		c-0.197,0.312-0.351,0.652-0.361,1.028c-0.006,0.163,0.318,1.04,0.311,1.056c-1.495,2.408-1.641,5.588-0.078,7.982
		c0.366,0.485,1.144,1.174,1.71,0.236c0.75-4.4,3.042-9.465,8.331-10.918c7.612-0.407,15.884,0.732,19.756,8.531
		c2.509,4.994,3.272,11.059-0.691,15.597c-2.471,3.149-6.576,4.476-10.326,3.231c-2.043-1.006-4.008-2.583-4.874-4.74
		c-0.333-1.785-0.753-4.027,1.032-5.379c0.4-0.816,1.744-1.068,2.439-0.828l-0.556,2.976c0.538,1.385,1.354,2.806,2.905,3.163
		c1.18-0.127,1.83-0.621,2.926-1.198c1.178-1.147,1.695-2.817,1.729-4.122c-0.048-1.749-1.116-3.494-2.587-4.423
		c-1.757-0.972-3.92-2.14-5.91-1.396c-3.946,1.203-5.797,5.162-6.146,8.748c0.75,3.008,1.171,6.264,3.915,8.529
		c2.984,2.59,8.078,3.582,11.776,2.055c0.648-0.491,0.89-1.182,1.87-0.904c4.22-3.194,7.376-7.123,7.509-12.338
		C119.826,153.705,116.453,147.573,112.316,142.787z"/>
</g>
</svg>
