<svg xmlns="http://www.w3.org/2000/svg" width="250" height="250" viewBox="0 0 250 250"><path d="M201.146 127.326v-2.33h-34.088v2.33c9.072.736 10.791 1.963 10.791 11.036v23.788h-37.154v-23.788c0-8.706 1.471-10.3 10.791-11.036v-2.324h.012v-2.33c-5.026-.245-7.97-2.453-10.666-5.762l-25.26-31.023c6.254-1.226 22.193-4.169 22.193-20.601 0-18.883-20.231-21.458-31.145-21.458h-33.842v2.33c8.583.858 10.423 1.962 10.423 11.036v53.095c0 9.196-.492 11.771-10.423 12.384v2.33h33.964v-2.33c-9.809-.49-11.035-2.82-11.035-11.036v-24.157l6.865-.245 29.181 37.761h-14.355v2.33c9.073.736 10.79 1.963 10.79 11.036v53.095c0 9.196-.49 11.894-10.79 12.385v2.33h34.089v-2.33c-9.564-.613-10.791-2.943-10.791-11.037v-25.258h37.154v23.91c0 9.196-.492 11.894-10.791 12.385v2.33h34.088v-2.33c-9.564-.613-10.79-2.943-10.79-11.037v-54.442c-.001-8.707 1.471-10.301 10.789-11.037zm-105.439-44.383v-30.164c0-3.556 1.104-4.414 7.603-4.414 5.028 0 21.091.368 21.091 16.676-.001 17.535-18.393 17.78-28.694 17.902zM112.316 142.787c-3.972-3.889-8.992-6.467-14.012-8.03-7.504-2.483-14.981.12-22.236 2.032-.81.615-2.119-.438-2.723.789-3.374 1.277-6.994 2.234-10.28 3.961-4.599.678-11.159 2.826-15.454-.813-1.71-.235-2.429-5.567-4.366-2.056l-.392 2.854c1.284 4.391 6.251 4.201 9.35 4.916.006 1.021-1.091 1.596-.392 2.855 7.188 1.715 11.795-5.356 18.092-7.83 2.694 1.533-1.779 2.369-.749 4.402.625 2.844 3.216-.143 4.888.378 5.652-1.98 9.499-8.72 15.6-9.772 1.271-.221 2.717-.436 4.007-.348.582.041 1.234.162 1.679.564.351.318.589.945-.006 1.156-.886.314-1.886.163-2.8.361-.812.178-1.643.334-2.389.65-.73.312-1.492.584-2.169 1.039-.669.449-1.132 1.066-1.713 1.604-.517.477-1.139.911-1.522 1.508-.197.312-.351.652-.361 1.028-.006.163.318 1.04.311 1.056-1.495 2.408-1.641 5.588-.078 7.982.366.485 1.144 1.174 1.71.236.75-4.4 3.042-9.465 8.331-10.918 7.612-.407 15.884.732 19.756 8.531 2.509 4.994 3.272 11.059-.691 15.597-2.471 3.149-6.576 4.476-10.326 3.231-2.043-1.006-4.008-2.583-4.874-4.74-.333-1.785-.753-4.027 1.032-5.379.4-.816 1.744-1.068 2.439-.828l-.556 2.976c.538 1.385 1.354 2.806 2.905 3.163 1.18-.127 1.83-.621 2.926-1.198 1.178-1.147 1.695-2.817 1.729-4.122-.048-1.749-1.116-3.494-2.587-4.423-1.757-.972-3.92-2.14-5.91-1.396-3.946 1.203-5.797 5.162-6.146 8.748.75 3.008 1.171 6.264 3.915 8.529 2.984 2.59 8.078 3.582 11.776 2.055.648-.491.89-1.182 1.87-.904 4.22-3.194 7.376-7.123 7.509-12.338.417-6.188-2.956-12.32-7.093-17.106z"/></svg>