<?xml version="1.0" encoding="utf-8"?>
<!-- Generator: Adobe Illustrator 19.1.0, SVG Export Plug-In . SVG Version: 6.00 Build 0)  -->
<svg version="1.1" id="Layer_1" xmlns="http://www.w3.org/2000/svg" xmlns:xlink="http://www.w3.org/1999/xlink" x="0px" y="0px"
	 viewBox="-270 182 250 250" style="enable-background:new -270 182 250 250;" xml:space="preserve">
<g>
	<path d="M-134.3,363.5l-2.9,0.5l0.6,3.6l3-0.5c0.7-0.1,1.2-0.4,1.6-0.8c0.3-0.4,0.4-0.8,0.3-1.4
		C-132,363.7-132.9,363.3-134.3,363.5z"/>
	<path d="M-168.1,257c1.1-0.5,1.9-1.3,2.3-2.3c0.4-1,0.3-2.1-0.2-3.2c-0.7-1.6-2.1-2.6-3.7-2.6c-0.6,0-1.3,0.1-1.9,0.4l-2,0.9
		l3.5,7.6L-168.1,257z"/>
	<path d="M-197.1,273.7c-0.4-0.2-0.7-0.3-1-0.3c-0.8,0-1.4,0.7-1.8,1.3l-1.5,2.5l3.2,1.9l1.5-2.6
		C-195.9,275.3-196.1,274.3-197.1,273.7z"/>
	<path d="M-88.3,279.5c0.3,0,0.6-0.1,0.9-0.3c0.6-0.3,0.8-0.7,0.9-1.2c0.1-0.5-0.1-1.1-0.4-1.7l-1.5-2.6l-3.2,1.8l1.5,2.6
		C-89.6,279.1-89,279.5-88.3,279.5z"/>
	<path d="M-87,249.8c-15.5-15.5-36.1-24-58-24c-21.9,0-42.5,8.5-58,24c-15.5,15.5-24,36.1-24,58c0,21.9,8.5,42.5,24,58
		c15.5,15.5,36.1,24,58,24c21.9,0,42.5-8.5,58-24c15.5-15.5,24-36.1,24-58C-63,285.9-71.5,265.3-87,249.8z M-83.8,274.8
		c1,1.7,1.3,3.3,0.9,4.7c-0.3,1.2-1.2,2.3-2.4,3c-2,1.1-4,1-5.7-0.2l-2.9,6l-2.3-3.9l2.5-5.1l-1.1-1.8l-4.1,2.4l-1.9-3.3l13.4-7.8
		L-83.8,274.8z M-92.1,262.6l-2.4,2.6l-5.8-5.5l-1.7,1.8l5.1,4.8l-2.4,2.6l-5.1-4.8l-1.7,1.8l5.9,5.5l-2.4,2.5l-8.7-8.2l10.6-11.3
		L-92.1,262.6z M-121.1,243.1l3.6,1.7l0.8,7.1l6-3.8l3.6,1.7l-6.7,13.9l-3.5-1.7l3.9-8.1l-5.8,3.5l-0.4-0.2l-0.9-6.6l-3.9,8.1
		l-3.4-1.6L-121.1,243.1z M-128,286.7c-2.3-0.2-3.7,0.7-5.8-0.4c1.1-1.6,3-0.9,4.6-1.7C-128.3,284.9-127.9,285.6-128,286.7z
		 M-130.5,293.6c-1.5-1-4.1-1.2-4.5-3.3c1.8-0.5,3.2,0.8,4.9,1.2C-130,292.5-130.4,292.9-130.5,293.6z M-129.1,280.9
		c-1.6-0.1-3.1,0.6-4.3,1.7c-0.8,0.2-0.6-0.6-1.2-0.6c0.7-2.6,3.8-3.1,5.8-2.5C-128.7,280.2-129.3,280.1-129.1,280.9z M-136.4,277.9
		c-0.2-2,2.8-4.6,5.3-4C-132,276.1-134,277.2-136.4,277.9z M-140.6,239.5l11.7,1.5l-0.4,3.5l-7.9-1l-0.3,2.4l7,0.9l-0.4,3.5l-7-0.9
		l-0.3,2.5l8,1l-0.4,3.5l-11.8-1.5L-140.6,239.5z M-138.4,271.5c-0.4,1.7-1.3,4-3.4,4.9c-0.4-1.8,1.3-3.7,1.9-5.5
		C-139.4,271-139.4,271.7-138.4,271.5z M-148.2,239.5l0.5,3.5l-7.9,1.2l0.4,2.4l6.9-1.1l0.5,3.5l-6.9,1.1l0.4,2.5l8-1.2l0.5,3.5
		l-11.8,1.8l-2.3-15.3L-148.2,239.5z M-147.1,276.9c-2.1-0.2-0.6-3.8-1.8-4.1c0-0.9,0.7-1.1,0.9-1.7c0.3,0.2,0.7,0.3,1.2,0.3
		C-146.6,273.6-145.9,275.5-147.1,276.9z M-150.7,277.4c-0.4,0.7-0.4,1.8-1.9,1.4c0.2-2.7-3.7-1.2-3-5
		C-152.6,273.7-153.3,277.1-150.7,277.4z M-160.5,277.8c1.3,1.5,4.6,1.1,4.5,3.8c-2.5-0.5-3.3-1.3-5.5-1.5c0.1-0.3-0.1-0.5-0.3-0.6
		C-161.4,278.8-161.1,278.2-160.5,277.8z M-161.7,291.9c0.6-2.2,2.6-1.3,4.9-1.9c-0.1,0.3,0.1,0.5,0.3,0.6c-0.8,1.4-2.9,1.7-4.3,2.5
		C-160.5,292.2-161.8,292.7-161.7,291.9z M-163.1,287c0.1-0.8,0.8-1,0.9-1.7c2.5,1.1,4.1-1.3,5.5,0.4
		C-157.9,287.6-161.5,288.1-163.1,287z M-173.1,246.1c1.2-0.6,2.5-0.9,3.8-0.9c3,0,5.6,1.7,6.9,4.5c1.9,4.1,0.1,8.5-4.2,10.5
		l-5.5,2.5l-6.4-14.1L-173.1,246.1z M-185.6,253.4l2.3,2.6l-5.9,5.3l1.6,1.8l5.2-4.7l2.3,2.6l-5.2,4.7l1.7,1.9l6-5.4l2.4,2.6l-8.8,8
		l-10.4-11.5L-185.6,253.4z M-196.9,344c-7.4-10.7-11.3-23.2-11.3-36.2c0-6.4,1-12.8,2.8-18.8l2.4,0.7c-1.8,5.8-2.7,11.9-2.7,18.1
		c0,12.5,3.8,24.5,10.8,34.8L-196.9,344z M-206.4,278.8l3.6-6.1c1-1.7,2.3-2.7,3.7-3.1c1.2-0.3,2.5-0.1,3.8,0.7
		c1.9,1.2,2.8,2.9,2.6,5.1l6.6-0.4l-2.3,3.9l-5.7,0.3l-1.1,1.8l4.1,2.4l-2,3.3L-206.4,278.8z M-179.8,353.3
		c-0.1-1.6-0.6-2.8-1.5-3.6c-0.7-0.7-1.7-1.1-2.7-1.1c-1.2,0-2.4,0.5-3.2,1.5c-0.8,0.9-1.3,2-1.3,3.1c0,1.1,0.4,2.1,1.2,2.9
		c1.1,1.1,2.3,1.3,3.8,1.3l0.3,0l0.1,3.5l-0.3,0c-0.3,0-0.5,0-0.7,0c-2.2,0-4-0.7-5.7-2.4c-1.6-1.5-2.5-3.5-2.5-5.6
		c0-2.1,0.8-4.1,2.2-5.6c1.6-1.7,3.6-2.6,5.8-2.6c2,0,4,0.8,5.5,2.3c1.8,1.7,2.7,3.6,2.8,5.9l0,0.3l-3.7,0.4L-179.8,353.3z
		 M-167.6,372.3l-3.5-1.7l2.6-5.4l-4.9-2.4l-2.6,5.4l-3.5-1.7l6.8-13.9l3.5,1.7l-2.6,5.3l4.9,2.4l2.6-5.3l3.5,1.7L-167.6,372.3z
		 M-145.9,369.8c-0.6,3.9-2.8,6.1-6.4,6.1c-0.4,0-0.9,0-1.4-0.1c-4.2-0.6-6.3-3.4-5.7-7.8l1.2-8.7l3.8,0.5l-1.2,8.6
		c-0.3,2.2,0.5,3.5,2.4,3.8c1.9,0.3,3-0.7,3.3-2.8l1.2-8.7l3.8,0.5L-145.9,369.8z M-141.7,344.1h-6.5l0.1-15.4l-0.6-14l0.3-12.2
		l-18.9,0v-5l7.6,0.4l11.1-0.6l0.5-5.2l-0.3-9.3l1.2-0.5h4.7l0,15l6.5,0.6l13.1-0.3v5.2l-19.3-0.2l0.5,22.9V344.1z M-130.1,374.9
		l-3.9-4.2l-2.1,0.3l0.8,4.7l-3.8,0.6l-2.5-15.3l7-1.1c1.9-0.3,3.5,0,4.7,0.8c1,0.7,1.7,1.9,1.9,3.3c0.4,2.2-0.4,4.1-2.2,5.2
		l4.6,4.8L-130.1,374.9z M-109.2,364.2c-0.8,2.5-2.1,4.1-4.5,5.2c-1.1,0.5-2.3,0.8-3.5,0.8c-3,0-5.7-1.7-7.1-4.5
		c-2-4.1-0.4-8.7,3.8-10.7c1.3-0.6,2.6-1,3.8-1c0.9,0,1.7,0.2,2.7,0.5l0.3,0.1l-1,3.6l-0.3-0.1c-1.6-0.5-2.8-0.4-3.9,0.1
		c-2.1,1-2.8,3.4-1.7,5.6c0.8,1.6,2.3,2.6,3.8,2.6c0.6,0,1.1-0.1,1.7-0.4c1.4-0.7,2-1.7,2.6-3.1l0.1-0.3l3.3,1.2L-109.2,364.2z
		 M-95.6,356l-4.1-4.4l-4,3.7l4.1,4.4l-2.8,2.6l-10.6-11.3l2.8-2.6l4,4.3l4-3.7l-4-4.3l2.8-2.6l10.6,11.3L-95.6,356z M-92.7,343.2
		l-2.1-1.4c6.7-10.1,10.3-21.8,10.3-34c0-5.3-0.7-10.6-2-15.7l2.4-0.6c1.4,5.3,2.1,10.8,2.1,16.3C-82,320.5-85.7,332.7-92.7,343.2z"
		/>
</g>
</svg>
