<svg xmlns="http://www.w3.org/2000/svg" width="250" height="250" viewBox="0 0 250 250"><path fill-rule="evenodd" clip-rule="evenodd" d="M173.443 53.269c0-.639-.027-1.271-.05-1.905-.084-2.315-1.939-4.178-4.26-4.26-.637-.031-1.271-.053-1.905-.053-22.171 0-40.925 14.864-46.862 35.137-5.713-15.404-20.56-26.416-37.928-26.416-.532 0-1.06.017-1.584.035-2.311.092-4.167 1.949-4.261 4.258-.019.532-.037 1.053-.037 1.583 0 21.586 17.018 39.22 38.332 40.328v65.28c-16.075-7.309-34.827 2.481-37.957 17.007-1.014 4.729 1.093 9.844 3.048 12.188 11.007 13.135 30.684 4.529 41.715-9.599 4.9-6.264 3.625-14.391 3.625-27.819v-39.949c6.777 5.037 13.428 14.871 16.165 23.875 1.699 5.589-.565 14.887-2.363 19.632-.547 1.431-2.053 2.631-1.353 4.058 4.748 3.531 7.089-3.965 8.454-7.101 1.474-3.398 2.89-7.601 3.387-10.504 4.388-25.634-13.089-32.321-20.909-47.188 25.013-2.093 44.743-23.046 44.743-48.587zm-63.791 34.975s-8.016-11.919-23.576-21.562c-.587-.365-1.298-1-1.007-1.61.291-.606 1.012-.6 1.649-.323 12.911 5.739 22.438 21.314 22.842 21.972.997 1.628.092 1.523.092 1.523zm21.116-.032c-.333.521-.895.805-1.469.805 0 0-1.258.095.219-2.18.597-.92 14.677-22.67 32.846-30.097.895-.36 1.909.063 2.271.954.368.892-.061 1.909-.954 2.275-17.158 7.013-32.775 28.027-32.913 28.243z"/></svg>