<?xml version="1.0" encoding="utf-8"?>
<!-- Generator: Adobe Illustrator 16.0.4, SVG Export Plug-In . SVG Version: 6.00 Build 0)  -->
<!DOCTYPE svg PUBLIC "-//W3C//DTD SVG 1.1//EN" "http://www.w3.org/Graphics/SVG/1.1/DTD/svg11.dtd">
<svg version="1.1" id="Layer_1" xmlns="http://www.w3.org/2000/svg" xmlns:xlink="http://www.w3.org/1999/xlink" x="0px" y="0px"
	 width="250px" height="250px" viewBox="0 0 250 250" enable-background="new 0 0 250 250" xml:space="preserve">
<path fill-rule="evenodd" clip-rule="evenodd" d="M173.443,53.269c0-0.639-0.027-1.271-0.05-1.905
	c-0.084-2.315-1.939-4.178-4.26-4.26c-0.637-0.031-1.271-0.053-1.905-0.053c-22.171,0-40.925,14.864-46.862,35.137
	c-5.713-15.404-20.56-26.416-37.928-26.416c-0.532,0-1.06,0.017-1.584,0.035c-2.311,0.092-4.167,1.949-4.261,4.258
	c-0.019,0.532-0.037,1.053-0.037,1.583c0,21.586,17.018,39.22,38.332,40.328v11.683c0,30.133,0,53.597,0,53.597
	c-16.075-7.309-34.827,2.481-37.957,17.007c-1.014,4.729,1.093,9.844,3.048,12.188c11.007,13.135,30.684,4.529,41.715-9.599
	c4.9-6.264,3.625-14.391,3.625-27.819c0-18.229,0-21.812,0-39.949c6.777,5.037,13.428,14.871,16.165,23.875
	c1.699,5.589-0.565,14.887-2.363,19.632c-0.547,1.431-2.053,2.631-1.353,4.058c4.748,3.531,7.089-3.965,8.454-7.101
	c1.474-3.398,2.89-7.601,3.387-10.504c4.388-25.634-13.089-32.321-20.909-47.188C153.713,99.763,173.443,78.81,173.443,53.269z
	 M109.652,88.244c0,0-8.016-11.919-23.576-21.562c-0.587-0.365-1.298-1-1.007-1.61c0.291-0.606,1.012-0.6,1.649-0.323
	c12.911,5.739,22.438,21.314,22.842,21.972C110.557,88.349,109.652,88.244,109.652,88.244z M130.768,88.212
	c-0.333,0.521-0.895,0.805-1.469,0.805c0,0-1.258,0.095,0.219-2.18c0.597-0.92,14.677-22.67,32.846-30.097
	c0.895-0.36,1.909,0.063,2.271,0.954c0.368,0.892-0.061,1.909-0.954,2.275C146.523,66.982,130.906,87.996,130.768,88.212z"/>
</svg>
