<?xml version="1.0" encoding="utf-8"?>
<!-- Generator: Adobe Illustrator 19.1.0, SVG Export Plug-In . SVG Version: 6.00 Build 0)  -->
<svg version="1.1" id="Layer_1" xmlns="http://www.w3.org/2000/svg" xmlns:xlink="http://www.w3.org/1999/xlink" x="0px" y="0px"
	 viewBox="-270 182 250 250" style="enable-background:new -270 182 250 250;" xml:space="preserve">
<style type="text/css">
	.st0{fill:none;}
</style>
<path d="M-221.5,234.5v153h153v-153H-221.5z M-180.8,294.3c-0.9,0-1.8,0.1-2.7,0c-1.1-0.1-1.3,0.3-1.3,1.3c0,8.3,0,16.6,0,24.9
	c0,5.6,0,11.1,0,16.7c0,1.3-0.4,1.6-1.6,1.5c-3.1-0.1-6.3-0.1-9.4,0c-1.2,0-1.5-0.4-1.5-1.5c0-13.7,0-27.4,0.1-41.1
	c0-1.4-0.3-1.9-1.8-1.8c-3.5,0.1-7,0-10.4,0.1c-1,0-1.4-0.2-1.4-1.3c0.1-3,0-6,0-8.9c0-0.8,0.1-1.2,1-1.2c13.4,0,26.8,0,40.2,0
	c0.2,0,0.3,0,0.9,0.2c-2.7,1.7-5.1,3.4-7,5.6c-1.3,1.5-2.7,3-3.6,4.7C-179.7,294.2-180.1,294.4-180.8,294.3z M-129,332.9
	c-6.8,4.6-14.2,6.9-22.4,6.6c-7.1-0.3-13.5-2.3-18.8-7.1c-6.9-6.2-9.7-14.3-9.1-23.4c0.7-10.6,5.9-18.6,15.2-23.6
	c6.1-3.3,12.7-4,19.5-3c3.8,0.5,7.4,1.5,10.7,3.4c1.7,1,3.3,2.1,4.9,3.3c0.5,0.4,0.6,0.8,0.1,1.3c-2.2,2.6-4.3,5.2-6.4,7.8
	c-0.5,0.6-0.9,0.7-1.5,0.2c-3.8-3.2-8.2-5-13.2-5c-5.2-0.1-9.4,2.1-12.7,6.1c-4.4,5.5-5,14.4-1.6,20.6c3.6,6.6,11.2,9.5,18.3,8.2
	c2.4-0.4,4.7-1.3,6.9-2.3c0.7-0.3,1-0.8,1-1.6c0-2-0.1-4,0-6c0-0.9-0.3-1.2-1.2-1.2c-3.3,0-6.6,0-9.8,0c-1,0-1.3-0.3-1.3-1.2
	c0.1-2.7,0.1-5.5,0-8.2c0-0.9,0.3-1.1,1.1-1.1c2.2,0,4.5,0,6.8,0c2.1,0,4.2,0,6.3,0c1.1,0,1.5,0.1,1.4,1.4
	c-0.6,8.4,1.3,16.2,6.3,23.1C-127.8,332.1-128.3,332.5-129,332.9z M-79.9,330.4c-5.3,5.4-11.5,8.7-19.1,9c-1,0.1-1.9,0.1-2.8,0.1
	c-10.9,0.1-19.3-4.5-25-13.8c-3.4-5.6-4.3-11.9-3.6-18.4c1.1-9.8,6-17.2,14.7-21.9c6.6-3.6,13.7-4.2,21.1-2.8c5.4,1,10,3.4,14,7.1
	c0.7,0.7,0.9,1.1,0.2,1.9c-2.2,2.4-4.3,4.9-6.4,7.4c-0.5,0.6-0.7,0.4-1.2,0c-2.9-2.4-6.1-4.4-9.8-5.3c-8.9-1.9-17.2,3.4-19.3,12.2
	c-1.6,7.1-0.2,13.3,5.1,18.4c4.8,4.5,13,5.3,18.7,2c2-1.1,4-2.4,5.7-4c0.3-0.3,0.5-0.6,1.1-0.1c2.2,2.3,4.5,4.6,6.8,6.8
	C-79.1,329.6-79.5,330-79.9,330.4z"/>
<path class="st0" d="M-491.5,406.6h153v153h-153V406.6z"/>
</svg>
