<?xml version="1.0" encoding="utf-8"?>
<!-- Generator: Adobe Illustrator 19.1.0, SVG Export Plug-In . SVG Version: 6.00 Build 0)  -->
<svg version="1.1" id="Layer_1" xmlns="http://www.w3.org/2000/svg" xmlns:xlink="http://www.w3.org/1999/xlink" x="0px" y="0px"
	 viewBox="-270 182 250 250" style="enable-background:new -270 182 250 250;" xml:space="preserve">
<style type="text/css">
	.st0{fill:#231F20;}
</style>
<g>
	<path class="st0" d="M-183.2,300.8h5l-2.5-12.3L-183.2,300.8z M-157,322.9h-0.3v2.6h0.3c0.9,0,1.8-0.2,1.8-1.3
		S-156.1,322.9-157,322.9z M-144.8,237.5c-38.6,0-69.8,31.3-69.8,69.8s31.3,69.8,69.8,69.8S-75,345.9-75,307.3
		S-106.3,237.5-144.8,237.5z M-176.3,309.9l-1.3-6.3h-6.2l-1.3,6.3h-3.4l6.2-26.7h3.1l6.2,26.7H-176.3z M-164.5,324.3
		c-0.5-0.7-1.4-1.1-2.3-1.1c-1.6,0-2.7,1.2-2.7,2.8c0,1.6,1.1,2.8,2.8,2.8c0.9,0,1.7-0.4,2.3-1.1v3.2c-0.9,0.3-1.5,0.5-2.3,0.5
		c-1.4,0-2.8-0.5-3.8-1.5c-1.1-1-1.6-2.3-1.6-3.9c0-1.4,0.5-2.7,1.5-3.7c1-1,2.5-1.7,3.9-1.7c0.9,0,1.6,0.2,2.4,0.5
		C-164.5,321.1-164.5,324.3-164.5,324.3z M-161.8,309.9h-3.2v-23.8h-4.5v-2.9h12.2v2.9h-4.5C-161.8,286.1-161.8,309.9-161.8,309.9z
		 M-154.7,331.1l-2.5-3.9h0v3.9h-2.7v-10.2h4c2,0,3.6,1,3.6,3.1c0,1.4-0.8,2.6-2.2,2.9l3.2,4.2L-154.7,331.1L-154.7,331.1z
		 M-141.9,323.1h-3.2v1.7h3v2.3h-3v1.8h3.2v2.3h-5.8v-10.2h5.8V323.1z M-138.4,309.9h-3.2v-12.1h-5.9v12.1h-3.2v-26.7h3.2v11.7h5.9
		v-11.7h3.2V309.9z M-131.5,323.1h-3.2v1.7h3v2.3h-3v1.8h3.2v2.3h-5.8v-10.2h5.8V323.1z M-130.9,283.2h10.3v2.9h-7.1v9h6.1v2.9h-6.1
		v9.1h7.1v2.9h-10.3L-130.9,283.2L-130.9,283.2z M-120.8,331.1l-3.4-4.4h0v4.4h-2.7v-10.2h2.7v4.2h0l3.2-4.2h3.3l-4.1,4.8l4.4,5.4
		H-120.8z M-106.2,299.1v10.8h-3.2v-10.8l-4.9-15.9h3.5l3,11.4l3-11.4h3.6L-106.2,299.1z"/>
</g>
</svg>
