<svg xmlns="http://www.w3.org/2000/svg" width="250" height="250" viewBox="0 0 250 250"><path fill-rule="evenodd" clip-rule="evenodd" d="M125.952 172.111c-20.602 0-38.109-13.109-44.6-31.409h89.199c1.752-4.904 2.7-10.194 2.7-15.704 0-5.505-.948-10.794-2.7-15.7h-89.19999999999999c6.491-18.299 23.999-31.409 44.601-31.409s38.119 13.106 44.599 31.409h32.664c-7.318-35.844-39.125-62.814-77.263-62.814-38.142 0-69.951 26.975-77.254 62.814h-.01c-.222 1.101-.411 2.214-.587 3.331l-.077.437c-.114.752-.196 1.515-.29 2.273-.069.561-.155 1.116-.212 1.68-.042.418-.061.843-.096 1.262-.077.899-.159 1.796-.205 2.704-.067 1.329-.102 2.667-.102 4.013 0 1.347.035 2.686.102 4.016.041.819.119 1.63.185 2.443.042.508.065 1.021.117 1.526.05.498.127.988.187 1.484.1.826.191 1.654.315 2.473l.049.277c.182 1.17.382 2.333.614 3.484h.01c7.304 35.841 39.112 62.813 77.253 62.813 38.138 0 69.945-26.971 77.263-62.813h-32.664c-6.48 18.303-23.996 31.41-44.598 31.41z"/></svg>