<svg xmlns="http://www.w3.org/2000/svg" width="250" height="250" viewBox="0 0 250 250"><path d="M178.78 95.285c-3.019-8.126-7.201-14.897-12.557-20.316-5.355-5.416-11.697-9.482-19.021-12.192-7.325-2.707-15.233-4.072-23.729-4.072h-56.778v132.281h38.445v-59.669h-5.72v-10.609c0-.909.356-1.646 1.265-1.646h31.516c.909 0 2.025.737 2.025 1.646v10.609h-5.719v59.547c8.337-.456 14.891-2.255 21.28-5.161 7.446-3.385 13.666-8.238 18.65-14.148 4.988-5.909 8.709-12.927 11.173-21.052 2.461-8.126 3.693-16.99 3.693-26.593.002-10.957-1.506-20.499-4.523-28.625zM111.555 131.698h4.111v59.598h-4.111z"/></svg>