<?xml version="1.0" encoding="utf-8"?>
<!-- Generator: Adobe Illustrator 19.1.0, SVG Export Plug-In . SVG Version: 6.00 Build 0)  -->
<svg version="1.1" id="Layer_1" xmlns="http://www.w3.org/2000/svg" xmlns:xlink="http://www.w3.org/1999/xlink" x="0px" y="0px"
	 viewBox="-270 182 250 250" style="enable-background:new -270 182 250 250;" xml:space="preserve">
<style type="text/css">
	.st0{fill:#231F20;}
</style>
<path class="st0" d="M-184.8,247.3c-11,0-20,9-20,20V348c0,11,9,20,20,20h80.7c11,0,20-9,20-20v-80.7c0-11-9-20-20-20H-184.8z
	 M-121.5,345.3H-133v-20.5c-3.3,2.8-8.7,4.2-14.1,4.2c-7.1,0-13.2-2.6-18.5-7.8c-5.3-5.2-7.9-12-7.9-20.3c0-8.3,2.8-15.2,8.4-20.6
	c5.6-5.5,12.3-8.2,20.2-8.2c7.9,0,14.7,2.6,20.5,7.8l-6.3,9.7c-4-3.8-8.5-5.7-13.3-5.7c-4.9,0-8.9,1.5-12,4.6
	c-3.2,3-4.8,7.2-4.8,12.4c0,5.2,1.5,9.3,4.6,12.3c3,3,6.5,4.5,10.9,4.5c5.4,0,9-1.9,12.3-5.8v-10.6h11.4V345.3z"/>
</svg>
