<?xml version="1.0" encoding="utf-8"?>
<!-- Generator: Adobe Illustrator 19.1.0, SVG Export Plug-In . SVG Version: 6.00 Build 0)  -->
<svg version="1.1" id="Layer_1" xmlns="http://www.w3.org/2000/svg" xmlns:xlink="http://www.w3.org/1999/xlink" x="0px" y="0px"
	 viewBox="-270 182 250 250" style="enable-background:new -270 182 250 250;" xml:space="preserve">
<style type="text/css">
	.st0{fill:#231F20;}
	.st1{fill-rule:evenodd;clip-rule:evenodd;fill:#231F20;}
</style>
<g>
	<path class="st0" d="M-83.3,368.7h-123.3V245.3h123.3V368.7z M-193.3,355.3h96.7v-96.7h-96.7V355.3z"/>
</g>
<path class="st1" d="M-112.3,282.2c-0.3-0.3-0.7-0.4-1.2-0.4h-22.6h-10.1h-0.3c-0.4,0-0.7,0.2-0.9,0.4c-0.3,0.3-0.4,0.7-0.4,1.1
	v16.3H-165l0-16.4c0-0.4-0.2-0.8-0.5-1.1c-0.4-0.3-0.7-0.4-1.1-0.4h-10.2c-0.4,0-0.8,0.2-1.1,0.5c-0.3,0.3-0.4,0.7-0.4,1.1l0,48.4
	c0,0.9,0.5,1.3,1.5,1.3h10.1c0.5,0,0.9-0.1,1.3-0.4c0.3-0.3,0.5-0.6,0.5-1.1v-19.6h17.1v19.7c0,0.9,0.4,1.3,1.2,1.4h0.4h10.1h0.1
	c0.5,0,0.9-0.1,1.2-0.4s0.4-0.6,0.4-1.1v-15.8h15.4c0.5,0,0.8-0.2,1.1-0.5c0.3-0.4,0.4-0.7,0.4-1.1v-8.2c0-0.5-0.1-0.9-0.4-1.2
	c-0.3-0.2-0.7-0.4-1.1-0.4h-15.4v-10.7h20.9c0.5,0,0.9-0.2,1.2-0.5s0.4-0.7,0.4-1.1v-8.6C-112,282.9-112.1,282.5-112.3,282.2z"/>
</svg>
