<?xml version="1.0" encoding="utf-8"?>
<!-- Generator: Adobe Illustrator 19.1.0, SVG Export Plug-In . SVG Version: 6.00 Build 0)  -->
<svg version="1.1" id="Layer_1" xmlns="http://www.w3.org/2000/svg" xmlns:xlink="http://www.w3.org/1999/xlink" x="0px" y="0px"
	 viewBox="-270 182 250 250" style="enable-background:new -270 182 250 250;" xml:space="preserve">
<style type="text/css">
	.st0{clip-path:url(#SVGID_2_);fill:#231F20;}
</style>
<g>
	<defs>
		<path id="SVGID_1_" d="M-149.8,273.5C-149.8,273.5-149.8,273.5-149.8,273.5C-149.8,273.5-149.8,273.4-149.8,273.5
			C-149.7,273.5-149.7,273.5-149.8,273.5C-149.7,273.5-149.8,273.5-149.8,273.5z M-147.2,360.1C-147.2,360.1-147.1,360-147.2,360.1
			c-0.6,0.6-1.2,1.2-2.2,1.6c0.2-0.7,0.3-1.4,1.2-1.2C-147.7,360.6-147.5,360.2-147.2,360.1z M-241.9,285.1c0.8-0.2,1.5,0,2.2-0.1
			c0.1,0,0.2,0,0.2,0c0.1,0.1,0.1,0.3,0.2,0.4c-0.1,0-0.2,0-0.3-0.1c-0.6-0.1-1.1,0.4-1.7,0.3C-241.6,285.6-241.7,285.5-241.9,285.1
			z M-45.3,348.2c-1-0.1-1.9,0.3-2.8-0.2c-0.2-0.2-0.6,0.4-1,0.3c-0.2,0-0.5,0.1-0.6-0.2c0-0.4,0.3-0.2,0.5-0.2
			c1.1,0,2.2,0.1,3.3-0.1C-45.6,347.8-45.5,347.9-45.3,348.2z M-108.3,354.5c0.7-0.2,1.3-0.2,2,0c-1.5,0.2-0.6,1.5-1.1,2.3
			C-107.8,356-107.2,354.9-108.3,354.5z M-210.9,285c-0.1,0.5-0.5,0.6-0.8,0.6c-0.9-0.1-1.9-0.1-2.8,0.1c-0.3,0.1-0.4-0.2-0.5-0.3
			c-0.1-0.4,0.2-0.3,0.4-0.3C-213.4,285-212.2,284.8-210.9,285z M-37.2,348.3h-7.7c0-0.1,0-0.1,0-0.2
			C-42.3,347.8-39.7,348.1-37.2,348.3z M-102.9,355.5c-0.1,0.4,0.2,1.1-0.2,1.2c-0.6,0.1-0.2-0.6-0.4-0.9c-0.2-0.4-0.4-0.2-0.5-0.1
			c-0.3,0.4-0.5,0.3-0.8,0c-0.1-0.2-0.2-0.4-0.5-0.2c-0.2,0.1-0.1,0.3-0.1,0.5c0,0.2,0,0.3,0,0.5c0,0.2,0,0.4-0.3,0.3
			c-0.2,0-0.2-0.2-0.2-0.3c0-0.5,0-1.1,0-1.6c0-0.1,0-0.3,0.2-0.4c0.2-0.1,0.3,0,0.4,0.1c0.1,0.2,0.3,0.3,0.4,0.4
			c0.3,0.4,0.5,0.4,0.9,0c0.2-0.3,0.5-0.8,0.9-0.6C-102.7,354.6-103,355.2-102.9,355.5z M-49.8,285c1.5,0.3,3-0.1,4.5,0.1
			c1.3,0.2,2.6-0.2,4-0.1c1.4,0.1,2.8,0.1,4.1,0c0.7,0,1.3,0.2,1.9,0.3c0.1,0,0.3,0.1,0.3,0.2c0,0.2-0.1,0.2-0.3,0.2
			c-0.7,0-1.4,0.3-2-0.1c-0.4-0.3-0.6,0.2-1,0.2c-2.7-0.1-5.5,0-8.3-0.1c-1.1,0-2.2,0-3.3,0c-0.5,0-0.7-0.1-0.7-0.5
			C-50.5,284.8-50.1,285-49.8,285z M-217,285.7c-0.3,0-0.6,0-0.8-0.2c-0.3-0.3-0.4-0.3-0.8,0c-0.4,0.4-1.1,0.1-1.7,0.1
			c-0.9,0-1.7,0-2.6,0c-0.3,0-0.8,0.3-0.9-0.4c0-0.2-0.4-0.1-0.5,0c-0.8,0.6-1.7,0.2-2.5,0.2c-1,0-1.9,0.2-2.9,0.2
			c-1.6,0-3.1,0.2-4.7,0c-0.5-0.1-1,0-1.5,0c-0.6,0-1.1-0.2-1.7,0c-0.2,0.1-0.7,0-0.7-0.4c0-0.5,0.3-0.3,0.6-0.3
			c2.4,0,4.8,0,7.1,0.1c1.5,0,3,0.1,4.4,0.1c2.3-0.1,4.7,0,7-0.2c0.9-0.1,1.9-0.2,2.8,0c0.2,0,0.5-0.1,0.4,0.3
			c0,0.2-0.1,0.4-0.4,0.4C-216.4,285.6-216.7,285.6-217,285.7z M-246.9,350.3c2.2-0.3,4.4-0.2,6.5-0.3c3.7-0.1,7.4,0.1,11.1,0
			c2.1-0.1,4.2,0.1,6.3,0.1c0.6,0,0.4,0.4,0.5,0.7c0.1,0.5-0.3,0.4-0.5,0.4c-2.8-0.3-5.7-0.1-8.5,0c-2.9,0.1-5.7-0.1-8.6-0.1
			c-1,0-2.1,0.2-3.1,0C-244.4,350.8-245.6,350.4-246.9,350.3z M-202.1,350.3c0,0.9-0.6,0.9-1.2,0.9c-1.5-0.1-3.1-0.2-4.6-0.1
			c-2.1,0-4.2,0.1-6.3,0.1c-2.2,0.1-4.5,0.1-6.7,0.1c-0.1,0-0.3,0-0.4,0c-0.5,0-0.7-0.5-0.8-0.9c0-0.5,0.5-0.2,0.7-0.3
			c4.4-0.1,8.8,0,13.2,0.1c1.8,0,3.5,0,5.3,0.1c1.8,0.1,3.6-0.1,5.4-0.1c0.6,0,1.3,0,1.9,0c0.2,0,0.7-0.1,0.6,0.3
			c0,0.3-0.3,0.6-0.6,0.6c-1.2,0-2.3,0-3.5-0.1c-0.2,0-0.4,0-0.6,0C-200.5,351.1-201.5,351.3-202.1,350.3z M-159.2,282.5
			c-0.5,0-1.3-0.8-1.6-1.6c-0.2-0.8,0.2-1.4,0.7-1.8c0.8-0.7,1.7-1.2,2.6-1.5c1-0.4,1.7-1.2,2.7-1.6c1-0.4,2-1,2.9-1.6
			c0.5-0.4,0.9-0.3,1.3,0.1c0.5,0.5,0.9,1,1.7,1.1c0.3,0,0.4,0.3,0.5,0.5c0,0.2-0.3,0.2-0.4,0.3c-0.2,0.1-0.4,0.3-0.6,0.4
			c-0.5,0.4-1,0.9-1.7,0.9c-0.2,0-0.5,0.2-0.6,0.4c-0.4,0.9-1.4,1.2-2.1,1.8c-0.7,0.6-1.5,1-2.2,1.5
			C-157,281.9-158,282.4-159.2,282.5z M-202.4,282.3c-0.7-0.1-1.2,0.4-1.9,0.4c-2.1-0.1-4.3,0.4-6.3-0.2c-0.8-0.3-1.2,0.6-1.9,0.3
			c-0.2-0.1-0.5,0.1-0.5-0.3c0-0.2-0.2-0.2-0.4-0.1c-0.7,0.5-1,0.6-1.9,0.2c-0.3-0.1-0.4,0.5-0.9,0.3c-1-0.6-2.2,0.4-3.3-0.2
			c-2.9,0.6-5.8,0.1-8.7,0.2c-3,0.1-6,0.2-9,0.2c-1.9,0-3.8-0.1-5.6-0.2c-0.9-0.1-1.7,0.2-2.5,0.2c-0.6,0-1.2-0.7-1.9,0
			c0,0-0.7-0.1-1.1-0.1c-0.4,0-0.7,0-1.1,0c0.1,0.2,0.3,0.3,0.4,0.2c1.6-0.9,3.4-0.8,5.1-1.1c0.5-0.1,0.5,0.4,0.8,0.8
			c0.1-0.7,0.4-0.7,0.9-0.7c1.1-0.1,2.1,0,3.2,0c2.6,0,5.3,0.1,7.9,0.1c0.8,0,1.5,0,2.3,0c1.5,0.1,2.9-0.2,4.3-0.2
			c1.4,0.1,2.8-0.1,4.1,0c1.3,0,2.6-0.3,3.9-0.3c1.4,0,2.8,0,4.3,0c1.4,0,2.9,0,4.3-0.1c2.3,0,4.7-0.1,7-0.1c0.5,0,0.9,0.3,1.4,0.1
			c-0.4,1.1-0.4,1.1-1.4,0.6c-0.4-0.2-1,0.2-1.3-0.2c0-0.2-0.2-0.3-0.3-0.2C-202.6,282-202.5,282.1-202.4,282.3z M-146.2,357.1
			c0,0.2,0.1,0.3,0.2,0.2c0.3-0.2,0.6-0.3,0.7-0.6c0.1-0.1-0.1-0.2-0.3-0.2C-145.9,356.6-146,356.9-146.2,357.1z M-194.2,350.4
			c-0.2,0.2-0.4,0.3-0.2,0.6c0.1,0.1,0.2,0.2,0.3,0.1c0.4-0.3,1.1,0,1.4-0.7c-0.4-0.1-0.8-0.4-1.2,0.1
			C-194,350.6-194.3,350.7-194.2,350.4L-194.2,350.4C-194.2,350.4-194.3,350.4-194.2,350.4L-194.2,350.4z M-142.6,353.8
			c-0.3,0-0.6,0-0.5,0.4c0,0.3,0.2,0.6,0.5,0.5c0.2-0.1,0.5-0.2,0.6-0.6C-141.9,353.6-142.4,354-142.6,353.8z M-144.6,350.7
			c0.6-0.1,0.8-0.4,0.9-0.9c0-0.1-0.1-0.4-0.3-0.3c-0.4,0.2-0.8,0.6-0.9,1C-144.9,350.7-144.7,350.7-144.6,350.7z M-148.7,359.7
			c0.3-1.1,0.7-2.1,1-3.2c0.3-0.9-0.5-1.1-1.1-1.4c-1.3-0.7-2.3-1.8-3.5-2.5c0-0.1,0.1-0.1,0.1-0.2c1.7,0,3.4,0,5,0
			c0.6,0,0.9-0.1,1.2-0.7c0.6-1.5,0.9-3.2,1.5-4.7c0-0.1,0.1-0.1,0.1-0.2c0.6,0.7,0.4,1.9,1.3,2.4c-0.3,0.9,0.3,1.7,0.5,2.5
			c0.1,0.5,0.4,0.7,0.9,0.7c1.7,0,3.4,0,5.4,0c-0.9,0.7-1.7,1.3-2.5,1.8c-0.8,0.5-1.4,1.1-2.1,1.6c-0.4,0.3-0.2,0.5-0.1,0.8
			c0.5,1.4,0.9,2.9,1.4,4.3c0.1,0.2,0.1,0.4,0.1,0.8c-0.7-0.8-1.8-1.1-2.2-2c-0.2-0.4-0.7-0.1-1-0.4c-1.6-1.2-1.6-1.2-3.2,0
			c-0.3,0.2-0.7,0.4-1.1,0.7c0,0-0.1,0-0.1,0C-147.4,359.4-147.8,359.3-148.7,359.7z M-138.2,277c-0.1,0-0.2,0.1-0.2,0.3
			c0,0.1,0.1,0.2,0.1,0.2c0.2,0,0.2-0.1,0.3-0.3C-137.9,277.1-137.9,277-138.2,277z M-138.9,275.1c2.4,1.2,4.7,2.4,7.1,3.7
			c0.3,0.2,0.7,0.4,1,0.5c0.9,0.3,0.8,1.1,0.8,1.7c0.1,0.4-1.2,1-1.8,0.8c-0.4-0.1-1-0.1-0.9-0.8c0.1-0.4-0.3-0.5-0.6-0.6
			c-1.4-0.7-2.8-1.3-4.1-2.1c-1-0.7-2-1.4-3-2.1c-0.5-0.4-0.9-0.3-1.3,0.2c-0.4,0.5-0.5,1.4-1.2,1.4c-0.5,0-1.1-0.6-1.6-0.9
			c-1.5-0.8-3-1.7-4.4-2.7c-0.3-0.2-0.5-0.4-0.4-0.7c0.1-0.6-0.6-0.6-0.8-1c0,0-0.2,0-0.2,0c-0.2,0.2,0,0.4,0.1,0.8
			c-3.3-1.9-6.5-3.9-8.6-7.2c1.3,0.5,2.7,0.6,3.9,1.2c0.9,0.5,1.9,0.8,2.8,1.1c0.8,0.4,1.6,0.9,2.4,1.2c0.9,0.3,1.7,0.8,2.6,1.2
			c2,1.1,4.1,2.1,6.1,3.3c0.2,0.1,0.4,0.1,0.6,0.2c0.2,0.1,0.4,0.2,0.2,0.5c-0.6,0.9-0.1,0.7,0.5,0.6c0.1,0,0.1,0.1,0.2,0.1
			c0,0.1,0,0.3-0.1,0.4c0,0.1-0.2,0.3,0,0.4c0.1,0.1,0.3,0,0.4,0c0.2,0,0.2-0.2,0.2-0.4c0-0.4-0.2-0.4-0.5-0.4
			C-139.2,275.4-139.5,274.8-138.9,275.1z M-137.2,266.2c-0.1-0.2,0-0.4-0.3-0.4c-0.2,0-0.3,0.2-0.3,0.4c0,0.2,0.1,0.4,0.3,0.4
			C-137.3,266.6-137.2,266.4-137.2,266.2z M-138.5,270.5c0.7-0.1,1.5-0.2,2.2-0.2c0.2,0,0.5-0.1,0.5-0.4c0-0.3-0.3-0.2-0.5-0.2
			c-0.7,0.1-1.5,0.1-2.2,0.3c-0.4,0.1-1.1,0-1.1,0.3C-139.6,270.8-138.9,270.4-138.5,270.5z M-137.9,265.5c0.3-0.2,0.7,0,0.8-0.4
			c0.1-0.2,0.1-0.5-0.1-0.7c-0.3-0.3-0.6-0.2-0.9-0.2c-0.3,0.1-0.3,0.9-0.9,0.4c0,0-0.2,0-0.1,0.1c0.1,0.4,0.2,0.7,0.2,1.2
			c0,0.1,0.3,0.2,0.4,0C-138.6,265.4-138.4,265.2-137.9,265.5z M-138,266.9c-0.5-0.2-0.8,0.1-1.1,0.1c-0.2,0-0.4,0-0.4,0.2
			c0,0.3,0.3,0.2,0.4,0.2c1.3,0.1,2.7-0.2,4-0.4c0.2,0,0.3-0.1,0.3-0.3c0-0.3-0.2-0.2-0.4-0.2C-136.1,266.7-137.2,266.7-138,266.9z
			 M-137.6,268.3c-1.2,0-2,0.2-2.7,0.4c-0.2,0-0.3,0.1-0.2,0.3c0,0.1,0.2,0.1,0.3,0.1c0.7,0,1.3,0.1,2,0c0.8,0,1.5-0.8,2.3,0
			c0,0,0.2,0,0.2-0.1c0.5-0.7,1.2-0.6,1.9-0.6c0.2,0,0.5,0.1,0.4-0.2c0-0.2-0.2-0.3-0.4-0.3c-0.1,0-0.3,0-0.4,0
			C-135.6,268.1-136.8,268.2-137.6,268.3z M-141.9,266.6c0.5-0.5,1-0.7,1.3-1.5c0.2-0.6,0.9-1.2,1.2-1.9c0.2-0.7,1.1-0.9,1.8-0.6
			c1.9,0.9,3.7,1.9,5.5,3c0.8,0.5,1.6,1.1,2.4,1.5c0.4,0.2,0.3,0.3,0.1,0.6c-1.3,1.5-2.7,2.9-4.1,4.2c-0.9,0.8-1.8,1.6-2.8,2.3
			c-0.4,0.3-0.7,0.7-0.8-0.2c0-0.2-0.1-0.2-0.3-0.2c-1.8,0-3.1-1.3-4.6-2c-1.1-0.4-2-1.2-3.1-1.5
			C-144.3,269-143.2,267.8-141.9,266.6z M-164.5,354.4c0-0.1,0-0.2,0-0.2c0.4,0,0.7,0.1,1-0.2c0.7-0.6,1.5-1,2.2-1.5
			c0.2-0.2,0.7-0.2,0.5-0.6c-0.1-0.3-0.5-0.2-0.7-0.2c-1.8,0.1-3.6,0.3-5.4,0.4c-0.8,0-1.6,0.3-2.4,0.1c-1.5-0.4-3.9,0.4-4.7,1.8
			c-0.2,0.3-0.2,0.5,0.2,0.5c1.1,0,2.3,0.1,3.4,0.1C-168.4,354.4-166.4,354.4-164.5,354.4z M-161.4,368.6c1.2,0,2.5,0.1,3.7-0.1
			c0.3-0.1,0.8-0.7,1.4-0.9c0.9-0.3,1.6-1,2.6-1.3c1.2-0.4,2.3-0.3,3.5,0c0.5,0.1,0.8,0.4,1.3,0c0.2-0.2,0.6-0.3,0.8,0.1
			c-0.1,0.3-0.3,0.1-0.5,0.1c-0.3,0-0.3,0.2-0.2,0.3c0.1,0.3,1.2,0.8,1.3,0.6c0.4-0.6,0.7-0.1,0.8,0.1c0.5,0.9,1.3,1.5,1.3,2.7
			c0.1,0.9-0.2,1.5-0.9,2c-1.5,1-3.3,0.9-5.2,1.1c0.3-0.5,1-0.1,0.8-0.7c-0.2-0.6-0.8-0.6-1.3-0.7c-0.6-0.1,0,0.5-0.4,0.7
			c-0.2-0.2-0.4-0.4-0.2-0.9c0.4-0.8,0.5-1.7,1.4-2c0.6-0.2,1-0.2,1.3,0.5c0.1,0.3,0.4,0.6,0.7,0.6c0.2,0,0.4,0.2,0.5,0.4
			c0.2,0.2,0.2,0.7,0.6,0.5c0.4-0.2,0.5-0.6,0.5-1c-0.1-0.4,0-0.6,0.2-0.9c0.4-0.8-0.3-1.8-1.2-1.7c-0.2,0-0.5,0.1-0.6-0.1
			c-0.9-1.5-2.1-0.5-3.2-0.4c-1.5,0-2.6,1.2-4,1.6c-0.6,0.2-1.2,0.2-1.8,0.4c-0.4,0.1-0.8-0.1-1,0.5c-0.1,0.3-0.6,0.1-0.9,0.1
			c-0.7,0-1.4-0.1-1.8-0.7c0,0-0.1-0.1-0.1-0.1c-0.5,0.5-1-0.3-1.4-0.2c-1.2,0.4-2.1-0.4-2.7-1.1c-0.7-0.8-1.6-1.5-2.1-2.5
			c-0.5-1.1-1-2.1-1.3-3.3c0-0.2,0.1-0.4,0.2-0.5c0.1-0.2,0.3-0.3,0.3-0.5c-0.1-1.4,1-2.5,1-3.9c0,0,0,0,0.1,0
			c0,0.3-0.2,0.6,0.1,0.8c0.3,0.1,0.3-0.3,0.5-0.4c0.4-0.3,0.6-0.6,0.7-1.1c0.1-0.6,0.8-0.5,1.1-0.8c0.1-0.1,0.4-0.2,0.3-0.4
			c-0.1-0.2-0.3-0.1-0.4-0.1c-2,0-4.1,0.1-6.1,0c-1.4-0.1-2.7,0-4.1,0c-0.5,0-0.9,0-1.2-0.4c0.8-0.4,1.6-0.8,2.1-1.6
			c0.1-0.2,0.5-0.3,0.8-0.4c0.1-0.1,0.4-0.1,0.4-0.3c0-0.2-0.2-0.2-0.4-0.2c-0.3-0.1-0.5-0.2-0.8-0.1c-0.7,0.3-1.4-0.4-2.1-0.3
			c-0.2,0,0-0.2-0.1-0.4c0-0.2-0.2-0.3-0.3-0.3c-0.2,0-0.3,0.2-0.2,0.4c0.3,0.4-0.2,0.4-0.3,0.4c-0.3,0.1-0.3-0.1-0.3-0.3
			c0-0.5-0.4-0.3-0.6-0.3c-2.1,0-4.1,0-6.2,0c-1.4,0-2.8-0.2-4.2-0.1c-0.7,0.1-1.4-0.2-2.2-0.1c0.3-0.5,0.2-0.8,1-0.8
			c1.6,0,3.2-0.1,4.8-0.1c1.6,0,3.2,0.1,4.8,0.1c2.3,0.1,4.6,0.2,6.9,0.2c0.6,0,1.2,0.1,1.8,0c1-0.1,1.5-0.8,2.2-1.3
			c0.1-0.1,0.2-0.2,0.1-0.4c-0.1-0.2-0.3-0.2-0.4-0.2c-1.7-0.1-3.4-0.1-5-0.2c-2.4-0.1-4.9,0-7.3-0.1c-5.9-0.1-11.8-0.1-17.7-0.2
			c-0.9,0-1.8,0.2-2.7,0c-0.2,0-0.4,0-0.6-0.2c-0.2-0.2-0.5-0.4-0.6,0.1c0,0.1-0.3,0.1-0.4,0.1c-1.1-0.2-2.3,0.3-3.3-0.4
			c-0.1,0-0.2-0.1-0.2,0c-0.7,0.4-1.3,0.5-2.2,0.5c-3.8-0.1-7.6-0.2-11.4-0.2c-1.9,0-3.7,0.1-5.6,0c-2.2,0-4.4,0-6.6,0
			c-3.2,0-6.4,0-9.5,0c-2.6,0-5.3,0.1-7.9,0c0-0.3,0.2-0.3,0.3-0.3c1.4,0.1,2.8-0.2,4.2-0.1c2.6,0.2,5.3-0.1,7.9,0
			c1.8,0,3.6,0.1,5.4-0.1c1.1-0.1,2.3,0.1,3.4,0.1c1.8,0,3.7,0.2,5.6,0.1c2.5-0.1,5,0.1,7.5-0.1c1.8-0.1,3.6-0.1,5.4-0.2
			c1.6-0.1,3.2,0.2,4.8,0.1c1.2-0.1,2.3,0,3.5-0.1c0.3,0,0.4,0,0.5,0.2c0.1,0.1,0.3,0.2,0.3,0.1c0.4-0.6,0.9-0.3,1.4-0.3
			c2.1,0,4.1-0.1,6.2-0.1c1.3,0,2.6-0.2,4,0c0.5,0.1,1.1-0.2,1.6,0c1.5,0.4,3,0.1,4.6,0.1c2.3,0,4.6-0.2,6.9,0.1
			c0.4,0,0.9-0.1,1.3-0.1c2.1,0.1,4.2-0.1,6.4-0.2c1.2,0,2.3,0.1,3.4-0.3c0.5-0.2,0.9,0.2,1.3,0.5c-0.9,0.8-1.6,1.8-2.6,2.5
			c-0.5,0.3-0.2,0.6,0.2,0.6c0.6,0.1,1.2,0.1,1.8,0.1c2.3,0,4.6,0.1,6.8,0c0.6,0,1.2-0.2,1.8,0c0.2,0.1,0.4,0,0.4,0.3
			c0,0.2-0.2,0.2-0.3,0.3c-1,0.6-2.3,0.9-3.1,1.9c-0.1,0.1-0.2,0.2-0.3,0.3c-0.3,0.4-0.4,0.9-0.3,1.2c0.2,0.5,0.4-0.2,0.7-0.2
			c0.9,0,1.8-0.3,2.8,0c0.1,0,0.5,0.2,0.4-0.2c-0.1-0.8,0.4-0.6,0.8-0.4c0.3,0.1,0.5,0,0.7-0.1c0.3-0.1,0.5,0.2,0.6,0.4
			c0.1,0.2,0,0.6-0.3,0.6c-1.6,0.1-2.3,1.5-3.4,2.3c-1.1,0.8-1.6,2.1-2.9,2.7c-1,0.4-1.5,2.4-0.8,3.2c0.7,0.8,1.2,1.9,2.3,2.4
			c0.7,0.3,1.4-0.1,2-0.2c1-0.3,1.9-0.8,2.8-1.3c0.4-0.2,0.5-0.5,0.4-0.9c-0.1-0.6-0.3-1.2-0.5-1.8c-0.1-0.3-0.5-0.3-0.7,0
			c-0.5,0.9-1.4,1.1-2.3,0.9c-0.7-0.1-0.9-0.6-0.5-1.1c0.9-1.3,2.2-1.5,3.4-0.9c0.6,0.3,1.2,0.8,1.6,1.4c0.2,0.4,0,0.8-0.1,0.8
			c-1.1,0.3-0.1,0.7-0.1,1.1c0,0.1,0.3,0.2,0.2,0.4c-0.1,0.4-1.5,1.6-1.9,1.6c-0.1,0-0.3,0-0.3,0.1c-0.5,1-1.5,0.3-2.1,0.8
			c-0.1,0-0.2,0.1-0.2,0.1c-0.9-0.8-2.1,0.1-3.1-0.4c-0.5-0.2-1-0.4-1.3-0.8c-0.3-0.3-0.5-0.8-1.1-0.9c-0.2-0.1-0.4-0.4-0.4-0.6
			c0.1-1.2-0.5-2.5,0.5-3.6c0.2-0.2,0.3-0.5,0.7-0.6c0.2,0,0.3-0.1,0.4-0.3c0.7-1.3,1.8-2.2,3.1-2.8c0.3-0.1,0.5-0.3,0.6-0.6
			c0-0.2,0-0.5-0.3-0.4c-0.9,0.3-1.7,0.4-2.6,0.3c-1-0.1-1.6,0.7-2.2,1.2c-1.2,1.2-2.5,2.2-3.1,3.9c-0.3,0.8,0,1.5,0.1,2.3
			c0.1,0.5,0.1,1.1,0.8,1.3c0.2,0,0.2,0.4,0.3,0.6c0.2,0.5,0.4,0.9,1.1,1.1c0.5,0.1,0.9,0.7,1.2,1.1c0.1,0.1-0.5,0.6,0.1,0.8
			c0.3,0.1,0.7,0.3,1,0.2C-162.4,368.2-161.9,368.5-161.4,368.6c-0.1,0.1-0.6,0.1-0.4,0.5c0,0.1,0.3,0.1,0.4,0.1
			C-161.1,369-161,368.8-161.4,368.6z M-168.9,264.8c-0.4-0.5-0.7-0.9-1.2-1c-0.3-0.1-0.7-0.2-0.9,0.2c-0.2,0.3-0.3,0.5-0.6,0.1
			c0,0-0.1,0-0.2,0c0,0.1,0,0.3,0.1,0.3c0.6,0.1,0.4,0.5,0.3,0.8c-0.2,0.7-0.1,1.4,0,2.1c0.1,0.5,0.4,1,0.8,1.3
			c0.3,0.2,0.8-0.1,1.1-0.4c0.7-0.6,0.9-1.5,0.3-2.4c-0.1-0.1-0.1-0.2-0.2-0.3C-169.9,264.9-170,264.5-168.9,264.8z M-172.9,281
			L-172.9,281c0.4,0,0.8,0,1.2,0c0.4,0,0.5-0.3,0.2-0.4c-0.5-0.2-0.3-1.4-1.3-0.9c-0.1,0.1-0.2-0.1-0.3-0.3
			c-0.1-0.2-0.4-0.3-0.6-0.2c-1.2,0.2-2.4,0.1-3.7,0.1c-3,0.1-5.9,0.2-8.9,0.1c-1.4,0-2.8,0.7-4.1-0.3c0,0-0.1,0.1-0.1,0.1
			c-0.5,0.1-1,0.4-1.6,0.4c-1,0-1.9,0-2.9,0.1c-0.3,0-0.7,0-0.8,0.2c-0.1,0.3,0.3,0.5,0.5,0.7c0.4,0.5,0.9,0.7,1.4,0.9
			c1.1,0.4,2.2,0.2,3.4,0.2c3.8-0.1,7.6-0.1,11.3-0.4c0.5,0,1,0.2,1.6,0.1C-176,281.1-174.4,281.1-172.9,281z M-169.9,278.1
			c0.1-0.1,0.6,0.2,0.7-0.2c0.1-0.3-0.2-0.5-0.3-0.7c-0.3-0.6-0.9-0.7-1.3-1.2c-1-1.1-1.9-2.2-3-3.3c-1-1.1-1.9-2.3-2.8-3.5
			c-0.6-0.8-1.1-1.7-1-2.7c0.1-0.9,0.2-1.8,0.6-2.6c0.8-1.6,2.2-2.4,4-2.5c0.9,0,1-0.7,1.2-1.3c0.1-0.3,0-0.6-0.4-0.8
			c-0.8-0.3-1.5-0.6-2.4-0.3c-0.7,0.2-1.6,0.1-1.9,1c-0.1,0.2-0.2,0.2-0.3,0.3c-1.6,1.1-2.5,2.6-2.7,4.6c-0.1,1.1,0.2,2.1,0,3.2
			c-0.1,0.4,0,0.7,0.2,1c1.6,2.8,3.9,5.1,5.9,7.5C-172.4,277.9-171.3,278.2-169.9,278.1z M-157.8,259.6c1.2,0.6,1.5,0.4,2-0.8
			c0.5-1,0-2,0-2.9c0-0.7-0.8-0.6-1.1-1.1c-0.1-0.2-0.6-0.1-0.7-0.5c0,0-0.2-0.1-0.2-0.1c-0.7,0.8-1.5,0.1-2.2,0.2
			c-0.1,0-0.2,0-0.2,0c-1,0.7-2.1,1.2-3,2c-0.4,0.4-0.7,0.7-1.2,1c-0.3,0.1-0.5,0.3-0.6,0.6c-0.4,1.1-1,2.2-1,3.4
			c0,0.4,0,0.7-0.5,0.8c-0.4,0.1-0.6-0.2-0.7-0.5c-0.4-1.2-1.6-1.2-2.5-1.6c-0.5-0.2-0.6,0.3-0.7,0.7c-0.1,0.3-0.3,0.6,0.2,0.8
			c1.1,0.6,1.9,1.3,2.3,2.7c0.4,1.4,0.5,2.7-0.1,4c-0.5,1-1.4,1.7-2.6,1.7c-1,0-1.7-0.6-2.3-1.3c-0.2-0.3-0.3-0.6-0.2-1
			c0.1-0.4,0.1-0.8-0.1-1.2c-0.4-0.6-0.2-1.1,0-1.6c0.2-0.4,0.4-0.7,0.3-1.1c-0.1-0.3,0.4-0.6,0.1-0.7c-0.4-0.2-0.9-0.3-1.2-0.1
			c-0.5,0.4-1,0.8-1.3,1.6c-0.5,1.2-0.1,2.3-0.1,3.4c0,0.6,0.8,0.5,0.9,1c0.1,0.2,0.4,0.4,0.3,0.7c0,0.2,0,0.5,0.2,0.5
			c0.8,0.6,1,1.7,1.9,2.4c1,0.8,1.7,1.8,2.5,2.8c0.6,0.8,1.3,1.6,1.9,2.3c0.2,0.2,0.3,0.5,0.7,0.4c0.4-0.1,0.4,0.4,0.4,0.6
			c0.1,0.3-0.3,0.2-0.4,0.2c-0.8,0.2-1.7,0.3-2.6,0.3c-0.3,0-0.5,0-0.6,0.3c-0.1,0.3,0.2,0.3,0.4,0.5c0.4,0.5,0.9,0.7,1.4,1
			c0.4,0.2,0.9,0.7,0.4,1c-0.3,0.3-0.8,1-1.5,0.4c-0.6-0.6-1.5-0.4-2.2-0.3c-2,0.2-3.9,0-5.9,0.1c-2,0.1-4,0.3-6,0.3
			c-1.5,0-2.9,0-4.4,0c-1.3,0.1-2.6,0.2-3.9,0.1c-0.1,0-0.2,0-0.3,0.1c0,0.3,0.2,0.5,0.3,0.7c0.1,0.3,0.5,0,0.7,0.3
			c-0.5,0-0.6,0.2-0.4,0.7c0.1,0.1,0.2,0.2,0.4,0.1c0.2-0.1,0.2-0.6,0.3-0.4c0.3,0.5,1,0.6,1.1,1c0,0.3-0.6,0.7-1,0.6
			c-2.1-0.6-4.1,0-6.2-0.2c-0.1,0-0.2,0.1-0.3,0c-2.1-0.4-4.3,0.2-6.4,0c-0.1,0-0.3,0-0.3,0c-0.4-0.3-0.5-0.4-0.9-0.1
			c-0.5,0.5-1.1,0.1-1.7,0.2c-1.2,0.1-2.3,0.1-3.7-0.1c1.2-0.9,2.5-0.5,3.7-0.6c2.7-0.2,5.4,0,8.1-0.1c1.7,0,3.5-0.1,5.2-0.1
			c-0.1-0.5-0.5-0.9-0.2-1.6c0.1-0.3-0.6-0.7-1-0.6c-0.8,0.3-1-0.2-1.4-0.6c-0.3-0.2-0.5-0.8-1-0.2c-0.4,0.4-0.1,0.6,0,0.9
			c0,0.1-0.1,0-0.1-0.1c-0.2-0.1-0.4-0.3-0.7-0.2c0,0-0.1,0-0.1,0c-0.2-0.2-0.2-0.6-0.6-0.4c-0.2,0.1-0.2,0-0.3-0.1
			c0.5-0.2,1-0.2,1.6-0.3c0.2,0,0.5,0,0.5-0.3c0-0.2,0-0.5-0.3-0.6c-0.6-0.2-0.8-0.9-1.4-1.2c-0.3-0.1-0.1-0.3,0-0.5
			c0.3-0.2,0.6-0.4,1-0.4c2-0.3,4,0,6,0.1c0.4,0,0.8-0.1,1.1-0.2c0.8-0.2,1.7-0.2,2.5-0.1c1.1,0.1,2.3-0.2,3.5-0.1
			c1.3,0.2,2.5,0,3.8,0.1c1.9,0.1,3.8-0.1,5.7-0.3c0.6,0,0.3-0.5,0.1-0.7c-0.7-0.9-1.6-1.8-2.3-2.7c-1.3-1.7-2.9-3.2-3.6-5.5
			c-0.6-1.8-0.6-3.5,0-5.1c0.8-2.2,1.9-4.3,4.4-5.1c0.7-0.2,1.4-0.4,2.1-0.4c1.1,0,2.1-0.5,3.2-0.3c0.3,0,0.3-0.1,0.4-0.3
			c1.1-1.7,2.5-3.2,3.7-4.8c0.6-0.9,1.8-1.3,2.8-1.8c2.2-1,4.5-1.5,6.9-1.5c0.9,0,1.7,0.6,2.6,0.9c1.5,0.5,3.5-0.1,4.4-1.4
			c0.5-0.6,0.7-1.3,0.8-2.1c0.1-0.5,0-1-0.5-1.4c-0.4-0.3-0.6-0.8-1-1.2c-0.7-0.7-2.3-0.4-2.7,0.5c-0.2,0.3-0.3,0.7-0.4,1
			c-0.1,0.4-0.2,0.6,0.4,0.6c0.5,0,1.3-0.4,1.4,0.7c0.1,0.9-0.4,1.4-1.5,1.2c-1.2-0.2-2.1-1.7-1.7-2.9c0.4-1.3,1.4-2,2.5-2.4
			c0.9-0.3,2.1-0.1,2.8,0.6c1.8,1.6,2.1,3.6,0.9,5.8c-0.6,1-1.5,1.5-2.6,2c-0.8,0.3-1.7,0.2-2.4,0c-2.6-0.5-5.2-0.6-7.7,0
			c-1,0.2-2.2,0.5-2.8,1.1c-1,1.1-2.4,1.7-3.1,3.2c-0.3,0.6-0.7,1.2-1.2,1.7c-0.4,0.5-0.3,0.9,0.3,1.1c1.2,0.4,1.2,0.4,1.9-0.6
			c0.6-1,1.3-2,2-3c0.2-0.3,0.5-0.2,0.7-0.4c1.3-0.8,2.5-1.6,4.1-1.8c1.3-0.1,2.6-0.2,3.8,0.1c1.1,0.3,1.7,1.3,1.9,2.4
			c0.2,0.9,0.1,1.8-0.3,2.8c-0.4,1.1-1.1,1.8-1.8,2.7c-0.1,0.2-0.3,0.1-0.5,0.1c-0.3-0.1-0.8-0.5-0.6,0.3c0,0.2-0.2,0.1-0.2,0.1
			c-1.3-0.1-2.5-0.5-3-1.9c-0.2-0.5,0.3-2.6,0.7-2.9c0.4-0.3,1.5-0.2,1.8,0.2c0.4,0.4,0.2,0.8-0.2,0.9c-0.3,0.2-0.5,0.4-0.8,0.5
			c-0.9,0.4-0.5,0.7,0,1c0.2,0.1,0.4,0.2,0.5,0.4c0.1,0.3,0.4,0.5,0.7,0.4C-157.5,260.2-157.9,259.9-157.8,259.6z M-117.2,354.2
			c0,0,0,0.1,0,0.1c0.4,0,0.7,0,1.1,0c0.4-0.1,1.1,0.3,1.3-0.2c0.1-0.4-0.5-0.7-0.9-1c-0.9-0.9-2-1.1-3.2-1.2
			c-0.6,0-1.1,0.2-1.7,0.2c-2.3-0.2-4.6-0.3-7-0.5c-0.2,0-0.5-0.1-0.6,0.2c-0.1,0.3,0.2,0.4,0.4,0.6c0.8,0.5,1.6,0.9,2.3,1.5
			c0.2,0.2,0.6,0.3,1,0.3H-117.2z M-41.5,350.5c-0.8,0-1.4,0.5-2.2,0.4c-0.5-0.1-0.9,0.5-1.5,0.5c-2.4,0.1-4.9,0.1-7.3,0
			c-0.8,0-1.6,0.1-2.4,0.1c-1.7,0-3.3-0.1-5-0.1c-1.2,0-2.4,0.2-3.5,0c-0.8-0.1-1.6,0.1-2.4,0c-1.1-0.2-2.3-0.3-3.5-0.1
			c-1.1,0.3-2.2,0.2-3.3,0.1c-1.2-0.1-2.5-0.1-3.8,0c-1.1,0.1-2.2,0-3.4-0.1c-1.3-0.1-2.6,0.2-3.9,0.1c-1.4-0.1-2.7,0-4.1-0.1
			c-1.4-0.1-2.9,0.3-4.3,0.1c-0.9-0.1-1.8,0.1-2.7-0.1c-0.4-0.1-0.9-0.1-1.3,0.1c-0.8,0.4-1.7,0-2.6,0.1c-1.2,0.2-2.4-0.1-3.7,0
			c-2.3,0.2-4.7-0.1-7-0.1c-0.4,0-1.1-0.4-1.1,0.6c0,0.1-0.2,0.1-0.4,0.1c-0.2,0-0.2-0.2-0.2-0.4c0-0.3,0-0.5-0.3-0.5
			c-0.4,0-0.2,0.3-0.3,0.5c0,0.1-0.1,0.2-0.1,0.2c-0.8-0.2-1.5,0.8-2.4,0.2c-0.3-0.2-0.7,0.1-0.9,0.3c-0.2,0.3,0.3,0.3,0.5,0.4
			c0.6,0.5,1.1,1,1.7,1.5c0.3,0.2,0.6,0.4,0.9,0.4c-0.4,0.8-1.1,0.6-1.7,0.5c-1.8-0.3-3.6,0.1-5.5,0c-1.4-0.1-2.8-0.1-4.2-0.1
			c-0.2,0-0.4-0.1-0.5,0.1c-0.1,0.2,0.1,0.3,0.3,0.3c1.1,0.3,1.3,1.5,1.9,2.2c0.3,0.3,0.6,0.5,0.8,0.9c0.3,0.7,1.1,1.2,0.7,2.1
			c0,0.1,0,0.2,0.1,0.3c0.8,1,0.3,1.9-0.1,2.9c-0.9,2.1-2.4,3.6-4.2,4.9c-0.3,0.3-0.5,0-0.8,0.1c-1.3,0.4-2.6,1-4,1
			c-0.4,0-0.8,0.1-1-0.4c-0.1-0.4-0.5-0.3-0.7-0.3c-1.5-0.2-2.8-0.6-4.1-1.4c-1.2-0.7-2.6-0.9-4-0.9c-0.3,0-0.7,0.1-0.9,0.5
			c-0.1,0.3-0.3,0.5-0.7,0.3c-0.6-0.3-0.8,0.3-1.1,0.6c-0.3,0.3-0.5,0.7-0.1,1.1c0.4,0.4-0.1,1.1,0.3,1.5c0.1,0.2,0.1,0.5,0.4,0.5
			c0.3,0,0.4-0.2,0.4-0.4c0.1-0.3,0.4-0.5,0.7-0.6c0.3-0.1,0.5-0.2,0.6-0.5c0.4-0.8,1.6-0.9,2.1-0.1c0.3,0.5,0.7,1.1,0.8,1.8
			c-0.3-0.1-0.6-0.2-0.7,0.2c-0.1,0.3,0.2,0.6-0.1,0.8c-0.5,0.2-1,0.4-1.4,0.3c-1-0.5-2.1-0.2-3.1-0.5c-1-0.3-1.8-1.3-1.8-2.3
			c0-1.6,0.8-2.6,2.1-3.5c0.7-0.5,1.2-0.9,1.9-0.3c0.1,0.1,0.2,0,0.3,0c0.9-0.6,1.9-0.4,2.9-0.5c0.7-0.1,1.3,0.2,1.8,0.6
			c0.8,0.6,1.6,0.9,2.5,1.3c0.1,0,0.1,0,0.2,0.1c0.4,1,1.3,0.6,2,0.7c0.9,0.1,1.9,0.1,2.8-0.1c0.5-0.1,0.9-0.2,1.4-0.2
			c0.7,0,0.8-0.2,0.7-0.8c0-0.1,0.1-0.2,0.1-0.2c0.6-0.4,0.8-1.2,1.7-1.2c0,0,0.1-0.1,0.1-0.1c0.9-1.4,2.1-2.8,1.8-4.7
			c-0.1-0.9-0.7-1.7-1.3-2.4c-0.9-1-1.8-1.8-2.7-2.7c-0.4-0.4-0.9-0.5-1.4-0.5c-0.9,0-1.8,0.1-2.6-0.3c-0.1,0-0.2-0.1-0.3,0.1
			c-0.1,0.2-0.1,0.3,0,0.5c0.2,0.3,0.5,0.5,0.9,0.6c1.1,0.6,2,1.3,2.6,2.4c0.3,0.6,1.1,0.7,1.4,1.4c0.3,0.6,0.5,1.3,0.4,1.9
			c-0.1,0.7,0.1,1.5-0.5,2c-1.2,1-2.3,2.1-4.1,2c-1,0-2-0.2-3-0.1c-0.2,0-0.4,0-0.5-0.3c0-0.2-0.2-0.4-0.4-0.4
			c-1.1,0.1-1.3-1-2.1-1.5c-0.2-0.1-0.1-0.4,0.1-0.6c0.2-0.3,0.7-0.7-0.1-1c-0.3-0.1-0.4-0.5-0.2-0.8c0.9-1.5,2.8-2.1,4.5-1.3
			c0.5,0.3,1,1.5,0.6,1.9c-0.4,0.3-1.1,0.4-1.6,0.2c-0.4-0.2-0.9-0.3-1-0.8c-0.1-0.3-0.4-0.3-0.6-0.3c-0.4,0.1-0.2,0.3-0.3,0.6
			c-0.1,0.5-0.7,0.8-0.5,1.4c0,0.2,0,0.5,0.2,0.6c1.2,0.5,2.2,1.3,3.4,1.7c1.7,0.6,2.6-0.4,3.4-1.5c0.3-0.4,0.7-0.7,0.8-1.3
			c0.2-1.2-0.5-2-1.2-2.6c-0.6-0.5-1-1.1-1.6-1.6c-0.7-0.6-1.3-1.3-2-1.9c-0.5-0.4-0.9-1.1-1.6-1.3c-0.3-0.1-0.5-0.3-0.8-0.2
			c-0.4,0.1-0.6-0.2-0.6-0.5c0-0.3,0.2-0.6,0.7-0.5c0.3,0.1,0.5,0,0.8-0.1c0.2-0.1,0.7-0.2,0.7,0.2c-0.1,0.8,0.4,0.5,0.7,0.4
			c0.9-0.2,1.8-0.2,2.6,0.3c0.1,0.1,0.4,0.1,0.3,0c-0.2-0.4,0.5-0.6,0.1-1c-0.6-0.5-1-1.2-1.8-1.5c-0.6-0.3-1.2-0.6-1.8-0.8
			c-0.3-0.1-0.3-0.3-0.4-0.6c1.6-0.1,3.2,0,4.8,0c2,0,4,0.1,6.1-0.1c0.2,0,0.4,0,0.5-0.2c0.1-0.2-0.1-0.4-0.3-0.5
			c-0.9-0.7-1.7-1.6-2.4-2.4c0.5-0.6,1-0.7,1.7-0.4c1.3,0.5,2.6,0.1,3.9,0.2c0.6,0.1,1.3,0,1.8,0.1c1,0.3,2-0.1,3.1,0
			c1.3,0.1,2.6,0,3.9,0.1c1.5,0.1,3,0,4.5,0c1.4,0,2.9,0.1,4.3,0.2c0.4,0,0.5-0.3,0.7-0.3c0.7-0.2,1.4,0,2.2,0c2.4,0,4.8,0,7.1,0.2
			c1.1,0.1,2.2-0.1,3.3-0.1c0.2,0,0.6-0.2,0.7,0.3c0,0.1,0.2,0.2,0.4,0.1c1.3-0.6,2.6-0.2,3.9-0.2c1.1,0,2.2,0,3.3-0.1
			c2.1-0.2,4.2,0.1,6.4,0.1c0.6,0,1.2,0.1,1.8,0.1c0.8,0,1.6,0,2.3,0.1c1,0.1,2-0.1,3,0c2.8,0.2,5.6-0.2,8.4,0c0.2,0,0.4,0,0.6,0
			c0.9-0.1,1.7,0,2.6,0.2c0.6,0.1,1.2-0.2,1.8-0.2c0.4,0,0.8,0,1.2,0c0.2,0,0.3,0.2,0.2,0.4c0,0.2-0.2,0.2-0.3,0.2
			c-2.8,0-5.5-0.1-8.3,0c-1.9,0.1-3.8,0.1-5.7,0c-1.6,0-3.1-0.1-4.7-0.1c-2.3,0-4.6,0.1-7,0.2c-1.8,0-3.6,0-5.4,0
			c-1.2,0-2.4,0.1-3.7,0.1c-2.2,0-4.3-0.1-6.5-0.1c-2,0-3.9,0.1-5.9,0.1c-4.5,0-9,0-13.6,0c-2.4,0-4.9,0.1-7.3,0.2
			c-0.2,0-0.4-0.1-0.5,0.2c-0.1,0.3,0.1,0.4,0.3,0.6c0.9,0.8,1.9,1.2,3.1,1.2c3.3-0.1,6.6-0.1,9.9-0.2c0.8,0,1.7-0.1,2.4-0.1
			c0.8,0,1.7,0,2.5,0c2.3,0.1,4.7,0,7,0c0.3,0,0.6-0.1,0.8,0.3c0,0.1,0.2,0.1,0.3,0.1c0.9-0.6,1.9-0.4,2.8-0.3c2,0.1,3.9,0,5.9,0
			c3.7,0,7.5,0,11.2,0c4.1,0,8.3,0,12.4-0.1c2.5-0.1,4.9,0.1,7.4,0c1,0,1.9-0.1,2.9-0.1c2.4,0.2,4.9-0.1,7.3,0.1
			C-42.3,350.4-41.9,350.4-41.5,350.5z M-123.7,334c0-0.1,0-0.2-0.2-0.3c-0.2,0-0.3,0.1-0.4,0.3c-0.1,0.2,0,0.3,0.2,0.4
			C-123.8,334.3-123.8,334.1-123.7,334z M-95.5,335.4c0-0.2-0.3-0.2-0.4-0.2c-0.2,0-0.3,0.1-0.3,0.3c0.1,0.3,0.3,0.1,0.5,0.1
			C-95.6,335.7-95.5,335.6-95.5,335.4z M-106.9,316.3c-0.2,0-0.3,0-0.3,0.2c0,0.2,0.1,0.3,0.3,0.3c0.1,0,0.2-0.1,0.2-0.2
			C-106.7,316.4-106.6,316.3-106.9,316.3z M-109.8,315.8c-0.2,0-0.3,0.1-0.3,0.3c0,0.2,0.1,0.3,0.3,0.2c0.2,0,0.3-0.2,0.3-0.4
			C-109.5,315.8-109.7,315.8-109.8,315.8z M-100.9,312.3c-0.2,0-0.4,0-0.4,0.2c0,0.2,0.1,0.3,0.3,0.3c0.2,0,0.4,0,0.4-0.3
			C-100.6,312.3-100.8,312.3-100.9,312.3z M-105.4,298.5c0.3,0,0.3-0.2,0.4-0.4c0-0.1,0.1-0.3-0.1-0.3c-0.3,0-0.2,0.3-0.3,0.4
			C-105.6,298.3-105.6,298.5-105.4,298.5z M-116.4,295.7c0.4,0.2,0.6-0.1,0.8-0.3c0,0-0.1-0.3-0.1-0.3
			C-116,295.1-116.3,295.3-116.4,295.7z M-115.8,322.7c-0.1,0.3-0.6,0.4-0.3,0.8c0,0,0.2,0.1,0.2,0.1
			C-115.8,323.4-115.5,323.2-115.8,322.7z M-100.3,335.1c-0.1,0-0.3,0-0.3,0.2c0,0.3,0.3,0.3,0.4,0.3c0.2,0.1,0.3,0,0.3-0.2
			C-99.9,335.1-100.2,335.2-100.3,335.1z M-100.2,332.9c0.2,0,0.4-0.1,0.5-0.4c0-0.2-0.1-0.3-0.2-0.2c-0.2,0.1-0.5,0-0.5,0.3
			C-100.5,332.8-100.4,332.9-100.2,332.9z M-127,338c0-0.2-0.1-0.3-0.2-0.3c-0.2,0.2-0.5,0.3-0.5,0.6c0,0.1,0.1,0.2,0.2,0.1
			C-127.2,338.4-127.1,338.2-127,338z M-126.2,334c-0.6-0.4-0.7-0.4-1,0.2C-126.9,334-126.5,334.2-126.2,334z M-122.3,302.3
			c0.1-0.2,0.2-0.4,0.2-0.7c0-0.1-0.1-0.2-0.2-0.2c-0.3,0.1-0.2,0.4-0.3,0.6C-122.7,302.1-122.5,302.2-122.3,302.3z M-116.3,299.5
			c0.2,0,0.4,0.1,0.5-0.2c0-0.3-0.2-0.2-0.3-0.2c-0.2,0.1-0.5-0.1-0.5,0.2C-116.7,299.7-116.4,299.5-116.3,299.5z M-94.6,299.4
			c0.1-0.1,0.3-0.2,0.3-0.4c0-0.2-0.2-0.3-0.3-0.2c-0.2,0-0.4,0-0.4,0.3C-95,299.3-94.8,299.4-94.6,299.4z M-127.3,336.6
			c0-0.2-0.1-0.3-0.2-0.3c-0.2,0.2-0.4,0.4-0.5,0.6c-0.1,0.1,0.1,0.3,0.2,0.3C-127.5,337.1-127.7,336.6-127.3,336.6z M-123.5,336.1
			c0-0.2-0.1-0.3-0.2-0.3c-0.2,0.2-0.7,0-0.8,0.4c0,0.2,0.1,0.3,0.2,0.2C-124,336.3-123.6,336.5-123.5,336.1z M-106.5,309
			c0-0.2,0-0.4-0.3-0.4c-0.3,0-0.4,0.2-0.4,0.4c0,0.3,0.1,0.3,0.4,0.3C-106.4,309.4-106.5,309.2-106.5,309z M-113.6,339.4
			c0.4-0.1,0.7-0.1,1-0.1c0.1,0,0.2-0.1,0.2-0.2c0-0.1-0.1-0.2-0.1-0.2C-112.8,339-113.3,338.8-113.6,339.4z M-99.5,333.9
			c-0.2,0.1-0.6-0.2-0.6,0.2c0,0.4,0.4,0.2,0.6,0.3c0.2,0.1,0.2-0.2,0.3-0.3C-99.1,333.8-99.4,333.8-99.5,333.9z M-107.3,314.2
			c-0.2,0-0.5,0-0.5,0.3c0,0.3,0.1,0.4,0.4,0.3c0.3,0,0.5-0.1,0.5-0.4C-106.8,314.1-107.1,314.2-107.3,314.2z M-97.8,295.9
			c0-0.3-0.1-0.4-0.4-0.3c-0.2,0-0.5,0.1-0.5,0.4c0,0.2,0,0.4,0.3,0.4C-98.1,296.3-97.8,296.2-97.8,295.9z M-110.2,338.6
			c0-0.2-0.1-0.4-0.2-0.3c-0.2,0.3-0.5,0.5-0.7,0.8c-0.1,0.1,0,0.3,0.2,0.3C-110.3,339.3-110.7,338.6-110.2,338.6z M-102.6,335
			c0.2-0.1,0.5-0.1,0.5-0.5c0-0.2-0.1-0.3-0.3-0.3c-0.3,0-0.4,0.2-0.5,0.5C-103,334.9-102.8,334.9-102.6,335z M-120.1,301.8
			c0.8,0,0.1-0.7,0.4-0.8c0.3-0.1,0.3-0.3,0-0.4c-0.2-0.1-0.3,0-0.4,0.2C-120.1,301.1-120.1,301.4-120.1,301.8z M-118.1,339.3
			c0-0.2-0.2-0.3-0.4-0.2c-0.2,0.1-0.4,0.3-0.6,0.6c-0.1,0.1,0.2,0.4,0.2,0.3C-118.7,339.6-118.1,339.9-118.1,339.3z M-97.9,297.1
			c0.5,0.2,0.7-0.2,1-0.4c0.1-0.1,0.1-0.3,0-0.4c-0.1-0.1-0.2,0-0.3,0C-97.2,296.7-97.9,296.6-97.9,297.1z M-123.9,335.5
			c-0.1-0.4-0.4-0.6-0.7-0.8c-0.3-0.2-0.3,0-0.5,0.2c-0.2,0.4,0.2,0.3,0.3,0.4C-124.5,335.4-124.2,335.4-123.9,335.5z M-111.6,313.9
			c-0.2,0-0.4,0.1-0.4,0.4c0,0.2,0,0.5,0.4,0.5c0.3,0,0.4-0.2,0.3-0.4C-111.2,314.2-111.2,313.9-111.6,313.9z M-121.5,333.5
			c-0.5-0.2,0-1-0.7-1.1c-0.2,0-0.3,0.2-0.2,0.3c0.3,0.3,0.1,1,0.7,1.1C-121.6,333.8-121.5,333.7-121.5,333.5z M-109.2,312.7
			c0.1,0,0.5,0.1,0.4-0.2c-0.1-0.5-0.9-0.3-1.1-0.8c0,0-0.2,0.2-0.2,0.2C-109.6,312-110,312.9-109.2,312.7z M-92.3,301.1
			c-0.1-0.3-0.4-0.4-0.7-0.5c-0.3,0-0.3,0.2-0.3,0.4c0,0.3,0.1,0.4,0.4,0.4C-92.7,301.4-92.4,301.5-92.3,301.1z M-111.5,316.4
			c-0.1,0-0.2,0.1-0.2,0.1c-0.1,0.1,0,0.2,0.2,0.3c0.4,0.1,0.8,0.3,1.2,0.5c0.1,0,0.3,0,0.4-0.1c0.1-0.1,0-0.2-0.2-0.3
			C-110.6,316.8-111.1,316.6-111.5,316.4z M-109.2,320c0-0.3-0.1-0.4-0.4-0.3c-0.2,0.1-0.5,0.1-0.4,0.4c0.2,0.3-0.1,0.9,0.4,0.9
			C-108.8,320.9-109.6,320.2-109.2,320z M-103.7,305.8c-0.3,0.4-0.4,0.7-0.6,0.9c-0.2,0.3,0.1,0.5,0.2,0.6c0.3,0.3,0.3-0.2,0.4-0.3
			C-103.2,306.7-103.7,306.3-103.7,305.8z M-110.6,323c0.3,0.2-0.2,0.8,0.3,0.8c0.4,0,0.4-0.5,0.3-0.7c-0.1-0.3,0.3-0.9-0.3-0.9
			C-110.8,322.2-110.3,322.7-110.6,323z M-93.6,294.2c0-0.1,0-0.1,0-0.2c-0.4-0.4-0.9-0.2-1.4-0.4c-0.1-0.1-0.2,0.2-0.1,0.3
			c0.4,0.2,0.7,0.6,1.3,0.5C-93.8,294.4-93.6,294.4-93.6,294.2z M-125.6,337.7c0,0,0-0.1,0-0.2c0-0.2,0.1-0.5-0.3-0.5
			c-0.2,0-0.4-0.1-0.6,0.1c-0.2,0.3,0.2,0.3,0.3,0.5c0.1,0.3,0.2,0.5,0.2,0.8c0,0.1,0.1,0.2,0.2,0.2c0.1,0,0.2-0.1,0.2-0.2
			C-125.6,338.1-125.6,337.9-125.6,337.7z M-103.7,311.7c-0.2,0-0.3,0.1-0.3,0.2c0.2,0.4,0.3,0.8,0.8,0.9c0.2,0,0.6-0.1,0.5-0.5
			C-102.8,311.6-103.5,312-103.7,311.7z M-108.9,321.3c0.1,0.2-0.2,0.7,0.3,0.6c0.3,0,0.5-0.4,0.7-0.7c-0.3-0.1-0.3-0.7-0.7-0.7
			C-108.8,320.5-109,320.9-108.9,321.3z M-127.1,340.2c0.2-0.3,0.5-0.5,0.8-0.5c0.6,0.1,0.7-0.4,1-0.7c0.1-0.1,0-0.4-0.2-0.3
			c-0.7,0.2-1.3,0.6-1.8,1.1c0,0,0,0.2,0,0.2C-127.3,340.1-127.2,340.2-127.1,340.2z M-98.2,337.2c0.2,0,0.4,0.1,0.5-0.1
			c0.1-0.1,0-0.3-0.1-0.3c-0.5,0-0.6-0.4-0.9-0.6c-0.2-0.1-0.5-0.3-0.7,0.1c-0.2,0.4,0,0.6,0.4,0.7
			C-98.7,337.1-98.4,337.1-98.2,337.2z M-101.5,309.9c-0.5,0-0.8,0.1-0.8,0.5c0,0.6,0.6,0.3,0.9,0.5c0.2,0.1,0.6,0,0.6-0.5
			C-100.9,309.9-101.2,309.8-101.5,309.9z M-98.9,306.2c-0.1,0.4-0.7,0-0.8,0.4c-0.1,0.5,0.4,0.5,0.8,0.4c0,0,0.1,0,0.1,0
			c0.4,0.2,1,0.4,1-0.3C-97.8,306.2-98.5,306.5-98.9,306.2z M-99.4,308.8c0-0.2,0.1-0.5-0.2-0.5c-0.5,0-0.7-0.5-1.2-0.3
			c-0.2,0.1-0.6-0.5-0.6,0c0,0.3-0.4,1,0.5,1c0.1,0,0.4,0,0.4,0.2c0.1,0.3,0.3,0.4,0.6,0.2C-99.6,309.3-99.3,309.2-99.4,308.8z
			 M-102.8,313c-0.6,0-0.7,0.4-0.6,1c0,0.3,0.8,1.1-0.4,1.1c0,0-0.1,0.2,0,0.2c0.3,0.2,0.6,0.4,1,0.5c0.3,0,0.3-0.3,0.3-0.6
			c0.1-0.6,0.2-1.1,0.1-1.8C-102.5,313.1-102.5,313-102.8,313z M-104,317.6c-0.3,1-1.3,1.6-1.8,2.4c-0.5,0.9-1.4,1.5-1.9,2.4
			c-1.2,1.8-2.8,3.3-4.1,5.1c-0.2,0.3-0.5,0.5-0.6,0.8c-0.7,1.5-2.3,1.4-3.5,1.7c-1.5,0.3-2.8,0.8-4.2,1.5c-0.2,0.1-0.2,0.3-0.2,0.4
			c0.1,0.3,0.4,0.4,0.7,0.5c1.9,0.5,3.8,0.6,5.7,0.7c1.1,0.1,2.2,0.2,3.3,0.4c2,0.2,3.9,0,5.9,0.1c0.3,0,0.5,0.1,0.8,0.1
			c1.1,0,1.3-0.1,1.4-1.2c0-0.3-0.4-0.8,0.3-0.9c0.1,0,0-0.2-0.1-0.3c-0.1-0.1-0.5,0-0.3-0.3c0.1-0.2,0.3-0.5,0.7-0.2
			c0.6,0.3,1.2,0.4,1.9,0.1c0.3-0.1,0.8-0.2,1,0.3c0.2,0.3,0.4-0.1,0.6-0.1c1.9,0,3.7-0.2,5.6-0.4c0.3,0,0.5-0.1,0.8-0.2
			c0.6-0.3,0.8,0.1,0.7,0.6c-0.1,2.8-0.1,5.6,0,8.4c0,1.1-0.2,1.4-1.3,1.2c-0.9-0.2-1.8,0-2.7,0c-1.5,0.1-3.1,0.1-4.6,0.1
			c-1.3,0-2.5,0.2-3.8,0.1c-2.2-0.1-4.4,0-6.6,0c-0.3,0-0.6,0.1-0.9-0.3c-0.2-0.3-0.3,0.3-0.7,0.3c-0.8,0-1.6,0-2.4-0.1
			c-0.5,0-1,0-1.4,0.1c-0.3,0.1-0.6,0.1-0.9-0.1c-0.4-0.2-0.8,0.2-1.4,0.1c-0.7-0.1-1.4,0.2-2.1,0c-0.3-0.1-0.7,0-0.9-0.3
			c-0.1-0.1-0.2-0.1-0.3,0c-0.5,0.3-1.1-0.1-1.2-0.7c0-0.1,0-0.3,0.2-0.3c0.3,0,0.6-0.1,0.6-0.5c0-0.2-0.1-0.2-0.3-0.2
			c-0.4,0-0.4,0.4-0.5,0.7c-0.9-0.7-0.2-1.5-0.2-2.2c-0.5,0-0.9,0.1-1.3,0c0,0.4,0.5,0.8-0.1,1.2c0,0,0,0.2,0,0.3
			c0.2,0.4,0.2,0.3-0.2,0.4c-0.1,0-0.4-0.1-0.4,0.2c0.1,0.3,0.2,0.5,0.5,0.4c0.4-0.2,0.6,0.1,1,0c0.6-0.1,0.7,0.5,0.7,0.8
			c0,0.4-0.4,0.4-0.8,0.4c-1.3,0.1-2.5-0.4-3.8-0.1c-0.1,0-0.8,0.1-1-0.5c0-0.1-0.3-0.1-0.3,0.2c0,0.3-0.2,0.3-0.4,0.2
			c-0.2-0.1-0.2-0.3-0.1-0.4c0.1-2.2,0-4.4,0-6.6c0-0.8-0.1-1.5,0.7-2.3c0.6-0.6,1.2-1.3,1.8-2.1c0.5-0.7,0.8-1.5,1.5-2.1
			c1.4-1.2,2.4-2.9,3.7-4.2c1-0.9,1.6-2.2,2.5-3.1c0.6-0.6,0.9-1.5,1.6-1.9c0.8-0.4,0.8-1.5,1.7-1.6c0,0,0-0.2,0-0.3
			c0.3-0.7,0.6-0.6,1.2-0.1c0.3,0.3,0.9,0,1.3,0.3c0.2,0.1,0.4,0.1,0.6,0.1c0.1,0,0.3,0.1,0.4,0c0.1-0.2,0-0.3-0.2-0.3
			c-0.5-0.2-1-0.4-1.5-0.6c-0.3-0.1-0.7-0.1-0.7-0.4c0-0.4,0.3-0.7,0.6-1c0.6-0.5,1-1.1,1.6-1.7c0.2-0.2,0.1-0.8,0.5-1.1
			c0.2-0.2,0.2-0.6,0.7-0.4c0.2,0.1,0.2-0.1,0.2-0.3c-0.2-0.4,0-0.7,0.3-1c0.3-0.3,0.6-1.1,0.8,0.1c0,0,0.1,0.1,0.2,0.1
			c0.1,0,0.2-0.1,0.2-0.2c0-0.1,0-0.1,0-0.2c-0.8-0.9,0.2-1.3,0.5-1.9c0.4-0.7,1-1.2,1.4-1.9c0.4-0.5,1-0.5,1.5-0.6
			c1.9-0.7,4-0.9,5.6-2.2c0.2-0.1,0.4-0.1,0.3-0.4c0-0.3-0.2-0.4-0.5-0.4c-1.3-0.2-2.6-0.6-3.9-0.6c-0.4,0-0.9,0-1.4-0.3
			c-0.4-0.3-0.9,0.1-1.4,0.1c-1.1-0.1-2.3-0.2-3.4-0.3c-1.2-0.1-2.4,0.1-3.6-0.1c-1-0.2-2.1,0.1-3.2-0.1c-0.4-0.1-0.4,0.2-0.4,0.5
			c0,0.7,0,1.3-0.1,2c0,0.3-0.1,0.7-0.4,0.8c-0.5,0.1-1,0.1-1.4-0.2c-0.1,0-0.1-0.3-0.2-0.3c-1.3,0.2-2.5-0.2-3.7-0.2
			c-0.3,0-0.6,0.1-1,0.1c-1-0.1-2.1-0.1-3,0.4c-0.5,0.3-1.1,0.3-1.3,0c-0.3-0.3-0.3-1-0.2-1.4c0.2-0.8-0.1-1.5,0-2.2
			c0.1-1.3-0.5-2.6,0.4-3.8c0-0.1,0.1-0.3,0-0.3c-0.8-0.5-0.1-1.1-0.2-1.6c0-0.1,0.1-0.2,0.1-0.2c-0.6-1.1,0.4-0.7,0.7-0.7
			c1.1,0,2.3,0.1,3.4,0.1c0.8,0,1.5-0.2,2.3-0.3c0.6,0,1.2,0,1.8,0.1c1.4,0.2,2.9,0,4.3,0.1c0.8,0,1.7-0.2,2.5-0.1
			c1.7,0.1,3.4,0,5.1-0.1c0.9,0,1.7,0,2.6,0c1,0,2-0.2,2.9-0.1c1.1,0,2.2,0.1,3.3-0.1c0.6-0.1,1.2-0.4,1.7,0.3
			c0.8-0.5,1.7-0.2,2.5-0.5c0.3-0.1,0.4-0.2,0.6,0c0.3,0.2,0.6,0.3,0.9,0c0,0,0.1-0.1,0.1-0.1c0.7,0.9,1.2-0.2,1.8-0.2
			c0.6,0,1,0.1,0.9,0.8c-0.2,1.4,0.1,2.8-0.1,4.2c-0.1,0.7,0,1.6,0.1,2.4c0.3,1.2-0.5,2.2-1.2,3.2c-1.7,2.2-3.4,4.5-5.2,6.6
			c-1.3,1.6-2.7,3.2-3.9,4.9c-0.7,0.8-1.3,1.7-2.1,2.5C-103.8,317.5-103.8,317.7-104,317.6c0-0.1-0.1-0.2-0.1-0.3
			c0.1-0.4-0.1-0.6-0.5-0.5c-0.3,0-0.7,0.1-0.7,0.6c0,0.4,0.4,0.3,0.7,0.3C-104.4,317.7-104.2,317.4-104,317.6z M-182.5,320.3
			c0.1,0,0.3,0,0.3-0.2c0-0.3-0.4-0.3-0.5-0.4c-0.1-0.1-0.3,0-0.3,0.2C-183,320.1-182.7,320.1-182.5,320.3z M-180.3,325.2
			c0-0.2-0.1-0.3-0.3-0.2c-0.3,0.1-0.4,0.3-0.3,0.6c0,0.1,0,0.4,0.2,0.3C-180.3,325.7-180.5,325.3-180.3,325.2z M-161.3,295.5
			c-0.2-0.1-0.4-0.2-0.4-0.2c-0.2,0.2-0.6,0.3-0.7,0.6c0,0.2,0.2,0.3,0.2,0.2C-162,295.9-161.7,295.7-161.3,295.5z M-140.2,314.2
			c0.1-0.1,0.5,0,0.5-0.3c0-0.2-0.2-0.5-0.5-0.4c-0.2,0-0.3,0.2-0.3,0.4C-140.5,314.1-140.5,314.2-140.2,314.2z M-180.4,323
			c0.2,0.4,0.7,0.3,1,0.6c0,0,0.2,0,0.3,0c0,0,0-0.1,0-0.2C-179.5,323.3-179.8,322.5-180.4,323z M-181,318.7
			c-0.1-0.3-0.4-0.4-0.7-0.5c-0.1,0-0.3,0-0.3,0.2c0.1,0.4,0.5,0.4,0.8,0.5C-181.1,319.1-180.9,319-181,318.7z M-169.6,297.6
			c-0.6-0.5-1.1-0.8-1.9-0.7C-171.2,297.6-170.7,297.8-169.6,297.6z M-180.2,326.3c0.2,0.1-0.1,0.5,0.3,0.5c0.3-0.1,0.7-0.2,0.7-0.7
			c0-0.4-0.3-0.4-0.5-0.4C-180.1,325.7-180.1,326-180.2,326.3z M-179.1,319.9c0.1,0,0.2,0,0.2-0.1c0-0.1,0-0.3,0-0.3
			c-0.5-0.2-0.9-0.6-1.5-0.7c-0.1,0-0.2,0.1-0.2,0.2c0,0.1,0,0.2,0.1,0.2C-180.1,319.4-179.6,319.6-179.1,319.9z M-158.7,330.7
			c0.7,0.2,1.2-0.1,1.7-0.2c1.5-0.3,3-0.4,4.3-1.4c1.1-0.9,2.4-1.4,3.3-2.7c0.3-0.5,0.7-0.9,1-1.3c0.5-0.8,1.1-1.6,1.4-2.5
			c0.3-0.8,0.6-1.7,0.6-2.6c0.1-1.1,0.4-2.2,0.3-3.2c-0.3-2.4-0.9-4.8-2.1-7c-1-1.8-2.1-3.4-3.9-4.3c-1.4-0.7-2.7-1.7-4.5-1.7
			c-0.8,0-1.6-0.3-2.4-0.4c-1.8-0.3-3.2,0.6-4.7,1c-1.1,0.2-2.1,1-3.1,1.5c-1.2,0.7-2.1,1.7-3,2.7c-0.6,0.6-0.9,1.6-1.4,2.4
			c-1.4,2.8-1.7,5.8-1.2,8.8c0.4,2.3,1.3,4.4,3,6.2c1.6,1.8,3.5,3.2,5.7,3.9c0.4,0.1,0.8,0.2,1.2,0.4c0,0,0.1,0,0.2,0
			C-161.1,330.2-159.9,331.3-158.7,330.7z M-166,293.5c0.8,0.2,1.4-0.5,2.1-0.3c0.7,0.1,1.4-0.1,2-0.1c0.4,0,0.6-0.4,0.9-0.3
			c0.2,0.1,0.6-0.1,0.6,0.4c0,0.3,0.3,0.2,0.4,0.1c0.6-0.8,1.5-0.4,2.1-0.4c1.9-0.2,3.8,0.5,5.6,0.8c0.2,0,0.5,0.2,0.6,0.4
			c0.2,0.1,0.3,0.5,0.5,0c0-0.1,0.2,0,0.3,0c1,0.9,2.4,1.2,3.6,1.8c1.4,0.8,2.8,1.8,3.9,2.9c1.6,1.6,3.1,3.2,4.3,5.1
			c0.8,1.3,1.4,2.7,2,4.2c0.7,1.9,1.2,3.8,1.5,5.8c0.5,3.5,0.4,7-0.7,10.4c-0.7,2.4-1.6,4.7-3.1,6.8c-1.1,1.5-2.4,2.9-3.7,4.2
			c-0.8,0.8-1.7,1.4-2.6,2.2c-0.3,0.2-0.6,0.2-0.9,0.4c-2.2,1.4-4.6,2.5-7.2,3c-1.5,0.3-3,0.7-4.6,0.5c-0.5,0-1,0.3-1.5,0.2
			c-0.4-0.1-0.7-0.2-1.1-0.2c-0.6-0.1-1.3-0.1-1.9-0.1c-0.9,0-1.7-0.2-2.6-0.3c-1.3-0.2-2.6-0.8-3.9-1.2c-1.5-0.5-2.8-1.3-4.1-2.2
			c-1.3-0.9-2.6-1.8-3.8-3c-1.9-1.9-3.6-3.9-4.5-6.6c-0.3-0.9-0.9-1.7-1.2-2.6c-0.6-1.6-0.9-3.3-1.2-5c-0.1-0.3,0.1-0.3,0.3-0.4
			c0.2-0.1,0.2-0.3,0.1-0.4c-0.6-0.2-0.4-0.5-0.2-1c0.1-0.3,0-0.7,0-1c-0.1-0.9,0-1.8,0.1-2.8c0.1-0.6,0.3-1.2,0.1-1.8
			c-0.1-0.3,0-0.8,0.1-1.1c0.6-2,1.2-4,2-5.8c1.5-3.3,3.8-5.9,6.6-8.1c0.8-0.6,1.4-1.3,2.3-1.8c0.3-0.2,0.6-0.6,1.1-0.2
			c0.1,0.1,0.3,0,0.3-0.2c0.3-0.8,1-1.1,1.8-1.2c0.5-0.1,1.1-0.3,1.5-0.5c0.5-0.4,0.8-0.2,1.2,0.1c0.2,0.1,0.5,0.4,0.7,0.2
			C-165.5,293.9-166,293.8-166,293.5z M-59.1,333.7c0.2,0,0.3-0.1,0.3-0.2c0-0.2,0.1-0.4-0.1-0.5c-0.2-0.1-0.3,0.1-0.3,0.3
			C-59.2,333.5-59.2,333.7-59.1,333.7z M-52.5,332.1c-0.2-0.3-0.5-0.4-0.7-0.2c-0.1,0.1-0.1,0.2,0,0.3
			C-52.9,332.4-52.7,332.2-52.5,332.1z M-49.5,299.8c-0.2,0-0.4,0-0.4,0.3c0,0.2,0.2,0.2,0.4,0.2c0.2,0,0.4,0,0.4-0.2
			C-49.1,299.8-49.3,299.8-49.5,299.8z M-50.4,298.4c-0.1,0-0.2,0.1-0.3,0.3c0,0.3,0.1,0.3,0.3,0.2c0.2,0,0.3-0.1,0.3-0.3
			C-50.1,298.5-50.2,298.3-50.4,298.4z M-83.8,322.6c0-0.2-0.1-0.4-0.4-0.3c-0.2,0-0.4-0.1-0.4,0.2c0,0.3,0.3,0.3,0.5,0.3
			C-84,322.8-83.8,322.8-83.8,322.6z M-65,336.3c0-0.2-0.1-0.3-0.4-0.4c-0.2,0-0.2,0.1-0.2,0.3c0,0.2,0.1,0.4,0.4,0.5
			C-65.1,336.7-65,336.5-65,336.3z M-49.9,332.3c0.5,0.3,0.8,0.3,1.1,0.2c0,0,0-0.2,0-0.2C-49.1,332-49.4,332.2-49.9,332.3z
			 M-55.9,301.7c0.1,0.1-0.2,0.4,0.1,0.4c0.3,0.1,0.3-0.2,0.3-0.4c0-0.2,0.1-0.6-0.3-0.6C-56,301.2-55.8,301.5-55.9,301.7z
			 M-71.6,337.5c0.3-0.1,0.2-0.5,0.3-0.7c0.1-0.1,0-0.3-0.2-0.3c-0.3,0.1-0.2,0.4-0.3,0.6C-71.8,337.3-71.8,337.5-71.6,337.5z
			 M-56.3,293.9c-0.3,0.3-0.5,0.4-0.7,0.5c-0.2,0.1-0.2,0.3-0.2,0.5c0,0,0.1,0.1,0.2,0.1c0.2,0,0.3-0.2,0.3-0.3
			C-56.5,294.5-56.5,294.3-56.3,293.9z M-72.6,301.9c0.1-0.4,0.6-0.1,0.7-0.6c0-0.1-0.1-0.4-0.2-0.3c-0.3,0.2-0.5,0.4-0.8,0.7
			C-72.9,301.8-72.8,302-72.6,301.9z M-78.3,314.6c0.2-0.2,0.5-0.2,0.6-0.5c0-0.2-0.1-0.2-0.3-0.2c-0.3,0.1-0.7,0-0.6,0.5
			C-78.6,314.5-78.5,314.6-78.3,314.6z M-51,300.6c0.2,0,0.5,0.1,0.5-0.3c0-0.3-0.2-0.3-0.4-0.3c-0.2,0-0.5,0.1-0.5,0.4
			C-51.5,300.7-51.2,300.5-51,300.6z M-81.6,315c-0.1-0.2-0.1-0.5-0.4-0.6c-0.2,0-0.4,0.2-0.4,0.4c0.1,0.2,0.2,0.5,0.5,0.5
			C-81.7,315.3-81.5,315.3-81.6,315z M-69.1,331.2c0.1-0.3,0.1-0.6-0.4-0.6c-0.2,0-0.4,0-0.4,0.2c0,0.4,0.3,0.8,0.6,0.9
			C-68.9,331.8-69.2,331.4-69.1,331.2z M-50.1,302.9c-0.1,0.5-0.2,0.9,0.3,1.2c0.1,0.1,0.3,0,0.4-0.1
			C-49.3,303.5-49.6,303.3-50.1,302.9z M-75.1,318c0.2-0.1,0.6,0.1,0.6-0.3c0-0.5-0.5-0.3-0.7-0.4c-0.2-0.1-0.4,0.2-0.4,0.4
			C-75.6,318.2-75.2,317.9-75.1,318z M-49.6,302.2c-0.1-0.4-0.2-0.6-0.5-0.6c-0.3,0-0.5,0.3-0.5,0.6c0,0.3,0.2,0.4,0.5,0.3
			C-49.9,302.5-49.6,302.5-49.6,302.2z M-78.4,317c0-0.4-0.2-0.6-0.6-0.7c-0.2,0-0.4,0.1-0.4,0.4c0,0.4,0.4,0.5,0.6,0.7
			C-78.4,317.5-78.3,317.3-78.4,317z M-57.5,296.4c0.2-0.1,0.6-0.1,0.5-0.4c-0.1-0.3-0.5-0.5-0.8-0.6c-0.3-0.1-0.3,0.3-0.3,0.5
			C-58.1,296.3-57.8,296.3-57.5,296.4z M-51.8,303.2c-0.1-0.2-0.2-0.5-0.5-0.4c-0.3,0.1-0.3,0.4-0.4,0.7c-0.1,0.3,0.1,0.4,0.3,0.3
			C-52,303.8-51.8,303.7-51.8,303.2z M-44.8,303.1c0-0.3-0.2-0.4-0.4-0.4c-0.3,0.1-0.8,0.1-0.8,0.5c0,0.3,0.1,0.5,0.4,0.4
			C-45.3,303.6-44.9,303.5-44.8,303.1z M-51.1,299.6c0-0.9-0.6-0.7-1-0.8c-0.4-0.1-0.4,0.2-0.4,0.4c0,0.3,0.2,0.4,0.4,0.3
			C-51.8,299.5-51.5,299.5-51.1,299.6z M-46.1,330c0.2-0.1,0.7,0.2,0.7-0.2c0-0.6-0.6-0.4-1-0.5c-0.2-0.1-0.5,0-0.5,0.3
			C-46.8,330-46.4,330-46.1,330z M-58.2,294.6c-0.1-0.2,0-0.5-0.2-0.5c-0.4,0-0.6,0.3-0.7,0.7c0,0.3,0,0.6,0.3,0.6
			C-58.2,295.5-58.5,294.9-58.2,294.6z M-48,327.4c-0.2,0.1-0.6,0-0.5,0.4c0.1,0.3,0.3,0.7,0.7,0.8c0.4,0.1,0.6-0.3,0.6-0.5
			C-47.2,327.5-47.6,327.5-48,327.4z M-49.5,327.1c-0.1,0.1-0.2,0.1-0.2,0.2c0.1,0.4,0.2,0.8,0.4,1.1c0.1,0.2,0.4,0.3,0.7,0.3
			c0.3,0,0.4-0.2,0.2-0.4c-0.4-0.2-0.4-0.5-0.5-0.9C-49,327.3-49.2,327.1-49.5,327.1z M-50.8,301.2c0-0.1,0-0.3-0.2-0.3
			c-0.3-0.1-0.6-0.1-0.7,0.2c-0.1,0.3-0.1,0.7-0.7,0.6c-0.1,0-0.3,0.2-0.3,0.4c0,0.2,0,0.3,0.2,0.3
			C-52.1,302.4-50.8,301.5-50.8,301.2z M-46.8,299.5c-0.3,0-0.7-0.2-0.7,0.3c0,0.4,0.4,0.3,0.7,0.3c0.2,0,0.3,0,0.5-0.1
			c0.2-0.1,0.4-0.1,0.5,0.1c0.1,0.3,0.3,0.4,0.5,0.2c0.3-0.2,0-0.4-0.1-0.7C-45.8,299.1-46.3,299.5-46.8,299.5z M-47.4,324.1
			c-0.2,0-0.4-0.1-0.5,0.1c-0.1,0.2,0,0.4,0.1,0.6c0.3,0.6,0.9,0.6,1.4,0.9c0.1,0.1,0.3,0,0.3-0.1c0-0.1,0-0.3-0.1-0.4
			c-0.5-0.1-1.1-0.1-0.7-0.9C-46.8,324-47.2,324.1-47.4,324.1z M-79.5,305.3c-0.5,0.2-0.8,0.7-1.1,1.2c-0.2,0.3-0.3,0.8,0,1
			c0.4,0.2,0.7-0.1,0.9-0.5c0.1-0.2-0.1-0.7,0.2-0.7c0.8-0.2,0.1-1.1,0.7-1.3c0,0,0-0.1,0-0.2c-0.2-0.1-0.4-0.2-0.6-0.1
			c-0.2,0-0.4,0.1-0.4,0.4C-79.9,305.2-79.5,305.1-79.5,305.3z M-77.1,314.1c0.1,1.3,1,1.1,1.6,1.1c1-0.1,1.1-0.9,1.2-1.8
			c-0.4,0.2-0.8,0.3-1.2,0.2c-0.2-0.1-0.4,0.1-0.5,0.3C-76.2,314.4-76.5,314.6-77.1,314.1z M-47.9,317.5c0.2-1.7-0.3-3.2-0.7-4.7
			c-0.8-2.5-2.1-4.8-4.1-6.5c-0.5-0.5-1.3-0.6-1.6-1.3c-1.3,0-2.3-1.1-3.6-1.1c-1.3-0.1-2.6-0.8-4-0.3c-1.1,0.3-2.3,0.5-3.4,0.9
			c-2.4,0.9-4.5,2.4-5.8,4.7c-0.9,1.5-1.8,3.2-2.1,5c-0.2,1.2-0.6,2.4-0.4,3.6c0.3,3,1.2,5.7,3.2,8.1c0.9,1,1.8,2,3,2.6
			c1.9,0.9,3.8,1.6,5.9,2c1.6,0.3,2.8-0.4,4.2-0.5c0.9-0.1,1.5-1.1,2.5-0.5c0.1,0.1,0.2-0.1,0.3-0.2c0.4-0.8,1-1.2,1.9-1.1
			c0.2,0,0.3-0.1,0.3-0.2c-0.4-0.7,0.3-0.8,0.6-1.1c1.5-1.7,3-3.3,3.4-5.6C-48.4,319.9-47.6,318.8-47.9,317.5z M-36.6,317
			c-0.1,3.3-0.5,6.4-1.9,9.4c-0.6,1.3-1.1,2.7-1.9,3.9c-1,1.6-2.3,3.1-3.7,4.3c-1,0.9-1.9,1.8-3,2.5c-2.4,1.4-4.9,2.7-7.7,3.3
			c-2.1,0.5-4.1,0.8-6.2,0.8c-2,0-4-0.2-5.9-0.7c-2.9-0.7-5.5-1.9-7.9-3.4c-1.5-0.9-2.7-2-3.9-3.2c-2.2-2.2-3.9-4.8-5-7.7
			c-0.7-1.9-1.4-4-1.6-6c-0.3-3.3-0.1-6.6,0.8-9.8c0.3-1,0.7-2,1-2.9c0.2-0.7,0.6-1.4,0.8-2.1c0.2-0.7,0.6-1.7,1.1-2
			c0.8-0.4,0.3-1.3,1-1.7c0.6-0.4,1.1-1,1.5-1.5c0.6-0.9,1.6-1.3,2.3-2.1c0.4-0.4,0.7-1,1.4-1c0.7-1.4,2.2-1.7,3.5-2.5
			c1.6-0.9,3.4-1.5,5.2-1.8c0.6-0.1,1.1-0.3,1.6-0.4c1.4-0.2,2.9-0.2,4.3-0.2c1,0,1.9-0.1,2.9,0c1.8,0.3,3.6,0.5,5.3,1.1
			c2.3,0.9,4.5,1.9,6.4,3.7c1.3,1.3,2.7,2.4,4,3.8c1,1.1,1.6,2.4,2.3,3.7c1.9,3.4,2.8,7,3.2,10.8C-36.6,316-36.6,316.5-36.6,317z
			 M-240.7,295.3c0-0.1-0.1-0.1-0.3-0.1c-0.3,0-0.4,0.1-0.4,0.3c0,0.2,0.1,0.2,0.2,0.3C-240.8,295.8-240.7,295.7-240.7,295.3z
			 M-238.7,310.9c0-0.2-0.1-0.3-0.2-0.3c-0.2,0.3-0.5,0.3-0.6,0.7c0,0.1,0,0.2,0.2,0.2C-238.8,311.6-239.1,311-238.7,310.9z
			 M-198,328.7c0.3-0.1,0.2-0.4,0.3-0.6c0.1-0.2-0.2-0.3-0.3-0.2c-0.2,0.1-0.6,0-0.5,0.4C-198.5,328.6-198.3,328.7-198,328.7z
			 M-234,300.3c-0.1,0-0.4,0-0.3,0.3c0.1,0.2,0.2,0.5,0.5,0.3c0.1,0,0.4,0,0.3-0.2C-233.5,300.5-233.7,300.3-234,300.3z
			 M-235.4,299.3c-0.2,0.4,0.4,0.4,0.1,0.7c-0.1,0.1-0.1,0.3,0.1,0.4c0.2,0.1,0.3-0.1,0.4-0.3C-234.5,299.4-235.4,299.9-235.4,299.3
			z M-233.2,314.1c-0.4,0.2-0.8-0.1-0.7,0.8c0.2,1.6,0,3.2,0,4.8c0,2-0.1,4-0.2,6c-0.1,1.2,0.1,2.4,0,3.6c-0.1,2.2,0,4.4-0.1,6.7
			c0,1.4,0,2.8-0.1,4.3c0,0.6-0.3,0.8-0.8,0.8c-1.3-0.1-2.5-0.1-3.8-0.1c-1.8,0-3.5-0.3-5.3-0.1c-0.4,0-0.7-0.1-1.1-0.1
			c-0.3,0-0.5-0.1-0.7-0.4c-0.2-0.4,0.1-0.4,0.3-0.5c0.1,0,0.1-0.3,0.1-0.3c-0.7-0.2-0.3-0.7-0.3-1.1c0-2.1,0-4.3,0.1-6.4
			c0-0.8,0.1-1.6,0-2.4c-0.1-0.8,0.1-1.5,0.5-2.2c1.2-2.2,1.8-4.5,2-7c0.1-1.2,0.6-2.2,0.5-3.4c-0.1-1.3,0.4-2.6,0.3-4
			c0-0.9,0.1-1.8,0.2-2.8c0-1.4,0-2.9,0-4.3c0-0.4-0.1-0.6-0.7-0.5c-0.9,0.2-1.7-0.2-2.6-0.3c-0.3,0-0.5-0.3-0.5-0.8
			c0.1-1.8,0.7-3.6,0.5-5.4c0-0.4,0.2-0.7,0.2-1c0-1.1-0.3-2.1-0.4-3.1c0-0.4,0-0.9,0.2-1.2c0.3-0.5,0.7-0.1,1.1-0.1
			c1.2,0,2.4,0.3,3.6,0c0.6-0.1,1.2,0.2,1.9,0.2c0.9,0.1,1.8,0,2.7-0.1c0.4-0.1,0.7,0.1,0.9,0.4c1.3,1.4,2.3,2.9,3.5,4.4
			c0.7,0.9,1.5,1.6,2.2,2.4c1.4,1.6,2.6,3.5,4.2,5.1c1.3,1.4,2.7,2.8,3.9,4.3c0.6,0.8,1.4,1.6,1.8,2.6c0.1,0.2,0.2,0.3,0.4,0.5
			c0.5,0.4,0.9,0.7,1.4-0.1c0.5-0.8,1.1-1.6,1.7-2.3c0.2-0.3,0.4-0.5,0.7-0.6c0.1,0,0.2,0,0.3-0.1c0.6-1.7,1.9-2.8,3.1-4
			c1-1,1.8-2.3,2.6-3.4c0.5-0.6,0.9-1.2,1.5-1.8c1.3-1.3,2.5-2.6,3.5-4.1c0.6-0.9,1.4-1.7,2.1-2.6c0.8-1,1.9-0.6,2.8-0.6
			c0.2,0,0.5,0.1,0.8,0c1.3-0.2,2.7,0,4,0c0.7,0,1.4,0.1,2,0c0.6-0.1,0.8,0,0.8,0.7c0,0.4-0.1,0.9-0.2,1.3c-0.2,2.6-0.2,5.1,0.4,7.6
			c0.1,0.3,0.1,0.6,0.1,0.9c0,0.8-0.3,1.3-1.1,1.2c-0.7-0.1-1.3,0.2-2,0.1c-0.4-0.1-0.6,0.1-0.6,0.6c0.1,2.5,0.2,5,0.3,7.5
			c0.1,2,0.4,3.9,0.6,5.8c0.3,2,0.6,4,1.2,6c0.2,0.6,0.3,1.1,0.7,1.6c0.8,1.3,0.9,2.6,0.9,4.1c-0.1,2.9-0.1,5.8-0.1,8.8
			c0,1.1,0,1-1.1,1c-1.3,0-2.5,0.1-3.8,0.1c-2.1,0-4.1,0.1-6.2,0.1c-0.4,0-0.5-0.3-0.5-0.5c-0.1-1.6,0-3.2,0.1-4.8
			c0-0.7-0.1-1.4-0.1-2.1c0-0.6,0.1-1.2,0.1-1.8c-0.1-0.6-0.1-1.2,0-1.8c0.1-2.4,0.1-4.8,0.1-7.2c0-0.8-0.1-1.7,0-2.5
			c0-0.8-0.1-1.7,0.2-2.5c0.2-0.4-0.2-0.8-0.2-1.3c0-1.1,0.1-2.2,0-3.3c0-0.2,0.1-0.5-0.2-0.7c-0.3-0.1-0.5,0.2-0.6,0.4
			c-0.9,1.1-1.8,2.2-2.6,3.4c-0.7,1-1.5,1.9-2.3,2.7c-1,1-1.7,2.2-2.6,3.2c-1.2,1.3-2.3,2.5-3.4,3.9c-1.1,1.3-2.1,2.6-3.2,3.8
			c-0.5,0.6-0.8,0.6-1.2,0c-1-1.5-2.3-2.7-3.3-4.1c-1.7-2.4-4-4.3-5.7-6.8c-0.7-1-1.6-1.8-2.4-2.8c-0.5-0.7-1-1.4-1.5-2.1
			c-0.2-0.3-0.4-0.6-0.8-0.6c-0.3,0-0.4,0.1-0.5,0.3C-233.8,314-233.5,314-233.2,314.1z M-254.2,285.6c1.7-0.3,3.5-0.7,5.3-0.4
			c0.3,0,0.5-0.1,0.7-0.1c1.8,0,3.7,0,5.6,0c-0.9,0.7-1.9,0.7-2.8,0.7c-2.9,0-5.9,0.1-8.8,0.1V285.6z M-130.8,253.3
			c0-0.1-0.1-0.3-0.2-0.2c-0.1,0-0.2,0.1-0.2,0.2c0,0.2,0.1,0.3,0.2,0.2C-130.9,253.5-130.8,253.4-130.8,253.3z M-50.4,282.6
			c0.2,0,0.2-0.1,0.3-0.2c0-0.1,0-0.2-0.1-0.2c-0.2,0-0.2,0.1-0.3,0.2C-50.6,282.5-50.5,282.5-50.4,282.6z M-118.5,258.8
			c-0.1-0.1,0.2-0.4-0.2-0.4c-0.4,0-0.2,0.3-0.2,0.5c0,0.2-0.2,0.4,0.2,0.4C-118.4,259.2-118.5,259-118.5,258.8z M-117.1,265.7
			c-0.2-0.5-0.3-1.1-0.5-1.5c-0.2-0.5-0.6-0.8-1-0.5c-0.4,0.2-0.8,0.5-1,0.9c0.1,0.3,0.6,0,0.7,0.4c-0.5,0.4-0.6,1.1-1,1.7
			c-0.1,0.2-0.1,0.5,0,0.5c0.6,0.1,0.5,0.6,0.7,0.9c0.3,0.4,0.7,0.4,1.1,0.4c0.5,0,0.4-0.2,0.2-0.5c0,0,0.1-0.1,0.2-0.1
			c0.4-0.1,0.4-0.5,0.5-0.8c0.1-0.4,0-1,0.4-1.3c0.2-0.1,0.3-0.2,0.3-0.4c0,0-0.1-0.1-0.2-0.1C-117,265.2-116.8,265.5-117.1,265.7z
			 M-112.1,278.5c-0.4,0-0.1,0.6-0.5,0.5c-0.5-0.1-1.1,0.2-1.6,0.1c-1.3-0.4-2,0.6-2.9,1.2c-0.1,0.1-0.3,0.2-0.2,0.4
			c0.1,0.3,0.3,0.2,0.5,0.2c0.7,0,1.4-0.1,2.1,0.1c2.5,0.5,4.9,0,7.4,0.3c1.3,0.1,2.6,0.1,3.9,0.1c2.5,0,5,0.1,7.5,0.1
			c1.1,0,2-0.4,2.7-1.2c0.1-0.2,0.4-0.3,0.3-0.6c-0.1-0.3-0.3-0.1-0.5-0.1c-2.1-0.1-4.3-0.1-6.4-0.2c-3.6-0.2-7.1-0.1-10.7-0.2
			C-111.1,279.2-111.8,279.2-112.1,278.5z M-109.3,266.3c0.2-2.1-0.3-4-2-5.4c-0.6-0.5-0.9-1.5-1.7-1.6c-1-0.1-1.9-0.9-3-0.3
			c-0.4,0.2-1,0.3-1,0.9c0,0.6,0.7,1.3,1.2,1.4c2.5,0.2,3.8,1.4,4.3,3.8c0,0.1,0,0.2,0.1,0.3c0.5,0.8,0.3,1.6-0.1,2.4
			c-0.7,1.6-1.8,2.8-2.9,4.1c-1.4,1.7-2.8,3.4-4.5,4.8c-0.3,0.2-0.5,0.5-0.7,0.9c-0.1,0.2-0.1,0.5,0.2,0.5c1.3-0.1,2.7,0.3,3.7-1
			c0.5-0.6,1-1.1,1.5-1.8c0.7-0.9,1.5-1.8,2.3-2.6c1.1-1.2,2.1-2.5,2.5-4.2C-109.2,267.7-109.4,267-109.3,266.3z M-136.2,242.4
			c0.5,0.7,1.3,0.8,1.8,1.4c1,0.9,1.2,2.8,0.3,3.8c-0.5,0.5-2.1,0.6-2.6,0.2c-0.3-0.3-0.2-0.7-0.1-1c0.1-0.2,0-0.6,0.5-0.6
			c0.4,0,1.1,0.2,1.3-0.2c0.2-0.4-0.3-0.9-0.4-1.4c-0.2-0.8-2.1-1.2-2.6-0.6c-0.5,0.5-1,1-1.4,1.6c-0.4,0.5-0.1,1.1,0,1.7
			c0.2,1.1,1.1,1.9,1.8,2.7c0.2,0.2,0.5,0.1,0.7,0.1c1.3,0.2,2.6,0.1,3.9-0.5c1.5-0.7,3-0.4,4.5,0c0.9,0.2,1.8,0.3,2.7,0.7
			c1.6,0.8,3.4,1.4,4.5,3.1c0.9,1.4,2.2,2.5,3.1,4c0.1,0.2,0.3,0.2,0.5,0.2c1.3-0.1,2.5,0.4,3.8,0.4c2.2,0.1,3.5,1.4,4.7,3.1
			c1.3,2,1.9,4.3,1.4,6.5c-0.4,1.7-1.1,3.5-2.6,4.7c-0.3,0.2-0.4,0.5-0.7,0.7c-1,1.2-1.9,2.5-3.1,3.6c-0.2,0.2-0.2,0.4-0.2,0.6
			c0,0.3,0.4,0.3,0.5,0.3c1.2,0.1,2.3,0.1,3.5,0.2c2.6,0,5.1,0,7.7,0c3.4,0.1,6.9,0.3,10.3,0.2c0.8,0,1.7,0,2.3,0.9
			c-0.8,0.3-1.2,1-1.8,1.4c-0.1,0.1-0.3,0.2-0.2,0.4c0,0.3,0.3,0.3,0.5,0.3c0.7,0.1,1.3,0.1,2,0.1c2.2,0,4.4-0.1,6.5,0
			c3,0.1,6,0,9.1,0.1c4.1,0.2,8.2,0.2,12.3,0.4c3.1,0.1,6.2-0.1,9.3-0.1c3.9,0.1,7.8-0.2,11.6,0.3c0.4,0.1,0.6,0.4,1.2,0.5
			c-1,0.2-1.8,0.1-2.6,0.1c-2.1,0-4.2,0-6.2,0c-0.8,0-1.8,0.4-2.6-0.3c-0.7,0.4-1.5,0-2.2,0.2c-0.3,0.1-0.8,0.4-1.1-0.2
			c0,0-0.2-0.1-0.2-0.1c-1.5,0.7-3,0.1-4.5,0.2c-2.2,0.1-4.4,0.1-6.6,0.1c-2.5-0.1-4.9-0.2-7.4-0.1c-2.3,0.1-4.6,0-6.8-0.1
			c-4.3-0.1-8.6-0.1-13-0.2c-0.6,0-1,0.1-1.3,0.6c-0.3,0.4-0.9,0.4-1.1,1c-0.1,0.4-0.2,0.5,0.3,0.6c1.4,0.2,2.7,0.1,4.1,0.1
			c3,0.1,6,0,9.1,0c1.7,0,3.4,0,5.2,0.1c1.7,0,3.5-0.1,5.2,0c4.9,0.2,9.7,0.1,14.6,0.1c1.2,0,2.5,0,3.7,0c0.3,0,0.7-0.1,0.7,0.2
			c0,0.3-0.4,0.4-0.6,0.5c-0.3,0-0.7,0.3-0.9-0.2c-0.1-0.1-0.2-0.1-0.3-0.1c-1.9,0.6-3.9,0.2-5.8,0.2c-2.7,0.1-5.3,0-8,0
			c-4.1,0-8.1,0-12.2-0.1c-1.8-0.1-3.6,0-5.4-0.1c-1.1,0-2.2,0-3.3,0c-0.3,0-0.9,0.3-0.9-0.5c0-0.3-0.4-0.2-0.5,0
			c-0.1,0.6-0.5,0.5-0.9,0.5c-1.9,0-3.7,0-5.6,0c-0.8,0-1.5,0.1-2.3-0.1c0-0.2,0.1-0.5,0.3-0.5c0.5-0.1,0.7-0.5,1-0.9
			c0.2-0.3,0.4-0.6,0.8-0.7c0.2-0.1,0.5-0.1,0.4-0.4c-0.1-0.3-0.3-0.3-0.5-0.3c-1.2-0.1-2.5-0.1-3.7-0.2c-2.8-0.2-5.7,0-8.6-0.3
			c-2-0.2-4.1,0-6.2-0.1c-1,0-2,0-2.9,0c-0.4,0-0.6,0.1-0.9,0.3c-0.6,0.4-1-0.1-1.4-0.5c-0.3-0.4,0-0.7,0.3-0.9
			c0.6-0.4,1.2-0.7,1.7-1.3c0.1-0.1,0.4-0.2,0.2-0.5c-0.1-0.2-0.3-0.2-0.5-0.2c-0.9,0.1-1.7-0.1-2.6-0.2c-0.2,0-0.4,0.1-0.5-0.2
			c0-0.2-0.1-0.6,0.2-0.7c1.2-0.4,1.7-1.5,2.5-2.4c1.1-1.2,2.1-2.6,3.3-3.7c0.7-0.7,1.4-1.5,1.6-2.6c0.1-0.4,0.4-0.8,0.6-0.8
			c1-0.3,0.5-1.1,0.6-1.6c0.2-0.6,0.4-1.2,0-1.9c-0.3-0.6-0.2-1.4-1-1.8c-0.3-0.2-0.6-0.4-0.9-0.4c-0.6-0.2-0.8,0.1-0.7,0.7
			c0.1,0.6,0.2,1.1,0.4,1.6c0.1,0.4,0.2,0.8-0.1,1.2c-0.1,0.1-0.1,0.3-0.1,0.4c0.1,0.7-0.2,1.4-0.4,2.1c-0.3-0.2-0.1-0.8-0.6-0.8
			c-0.3,0-0.4,0.3-0.6,0.5c-0.3,0.3,0,0.7,0.1,0.8c0.3,0.4,0.1,0.4-0.2,0.5c-2.2,0.5-3.9-1.1-3.9-3.2c0-1.2,0.3-2.2,0.8-3.3
			c0.3,0.3-0.1,0.7,0.4,1.2c-0.1-0.6,0.5-1.1-0.4-1.2c0.2-1,1-1.4,1.8-1.7c1.1-0.4,0.1-0.9,0.1-1.2c0-0.6-0.6-0.4-0.8-0.2
			c-0.6,0.3-1,0.7-1.6,0c-0.1-0.1-0.6-0.1-0.6,0.3c0,0.3-0.1,0.6,0,0.9c0.2,0.4-0.1,0.7-0.5,0.8c-0.5,0.1-0.6-0.2-0.6-0.6
			c-0.1-0.9-0.4-1.8-0.6-2.7c-0.4-1.3-1.5-2-2.5-2.7c-0.7-0.6-1.5-1.2-2.5-1.5c-0.6-0.2-1.1-0.2-1.6-0.1c-0.2,0.1-0.3,0.2-0.6,0.1
			c-0.3-0.1-0.3-0.8-0.6-0.5c-0.5,0.6-1.5,0.5-1.8,1.3c-0.6,1.3-0.6,2.7,0.2,3.9c0.4,0.8,1,0.4,1.6,0.2c0.2,0.2-0.2,0.5,0.2,0.6
			c0.3,0.1,0.5-0.1,0.7-0.3c1-1.3,1-1.3-0.5-2c-0.4-0.2-0.3-0.6-0.2-0.8c0.2-0.4,0.5-0.7,1-0.6c1.2,0.1,1.6,1.1,1.7,2.3
			c0.1,1.1-0.4,1.6-1,2.2c-0.9,0.9-2.8,0.8-3.8-0.2c-0.6-0.6-1.1-1.2-1.5-1.9c-0.8-1.4-0.6-4.5,1.3-5.6c0.6-0.3,1.2-0.1,1.8-0.2
			c0.6-0.1,1.3-0.2,2,0c1.3,0.3,2.6,0.2,3.6,1.3c0.1,0.1,0.2,0.2,0.3,0.2c1.8,0.6,2.5,2,3.1,3.6c0.1,0.3,0.6,0.4,0.7,0.8
			c0.3,0.7,0.7,0,1-0.1c1.3-0.5,1.3-0.5,0.4-1.7c-0.4-0.5-0.6-1.2-1.3-1.4c0.1-1-0.8-1.3-1.4-1.8c-0.9-0.8-1.8-1.5-3.1-1.9
			c-1-0.3-2-0.6-3.1-0.7c-1.9-0.1-3.9-0.1-5.8,0.3c-2.5,0.5-4.9-0.7-5.5-3.6c-0.4-2.1,0.4-3.7,2.1-4.5c0.4-0.2,0.9-0.2,1.3-0.2
			c0.2,0,0.5,0.1,0.6-0.3H-136.2z"/>
	</defs>
	<use xlink:href="#SVGID_1_"  style="overflow:visible;fill-rule:evenodd;clip-rule:evenodd;fill:#231F20;"/>
	<clipPath id="SVGID_2_">
		<use xlink:href="#SVGID_1_"  style="overflow:visible;"/>
	</clipPath>
	<rect x="-255.8" y="240.8" class="st0" width="222.4" height="134"/>
</g>
</svg>
