<svg xmlns="http://www.w3.org/2000/svg" width="250" height="250" viewBox="0 0 250 250"><path d="M104.233 98.855h-4.495v18.905h-.088l-6.787-18.905h-4.318v31.375h4.496v-18.859h.087l6.874 18.859h4.231zM109.52 98.855h4.495v31.375h-4.495zM131.884 100.508c-.72-.632-1.528-1.109-2.424-1.432-.897-.324-1.8-.484-2.709-.484-.912 0-1.816.161-2.712.484-.896.323-1.703.8-2.423 1.432-.721.631-1.301 1.432-1.741 2.402-.441.969-.661 2.086-.661 3.348v16.569c0 1.293.219 2.417.661 3.371.44.954 1.02 1.748 1.741 2.38.72.633 1.526 1.109 2.423 1.431.896.324 1.8.486 2.712.486.909 0 1.812-.162 2.709-.486.896-.321 1.704-.798 2.424-1.431.719-.632 1.299-1.426 1.74-2.38s.66-2.078.66-3.371v-9.871h-8.064v3.966h3.571v5.905c0 1.087-.303 1.887-.904 2.401-.603.515-1.314.771-2.136.771-.824 0-1.537-.256-2.139-.771-.601-.514-.904-1.314-.904-2.401v-16.569c0-1.086.303-1.887.904-2.401.602-.514 1.314-.771 2.139-.771.821 0 1.533.257 2.136.771.602.515.904 1.315.904 2.401v1.586h4.493v-1.586c0-1.262-.219-2.379-.66-3.348-.441-.97-1.021-1.77-1.74-2.402zM153.894 130.23v-31.375h-4.495v13.44h-5.553v-13.44h-4.494v31.375h4.494v-13.969h5.553v13.969zM171.873 98.855h-14.894v4.23h5.2v27.145h4.493v-27.145h5.201zM191.349 119.258h-.088l-3.657-20.403h-3.437l-3.526 19.918h-.088l-2.246-19.918h-4.76l4.671 31.375h4.231l3.392-20.357h.09l3.434 20.357h4.232l4.671-31.375h-4.76zM202.321 98.855h4.495v31.375h-4.495zM227.79 130.23v-31.375h-4.494v18.905h-.087l-6.786-18.905h-4.319v31.375h4.495v-18.859h.087l6.875 18.859zM246.468 128.138c1.424-1.395 2.138-3.562 2.138-6.5v-14.673c0-2.556-.678-4.546-2.029-5.971-1.351-1.426-3.305-2.138-5.859-2.138h-6.654v31.375h6.258c2.67-.001 4.721-.699 6.146-2.093zm-7.91-25.053h2.071c1.321 0 2.231.338 2.731 1.014.499.676.75 1.631.75 2.864v15.114c0 1.352-.265 2.344-.792 2.975-.531.632-1.428.947-2.689.947h-2.071v-22.914zM96.328 136.843c-.591-.227-1.344-.344-2.257-.344h-5.957v14.393h3.743v-4.764h2.341c.95 0 1.743-.137 2.383-.406.639-.271 1.163-.689 1.571-1.25.611-.851.917-1.926.917-3.227 0-1.314-.38-2.402-1.139-3.256-.479-.537-1.013-.919-1.602-1.146zm-1.561 5.731c-.162.188-.371.325-.628.405-.256.081-.602.119-1.038.119h-1.244v-3.574h1.255c.75 0 1.281.159 1.592.477.14.146.254.34.343.573.087.236.131.474.131.713 0 .541-.137.969-.411 1.287zM110.734 144.598c.301-.154.582-.361.843-.623.352-.35.628-.798.832-1.345.204-.543.307-1.111.307-1.702 0-.524-.087-1.043-.258-1.55-.173-.505-.417-.955-.734-1.349-.428-.535-.943-.923-1.544-1.166-.601-.243-1.345-.364-2.231-.364h-5.818v14.393h3.743v-5.523l3.562 5.523h4.662l-4.524-5.903c.47-.108.856-.236 1.16-.391zm-2.067-2.758c-.105.245-.24.444-.401.6-.345.327-.911.492-1.698.492h-.695v-3.574h.695c.787 0 1.353.163 1.698.493.167.152.303.352.405.591.103.243.154.475.154.697s-.053.458-.158.701zM130.084 138.588c-.702-.802-1.579-1.423-2.631-1.861-1.049-.44-2.18-.659-3.389-.659-1.195 0-2.32.219-3.374.659-1.054.438-1.937 1.06-2.646 1.861-.583.661-1.053 1.459-1.408 2.398-.355.938-.533 1.856-.533 2.755 0 .903.174 1.813.521 2.738.349.925.825 1.727 1.429 2.41.696.794 1.571 1.413 2.626 1.854 1.053.442 2.182.664 3.384.664 1.209 0 2.34-.222 3.389-.657 1.052-.44 1.929-1.062 2.631-1.861.604-.684 1.081-1.485 1.43-2.41.348-.925.521-1.835.521-2.738 0-.904-.174-1.82-.521-2.743-.348-.927-.825-1.728-1.429-2.41zm-2.91 7.768c-.393.45-.859.798-1.396 1.046-.539.245-1.108.367-1.713.367s-1.175-.122-1.714-.367c-.539-.248-1-.6-1.387-1.054-.309-.366-.548-.775-.717-1.23-.169-.452-.252-.912-.252-1.377 0-.47.083-.933.252-1.385.169-.454.408-.862.717-1.226.394-.459.858-.811 1.393-1.058.534-.245 1.103-.368 1.708-.368.596 0 1.166.123 1.708.368.542.247 1.009.595 1.402 1.045.31.353.55.756.718 1.215.169.456.253.924.253 1.408-.001.987-.325 1.857-.972 2.616zM145.322 138.029c-.617-.499-1.295-.879-2.034-1.14-.737-.26-1.496-.391-2.277-.391h-5.523v14.393h5.523c.773 0 1.531-.131 2.272-.391.741-.259 1.422-.639 2.039-1.138.864-.683 1.545-1.529 2.04-2.536.497-1.009.745-2.055.745-3.138 0-1.073-.248-2.116-.745-3.126-.495-1.005-1.175-1.849-2.04-2.533zm-1.939 8.263c-.379.509-.832.879-1.359 1.116-.527.235-1.173.352-1.94.352h-.854v-8.129h.854c.773 0 1.421.119 1.94.354.521.235.974.607 1.359 1.114.555.743.833 1.605.833 2.591 0 .991-.278 1.859-.833 2.602zM160.384 144.292c0 .828-.034 1.42-.101 1.771-.067.352-.206.671-.417.959-.217.303-.511.536-.881.705-.367.171-.764.253-1.186.253-.408 0-.78-.078-1.116-.234-.338-.159-.615-.383-.834-.672-.302-.408-.471-.866-.506-1.381-.022-.302-.031-.77-.031-1.401v-7.793h-3.744v8.3c0 1.214.109 2.183.328 2.902.217.722.591 1.345 1.117 1.872.512.522 1.188.933 2.024 1.233.836.304 1.715.452 2.635.452 1.962 0 3.521-.551 4.682-1.654.822-.771 1.344-1.638 1.56-2.593.141-.597.211-1.336.211-2.213v-8.3h-3.741v7.794zM175.223 136.194c-.88 0-1.745.15-2.6.454-.854.301-1.622.729-2.305 1.286-.877.71-1.555 1.565-2.029 2.573-.476 1.005-.711 2.082-.711 3.233 0 1.15.235 2.224.711 3.227.475 1.007 1.152 1.865 2.029 2.575.683.555 1.448.982 2.299 1.286.85.302 1.708.454 2.573.454.569 0 1.107-.057 1.618-.165.51-.11 1.103-.297 1.776-.564v-4.48c-.359.431-.718.752-1.077.971-.667.4-1.384.602-2.148.602-.971 0-1.813-.294-2.53-.877-.907-.737-1.362-1.744-1.362-3.027 0-1.284.455-2.295 1.362-3.035.717-.582 1.56-.874 2.53-.874.765 0 1.481.199 2.148.602.367.217.725.54 1.077.969v-4.48c-.67-.26-1.26-.446-1.772-.559-.512-.115-1.042-.171-1.589-.171zM180.676 139.631h3.048v11.261h3.742v-11.261h3.099v-3.132h-9.889zM193.29 136.499h3.744v14.393h-3.744zM214.474 138.588c-.701-.802-1.577-1.423-2.63-1.861-1.049-.44-2.179-.659-3.388-.659-1.196 0-2.319.219-3.375.659-1.056.438-1.937 1.06-2.646 1.861-.584.661-1.053 1.459-1.408 2.398-.354.938-.532 1.856-.532 2.755 0 .903.174 1.813.521 2.738.349.925.825 1.727 1.43 2.41.696.794 1.571 1.413 2.627 1.854 1.053.442 2.181.664 3.384.664 1.209 0 2.339-.222 3.388-.657 1.053-.44 1.929-1.062 2.63-1.861.606-.684 1.083-1.485 1.43-2.41.349-.925.523-1.835.523-2.738 0-.904-.175-1.82-.523-2.743-.348-.927-.825-1.728-1.431-2.41zm-2.909 7.768c-.394.45-.859.798-1.396 1.046-.539.245-1.11.367-1.714.367-.605 0-1.176-.122-1.715-.367-.536-.248-.999-.6-1.385-1.054-.311-.366-.55-.775-.718-1.23-.169-.452-.253-.912-.253-1.377 0-.47.084-.933.253-1.385.168-.454.407-.862.718-1.226.393-.459.857-.811 1.39-1.058.535-.245 1.104-.368 1.71-.368.597 0 1.166.123 1.707.368.542.247 1.009.595 1.402 1.045.309.353.548.756.718 1.215.169.456.253.924.253 1.408.001.987-.322 1.857-.97 2.616zM230.506 145.304l-6.885-8.805h-3.743v14.393h3.743v-8.815l6.885 8.815h3.742v-14.393h-3.742zM248.144 144.835c-.116-.372-.301-.718-.553-1.035-.311-.384-.678-.703-1.103-.952-.426-.252-1-.479-1.724-.694-.774-.23-1.245-.373-1.413-.43-.169-.059-.331-.133-.484-.224-.473-.275-.707-.601-.707-.98 0-.289.126-.557.379-.802.296-.292.708-.435 1.234-.435.829 0 1.651.315 2.465.951l1.499-2.913c-.724-.38-1.476-.669-2.25-.868-.778-.201-1.549-.302-2.316-.302-1.545 0-2.781.519-3.711 1.552-.794.879-1.19 1.986-1.19 3.323 0 1.282.382 2.237 1.15 2.87.258.217.579.41.964.575.383.164.979.363 1.785.595.804.233 1.337.438 1.604.613.436.281.653.633.653 1.055 0 .324-.124.623-.37.898-.294.346-.779.517-1.454.517-1.075 0-2.176-.504-3.301-1.518l-1.602 3.018c.626.442 1.321.804 2.087 1.083.979.366 1.951.551 2.921.551.858 0 1.656-.131 2.399-.386.74-.258 1.363-.621 1.871-1.094.892-.828 1.339-2.054 1.339-3.672.001-.489-.057-.922-.172-1.296zM65.417 114.569c-.011-3.727-3.025-6.745-6.75-6.751-3.729.007-6.746 3.024-6.751 6.751 0 .878.173 1.708.479 2.481l.689 1.734-47.943-.003v2.538h53.526c3.725-.007 6.739-3.024 6.75-6.75zM68.475 100.225c-3.344.009-6.097 2.443-6.638 5.632 3.307 1.205 5.737 4.229 6.065 7.869h.573c3.726-.006 6.741-3.023 6.748-6.75-.008-3.725-3.023-6.74-6.748-6.751zM68.472 128.065h-67.077v2.532h61.491l-.685 1.735c-.309.775-.479 1.604-.481 2.484.003.938.198 1.829.544 2.641.143.332.318.644.514.941l.188.295c.163.224.341.435.528.64 1.236 1.358 2.999 2.227 4.979 2.229v.002c3.729-.006 6.744-3.022 6.75-6.747-.008-3.728-3.023-6.746-6.751-6.752zM50.029 111.192l-41.043-.002v2.536h40.444c.081-.888.288-1.735.599-2.534zM59.255 135.854c-.495-.121-1.005-.195-1.537-.195h-39.61v2.533h34.024l-.685 1.732c-.309.773-.479 1.605-.479 2.484.004 3.723 3.022 6.743 6.75 6.747 3.474-.004 6.299-2.641 6.674-6.018-2.781-1.364-4.779-4.071-5.137-7.283z"/></svg>