<?xml version="1.0" encoding="utf-8"?>
<!-- Generator: Adobe Illustrator 19.1.0, SVG Export Plug-In . SVG Version: 6.00 Build 0)  -->
<svg version="1.1" id="Layer_1" xmlns="http://www.w3.org/2000/svg" xmlns:xlink="http://www.w3.org/1999/xlink" x="0px" y="0px"
	 viewBox="-270 182 250 250" style="enable-background:new -270 182 250 250;" xml:space="preserve">
<path d="M-144.6,313.8L-144.6,313.8l-0.3,0c-10.1,0-18.3-2.5-24.3-6.2c6-3.8,14.2-6.3,24.3-6.3l0.3,0h0l0.3,0
	c10.1,0,18.3,2.5,24.3,6.2c-6,3.8-14.2,6.2-24.3,6.2 M-95.7,307.6c17-7.5,28.1-18.7,28.7-31.2c0,0-4.5-3.5-19-8.8
	c-12.7-4.7-22.4-5.8-22.4-5.8l0,27.8c0,4.2-1.7,8.4-4.8,12.1c-9.6-2.3-20.3-3.6-31.4-3.6h0c-11.2,0-21.8,1.3-31.4,3.6
	c-3.1-3.8-4.8-8-4.8-12.1l0-27.8c0,0-9.7,1.1-22.4,5.8c-14.5,5.3-19,8.8-19,8.8c0.6,12.5,11.7,23.7,28.7,31.2
	c-17,7.5-28.1,18.7-28.7,31.2c0,0,4.5,3.5,19,8.8c12.7,4.7,22.4,5.8,22.4,5.8l0-27.8c0-4.2,1.7-8.4,4.8-12.1
	c9.6,2.3,20.3,3.6,31.4,3.6h0c11.2,0,21.8-1.3,31.4-3.6c3.1,3.8,4.8,8,4.8,12.2l0,27.8c0,0,9.7-1.1,22.4-5.8c14.5-5.3,19-8.8,19-8.8
	C-67.6,326.3-78.7,315.1-95.7,307.6"/>
</svg>
